<?xml version="1.0" encoding="UTF-8"?>
<svg width="79px" height="80px" viewBox="0 0 79 80" version="1.1" xmlns="http://www.w3.org/2000/svg" xmlns:xlink="http://www.w3.org/1999/xlink">
    <!-- Generator: Sketch 50.2 (55047) - http://www.bohemiancoding.com/sketch -->
    <title>roupas/ativado</title>
    <desc>Created with Sketch.</desc>
    <defs></defs>
    <g id="roupas/ativado" stroke="none" stroke-width="1" fill="none" fill-rule="evenodd">
        <circle id="Oval-Copy" fill="#F3CA21" cx="51" cy="30" r="29"></circle>
        <path d="M71.743,2 C70.26,2 68.868,2.649 67.913,3.745 C66.959,2.649 65.567,2 64.083,2 C61.281,2 59,4.279 59,7.082 C59,13.561 67.228,18.105 67.578,18.295 C67.683,18.352 67.798,18.381 67.913,18.381 C68.029,18.381 68.144,18.352 68.248,18.295 C68.599,18.105 76.826,13.56 76.826,7.082 C76.826,4.279 74.545,2 71.743,2" id="Stroke-20-Copy" stroke="#474646" stroke-width="2" fill="#FFFFFF" stroke-linecap="round" stroke-linejoin="round"></path>
        <path d="M60.8941211,41.2927516 L56.2781535,26.4975418 C55.4429421,23.821913 53.3459591,21.7450719 50.6680726,20.9417962 C48.7211997,20.3576846 46.3728392,19.6581205 44.6379439,19.1421716 C43.4536695,18.7896174 42.2316233,19.0867283 41.3465923,19.835213 C41.1134495,19.9206609 40.8734686,20.0028474 40.6273011,20.0817726 L32.1348454,17.4449541 L32.1348454,15.3423482 C32.1348454,13.8975608 31.3142868,12.6239954 30.0443747,12.0982624 C28.9496454,11.6449318 28.3299934,10.5008428 28.5374124,9.3156606 C28.7106414,8.32844358 29.5513883,7.48635757 30.5370355,7.31317877 C31.2957265,7.17946255 32.0319499,7.373188 32.6089459,7.85815387 C33.1774758,8.33627087 33.5037455,9.03681338 33.5037455,9.77975371 C33.5037455,10.4072415 34.0117103,10.9160154 34.6382003,10.9160154 C35.2653415,10.9160154 35.7729807,10.4072415 35.7729807,9.77975371 C35.7729807,8.36366639 35.1517006,7.02878721 34.0680423,6.11756014 C32.9850352,5.2066592 31.5555701,4.82605719 30.1443396,5.07424753 C28.2199343,5.41277785 26.6397078,6.99552123 26.3023671,8.92266539 C25.9093456,11.1655103 27.0916663,13.3353004 29.1775783,14.1985854 C29.5891601,14.3691551 29.8656102,14.8286823 29.8656102,15.3420221 L29.8656102,17.444628 L21.3728288,20.0817726 C21.1269869,20.0028474 20.8866804,19.9206609 20.6535376,19.835213 C19.7685066,19.0867283 18.546786,18.7896174 17.362186,19.1421716 C15.6272907,19.6581205 13.2789302,20.3576846 11.3320573,20.9417962 C8.65417084,21.7450719 6.5571878,23.821913 5.72197639,26.4975418 L1.10600875,41.2927516 C0.775505992,42.3510665 1.23853548,43.510484 2.20627361,44.0492625 L11.6742823,49.3176813 L11.6742823,72.6488776 C11.6742823,73.9455987 12.7273325,75 14.0216659,75 L47.9781383,75 C49.2724718,75 50.3258476,73.9455987 50.3258476,72.6488776 L50.3258476,49.3176813 L59.7938563,44.0492625 C60.7615944,43.510484 61.2242983,42.3513927 60.8941211,41.2927516 Z" id="Path" fill="#FFFFFF"></path>
        <path d="M48.708175,33.3920802 C48.2757536,34.5084475 48.0559612,35.682215 48.0559612,36.8797904 L48.0559612,72.6492037 C48.0562868,72.6922538 48.0214456,72.7271505 47.978464,72.7271505 L14.0216659,72.7271505 C13.9786843,72.7271505 13.9435175,72.6922538 13.9435175,72.6492037 L13.9435175,36.8797904 C13.9435175,35.682215 13.7240506,34.5087737 13.2916293,33.3920802 L9.77625214,24.3209027 C10.412185,23.7801674 11.1591538,23.3662994 11.9829686,23.1194136 C12.8119933,22.870571 13.7136309,22.6008556 14.6094073,22.3334232 C16.4504542,29.832946 23.239274,35.2096423 31.000065,35.2096423 C34.3265834,35.2096423 37.5195982,34.2491685 40.274005,32.4276928 C40.2756331,32.4270405 40.2775868,32.4270405 40.2788893,32.4263882 C40.7578741,32.1485194 41.9011206,31.4179723 43.8593901,29.2064366 C45.4099854,27.1609047 46.8234952,24.6359512 47.3900714,22.3334232 C48.2861734,22.6008556 49.187811,22.8702449 50.0168357,23.1190875 C50.8403248,23.3662994 51.5876192,23.7798413 52.2235521,24.3205766 L48.708175,33.3920802 Z" id="Path" fill="#FFFFFF"></path>
        <path d="M58.6916377,42.0624352 L50.3258476,46.7173901 L50.3258476,43.7378015 L57.9550887,39.4924748 L58.728107,41.9707907 C58.739178,42.0060135 58.7238739,42.0444977 58.6916377,42.0624352 Z M48.708175,33.3920802 C48.2757536,34.5084475 48.0559612,35.682215 48.0559612,36.8797904 L48.0559612,72.6492037 C48.0562868,72.6922538 48.0214456,72.7271505 47.978464,72.7271505 L14.0216659,72.7271505 C13.9786843,72.7271505 13.9435175,72.6922538 13.9435175,72.6492037 L13.9435175,36.8797904 C13.9435175,35.682215 13.7240506,34.5087737 13.2916293,33.3920802 L9.77625214,24.3209027 C10.412185,23.7801674 11.1591538,23.3662994 11.9829686,23.1194136 C12.8119933,22.870571 13.7136309,22.6008556 14.6094073,22.3334232 C16.4504542,29.832946 23.239274,35.2096423 31.000065,35.2096423 C34.3265834,35.2096423 37.5195982,34.2491685 40.274005,32.4276928 C40.2756331,32.4270405 40.2775868,32.4270405 40.2788893,32.4263882 C40.7578741,32.1485194 41.9011206,31.4179723 43.8593901,29.2064366 C45.4099854,27.1609047 46.8234952,24.6359512 47.3900714,22.3334232 C48.2861734,22.6008556 49.187811,22.8702449 50.0168357,23.1190875 C50.8403248,23.3662994 51.5876192,23.7798413 52.2235521,24.3205766 L48.708175,33.3920802 Z M11.6746079,41.1375104 L4.73665485,37.2770254 L7.88799055,27.175907 C7.96613898,26.9257598 8.05959149,26.6831138 8.16671997,26.4486212 L11.1764116,34.214598 C11.5069144,35.0677727 11.6746079,35.9643236 11.6746079,36.8797904 L11.6746079,41.1375104 Z M11.6742823,46.7173901 L3.3088178,42.0624352 C3.27625595,42.0444977 3.2612775,42.0060135 3.27202291,41.9707907 L4.04536681,39.4924748 L11.6742823,43.7378015 L11.6742823,46.7173901 Z M18.008213,21.3207675 C18.6688929,21.1241068 19.3663677,21.4985122 19.5952775,22.1732899 C21.2575599,27.0643681 25.8403144,30.3508517 31.000065,30.3508517 C36.1594898,30.3508517 40.7422444,27.0643681 42.4045267,22.1732899 C42.6337622,21.4988384 43.3302601,21.1247591 43.9919169,21.3207675 C44.3725649,21.4342632 44.7844722,21.5565646 45.2133118,21.6847365 C44.5083478,24.354821 42.9698004,27.7329491 39.375298,30.2898641 C36.9145991,32.0206737 34.0214789,32.9367928 31.000065,32.9367928 C24.2457607,32.9367928 18.3432745,28.2309605 16.7887718,21.6840842 C17.2169601,21.5565646 17.6278907,21.4342632 18.008213,21.3207675 Z M31.000065,23.6748251 C34.1455395,23.6748251 37.1526262,23.332055 39.7289197,22.6951093 C38.0858488,25.9613724 34.7290478,28.0776761 31.000065,28.0776761 C27.2710821,28.0776761 23.9142811,25.9613724 22.2712102,22.6951093 C24.8475037,23.332055 27.8545904,23.6748251 31.000065,23.6748251 Z M31.000065,19.4718962 L36.1334404,21.0660544 C34.5160933,21.2865231 32.7854311,21.4019756 31.000065,21.4019756 C29.2146988,21.4019756 27.4840366,21.2865231 25.8666895,21.0660544 L31.000065,19.4718962 Z M54.112465,27.175907 L57.2638007,37.2770254 L50.3258476,41.1378365 L50.3258476,36.8797904 C50.3258476,35.9643236 50.4932155,35.0677727 50.8240439,34.214598 L53.8337355,26.4486212 C53.940864,26.6831138 54.0343165,26.9257598 54.112465,27.175907 Z M60.8941211,41.2927516 L56.2781535,26.4975418 C55.4429421,23.821913 53.3459591,21.7450719 50.6680726,20.9417962 C48.7211997,20.3576846 46.3728392,19.6581205 44.6379439,19.1421716 C43.4536695,18.7896174 42.2316233,19.0867283 41.3465923,19.835213 C41.1134495,19.9206609 40.8734686,20.0028474 40.6273011,20.0817726 L32.1348454,17.4449541 L32.1348454,15.3423482 C32.1348454,13.8975608 31.3142868,12.6239954 30.0443747,12.0982624 C28.9496454,11.6449318 28.3299934,10.5008428 28.5374124,9.3156606 C28.7106414,8.32844358 29.5513883,7.48635757 30.5370355,7.31317877 C31.2957265,7.17946255 32.0319499,7.373188 32.6089459,7.85815387 C33.1774758,8.33627087 33.5037455,9.03681338 33.5037455,9.77975371 C33.5037455,10.4072415 34.0117103,10.9160154 34.6382003,10.9160154 C35.2653415,10.9160154 35.7729807,10.4072415 35.7729807,9.77975371 C35.7729807,8.36366639 35.1517006,7.02878721 34.0680423,6.11756014 C32.9850352,5.2066592 31.5555701,4.82605719 30.1443396,5.07424753 C28.2199343,5.41277785 26.6397078,6.99552123 26.3023671,8.92266539 C25.9093456,11.1655103 27.0916663,13.3353004 29.1775783,14.1985854 C29.5891601,14.3691551 29.8656102,14.8286823 29.8656102,15.3420221 L29.8656102,17.444628 L21.3728288,20.0817726 C21.1269869,20.0028474 20.8866804,19.9206609 20.6535376,19.835213 C19.7685066,19.0867283 18.546786,18.7896174 17.362186,19.1421716 C15.6272907,19.6581205 13.2789302,20.3576846 11.3320573,20.9417962 C8.65417084,21.7450719 6.5571878,23.821913 5.72197639,26.4975418 L1.10600875,41.2927516 C0.775505992,42.3510665 1.23853548,43.510484 2.20627361,44.0492625 L11.6742823,49.3176813 L11.6742823,72.6488776 C11.6742823,73.9455987 12.7273325,75 14.0216659,75 L47.9781383,75 C49.2724718,75 50.3258476,73.9455987 50.3258476,72.6488776 L50.3258476,49.3176813 L59.7938563,44.0492625 C60.7615944,43.510484 61.2242983,42.3513927 60.8941211,41.2927516 Z" id="Fill-1" fill="#4A4A4A"></path>
    </g>
</svg>