<?xml version="1.0" encoding="UTF-8"?>
<svg width="80px" height="80px" viewBox="0 0 80 80" version="1.1" xmlns="http://www.w3.org/2000/svg" xmlns:xlink="http://www.w3.org/1999/xlink">
    <!-- Generator: Sketch 50.2 (55047) - http://www.bohemiancoding.com/sketch -->
    <title>compras/ativado</title>
    <desc>Created with Sketch.</desc>
    <defs></defs>
    <g id="compras/ativado" stroke="none" stroke-width="1" fill="none" fill-rule="evenodd">
        <circle id="Oval" fill="#F3CA21" cx="49" cy="30" r="29"></circle>
        <g id="Group" transform="translate(27.500000, 44.000000) scale(-1, 1) translate(-27.500000, -44.000000) translate(0.000000, 11.000000)">
            <rect id="Rectangle-2" fill="#FFFFFF" x="2" y="17" width="51" height="47"></rect>
            <path d="M48.7045542,61.2437461 L51.6064337,64.0664062 L45.8026747,64.0664062 L48.7045542,61.2437461 Z M44.3975904,35.3847656 L44.3975904,17.4178125 L47.7105783,17.4178125 L47.7105783,59.4760547 L44.3975904,62.6987109 L44.3975904,35.3847656 Z M53.0120482,62.6990977 L49.6985301,59.4759258 L49.6985301,17.4178125 L53.0120482,17.4178125 L53.0120482,62.6990977 Z M31.1445783,8.70387891 C31.1445783,8.70297656 31.1447108,8.70220313 31.1447108,8.70130078 C31.1447108,6.54315234 30.3308434,4.56740625 28.9883133,3.04502344 C30.0844699,2.34338672 31.3947952,1.93359375 32.8022651,1.93359375 C36.6388795,1.93359375 39.7602289,4.96959375 39.7602289,8.70130078 C39.7602289,8.70220313 39.7603614,8.70297656 39.7603614,8.70387891 L39.7603614,15.4843477 L31.1445783,15.4843477 L31.1445783,8.70387891 Z M25.8446988,15.4842188 L25.8446988,8.70117188 C25.8446988,8.69949609 25.8444337,8.69794922 25.8444337,8.69627344 C25.845759,7.03080469 26.4698434,5.50519922 27.5005301,4.32544922 C28.5318795,5.50597266 29.1562289,7.03273828 29.156759,8.69949609 C29.156759,8.70001172 29.156759,8.70065625 29.156759,8.70117188 L29.156759,15.4842188 L25.8446988,15.4842188 Z M15.2408313,8.69949609 C15.2418916,4.9685625 18.3627108,1.93359375 22.1987952,1.93359375 C23.6062651,1.93359375 24.9165904,2.34338672 26.012747,3.04502344 C24.6702169,4.56727734 23.8563494,6.54315234 23.8563494,8.70130078 C23.8563494,8.70387891 23.856747,8.70632813 23.856747,8.70877734 L23.856747,15.4842188 L15.2409639,15.4842188 L15.2409639,8.70117188 C15.2409639,8.70065625 15.2408313,8.70014063 15.2408313,8.69949609 Z M0,52.1425781 L0,49.1777344 L0,16.4511445 C0,16.1971992 0.106024096,15.9471211 0.291566265,15.7679414 C0.475783133,15.5874727 0.732891566,15.4843477 0.993975904,15.4843477 L13.253012,15.4843477 L13.253012,8.70387891 C13.253012,8.70297656 13.2528795,8.70220313 13.2528795,8.70130078 C13.2528795,3.90341016 17.2660241,0 22.1987952,0 C24.1819759,0 26.0156627,0.631769531 27.5005301,1.69808203 C28.9853976,0.631769531 30.8190843,0 32.8022651,0 C37.7331807,0 41.7451325,3.90057422 41.7480482,8.69614453 C41.7480482,8.69782031 41.7483133,8.69949609 41.7483133,8.70117188 L41.7483133,15.4842188 L54.0060241,15.4842188 C54.2684337,15.4842188 54.5242169,15.5873438 54.7084337,15.7678125 C54.8939759,15.9469922 55,16.1970703 55,16.4510156 L55,65.0332031 C55,65.0342344 54.9998675,65.0351367 54.9998675,65.0360391 C54.9997349,65.0668477 54.9981446,65.0975273 54.9949639,65.128207 C54.9948313,65.1297539 54.9945663,65.1314297 54.9943012,65.1329766 C54.9717711,65.3461875 54.876747,65.5534688 54.7088313,65.716793 C54.5148072,65.9056406 54.2603494,66 54.0060241,66 L0.993975904,66 C0.732891566,66 0.475783133,65.896875 0.291566265,65.7164063 C0.106024096,65.5372266 0,65.2871484 0,65.0332031 L0,52.1425781 Z M1.98795181,52.5615234 L1.98795181,64.0664063 L42.4096386,64.0664063 L42.4096386,17.4178125 L31.1445783,17.4178125 L31.1445783,22.8961992 C31.1445783,23.4298711 30.6979518,23.8629961 30.1506024,23.8629961 C29.6019277,23.8629961 29.1566265,23.4298711 29.1566265,22.8961992 L29.1566265,17.4178125 L15.2409639,17.4178125 L15.2409639,22.8961992 C15.2409639,23.4298711 14.7956627,23.8629961 14.246988,23.8629961 C13.6983133,23.8629961 13.253012,23.4298711 13.253012,22.8961992 L13.253012,17.4178125 L1.98795181,17.4178125 L1.98795181,48.1787109 L1.98795181,52.5615234 Z" id="Fill-1" stroke="#474646" stroke-width="0.5" fill="#474646"></path>
        </g>
        <path d="M66.743,1 C65.26,1 63.868,1.649 62.913,2.745 C61.959,1.649 60.567,1 59.083,1 C56.281,1 54,3.279 54,6.082 C54,12.561 62.228,17.105 62.578,17.295 C62.683,17.352 62.798,17.381 62.913,17.381 C63.029,17.381 63.144,17.352 63.248,17.295 C63.599,17.105 71.826,12.56 71.826,6.082 C71.826,3.279 69.545,1 66.743,1" id="Stroke-20" stroke="#474646" stroke-width="2" fill="#FFFFFF" stroke-linecap="round" stroke-linejoin="round"></path>
    </g>
</svg>