<?xml version="1.0" encoding="UTF-8"?>
<svg width="80px" height="80px" viewBox="0 0 80 80" version="1.1" xmlns="http://www.w3.org/2000/svg" xmlns:xlink="http://www.w3.org/1999/xlink">
    <!-- Generator: Sketch 50.2 (55047) - http://www.bohemiancoding.com/sketch -->
    <title>calcasclassicas</title>
    <desc>Created with Sketch.</desc>
    <defs></defs>
    <g id="calcasclassicas" stroke="none" stroke-width="1" fill="none" fill-rule="evenodd">
        <path d="M43.7082977,75.2857143 L43.7082977,25.7896749 C43.7082977,23.7372494 42.0446643,22.0675699 40,22.0675699 C37.9551881,22.0675699 36.2917023,23.7372494 36.2917023,25.7896749 L36.2917023,75.2857143 L23.7142857,75.2857143 L28.2558025,46.795215 C28.4636644,45.4909446 28.5004241,44.1632619 28.3649005,42.8490635 L25.8085534,18.0451063 C28.3981171,17.7111111 30.6578771,16.0389126 31.722136,13.5947022 C31.9838825,12.9936887 31.7103256,12.2932472 31.1115416,12.030526 C30.5129053,11.7676567 29.8149144,12.0422322 29.5531679,12.6432456 C28.832885,14.2976627 27.3123044,15.434491 25.5649653,15.6807643 L25.0540206,10.7228475 C25.0146036,10.3387679 25.1344785,9.96935796 25.3920915,9.68263184 C25.649852,9.39605391 26.0035716,9.23809524 26.3882933,9.23809524 L38.8164568,9.23809524 L38.8164568,18.1870617 C38.8164568,18.8430495 39.3464456,19.3748635 40,19.3748635 C40.6537021,19.3748635 41.1833956,18.8430495 41.1833956,18.1870617 L41.1833956,9.23809524 L53.6117067,9.23809524 C53.9962808,9.23809524 54.350148,9.39605391 54.6077609,9.68263184 C54.8653738,9.96965431 54.985544,10.3389161 54.9459794,10.7228475 L54.4350347,15.6807643 C52.6881385,15.4346392 51.1680007,14.2984036 50.4475703,12.645172 C50.1856761,12.0441585 49.4876853,11.7697312 48.8890489,12.0330451 C48.2901173,12.2959144 48.0171509,12.9963559 48.2790451,13.5973694 C49.3437468,16.0402462 51.6029163,17.7112593 54.1914466,18.0451063 L51.6349519,42.8490635 C51.4995759,44.1632619 51.5363356,45.4909446 51.7443451,46.795215 L56.2857143,75.2857143 L43.7082977,75.2857143 Z M31.8571429,4.71428571 L31.8571429,7.41076505 L25.8699288,7.41076505 C25.7537368,7.41076505 25.6384119,7.41729406 25.5238095,7.42857143 L25.5238095,4.71428571 L31.8571429,4.71428571 Z M34.5714286,7.42857143 L44.5238095,7.42857143 L44.5238095,4.71428571 L34.5714286,4.71428571 L34.5714286,7.42857143 Z M53.5714286,7.42857143 C53.4568288,7.41744244 53.3415065,7.41076505 53.2253171,7.41076505 L47.2380952,7.41076505 L47.2380952,4.71428571 L53.5714286,4.71428571 L53.5714286,7.42857143 Z M58.9849975,76.6222004 L54.1881793,46.7039701 C54.011467,45.6027102 53.9802299,44.481708 54.0953607,43.3718386 L57.431327,11.1896351 C57.5400617,10.1415159 57.1967518,9.09131854 56.4893074,8.30890295 C56.4785975,8.29673105 56.4669952,8.28559821 56.4561366,8.27372319 L56.4561366,3.19002576 C56.4561366,2.53289167 55.9221321,2 55.263477,2 L24.7364174,2 C24.077911,2 23.5439065,2.53289167 23.5439065,3.19002576 L23.5439065,8.27357475 C23.533048,8.28544978 23.5214456,8.29658261 23.510587,8.30875451 C22.8032914,9.09131854 22.4598328,10.1413675 22.5687161,11.1894867 L25.9046825,43.3716902 C26.0196645,44.4814111 25.9885762,45.6024133 25.8118639,46.7038217 L21.0150456,76.622052 C20.9597115,76.9661308 21.0586287,77.3170377 21.2850228,77.5821476 C21.5117144,77.8472575 21.8432732,78 22.192533,78 L37.4559884,78 C38.1146435,78 38.6484993,77.4671083 38.6484993,76.8101227 L38.6484993,26.0375704 C38.6484993,25.2937486 39.2547952,24.6888646 40.0000216,24.6888646 C40.7452479,24.6888646 41.3515439,25.2937486 41.3515439,26.0375704 L41.3515439,76.8101227 C41.3515439,77.4671083 41.8853996,78 42.543906,78 L57.8075102,78 C58.1566212,78 58.4883287,77.847406 58.7148716,77.5821476 C58.9415632,77.3171862 59.040183,76.9662792 58.9849975,76.6222004 Z" id="Fill-1" fill="#474646"></path>
    </g>
</svg>