<?xml version="1.0" encoding="UTF-8"?>
<svg width="80px" height="80px" viewBox="0 0 80 80" version="1.1" xmlns="http://www.w3.org/2000/svg" xmlns:xlink="http://www.w3.org/1999/xlink">
    <!-- Generator: Sketch 50.2 (55047) - http://www.bohemiancoding.com/sketch -->
    <title>calca jeans</title>
    <desc>Created with Sketch.</desc>
    <defs></defs>
    <g id="calca-jeans" stroke="none" stroke-width="1" fill="none" fill-rule="evenodd">
        <g id="Group" transform="translate(20.000000, 4.000000)" fill="#474646">
            <path d="M17.4714244,21.822148 L17.2942145,21.9334853 C15.9165019,22.8027437 14.1361081,22.8023676 12.7583955,21.9334853 L12.5811856,21.822148 C11.3444868,21.0416585 10.6058609,19.7041064 10.6058609,18.2439327 L10.6058609,15.4179965 L13.1188479,15.4179965 C13.5154964,15.4179965 13.8367365,15.0975257 13.8367365,14.7018269 C13.8367365,14.3061281 13.5154964,13.9852811 13.1188479,13.9852811 L10.6058609,13.9852811 L10.6058609,12.6469767 L19.4467491,12.6469767 L19.4467491,13.9856572 L16.7090448,13.9856572 C16.3123963,13.9856572 15.9907792,14.3065043 15.9907792,14.7018269 C15.9907792,15.0975257 16.3123963,15.4183727 16.7090448,15.4183727 L19.4467491,15.4183727 L19.4467491,18.2443089 C19.4467491,19.7041064 18.7085002,21.0416585 17.4714244,21.822148 M19.5843695,10.4984678 L10.4686175,10.4984678 C9.35671973,10.4984678 8.45219522,11.4008265 8.45219522,12.5100619 L8.45219522,18.2439327 C8.45219522,20.4451012 9.56560117,22.4619613 11.4304525,23.6381496 L11.6072853,23.749863 C12.6460369,24.4050981 13.8363594,24.7323395 15.026682,24.7323395 C16.2166276,24.7323395 17.4073272,24.4050981 18.4457017,23.749863 L18.6229116,23.6381496 C20.4877629,22.4619613 21.6011688,20.4451012 21.6011688,18.2439327 L21.6011688,12.5100619 C21.6011688,11.4008265 20.6962673,10.4984678 19.5843695,10.4984678" id="Fill-1"></path>
            <g id="Group-5" transform="translate(0.000000, 0.283233)">
                <path d="M22.8305079,4.61039877 L22.8305079,2.15965957 L24.0155245,2.15965957 L25.0296216,4.61039877 L22.8305079,4.61039877 Z M19.544209,4.61039877 L20.6557569,4.61039877 L20.6557569,2.15965957 L19.544209,2.15965957 L19.544209,4.61039877 Z M16.2582908,4.61039877 L17.3698387,4.61039877 L17.3698387,2.15965957 L16.2582908,2.15965957 L16.2582908,4.61039877 Z M12.9716113,4.61039877 L14.0831591,4.61039877 L14.0831591,2.15965957 L12.9716113,2.15965957 L12.9716113,4.61039877 Z M9.68569308,4.61039877 L10.7972409,4.61039877 L10.7972409,2.15965957 L9.68569308,2.15965957 L9.68569308,4.61039877 Z M6.39939422,4.61039877 L7.51094208,4.61039877 L7.51094208,2.15965957 L6.39939422,2.15965957 L6.39939422,4.61039877 Z M2.17475101,4.61039877 L4.22502388,4.61039877 L4.22502388,2.15965957 L2.17475101,2.15965957 L2.17475101,4.61039877 Z M0,63.4009216 L0,60.6515195 L0,5.69003954 L0,1.79977931 C0,0.807462427 0.812724208,0 1.81235595,0 L24.2580094,0 C24.9961229,0 25.6539156,0.437753507 25.9344672,1.11555319 L27.6581278,5.27988189 L32.7286132,17.5286635 C32.8542333,17.8314619 32.8938227,18.1622342 32.8439553,18.4862021 L28.7064849,45.2201641 L34.0392499,40.6275325 C34.4115423,40.3069669 34.8869955,40.1531105 35.3784367,40.1939373 C35.8694972,40.2351421 36.3125937,40.4657376 36.6258827,40.8433851 L38.3236579,42.8915271 C38.7050863,43.3519622 38.6388502,44.032408 38.1751977,44.4115676 C37.7115452,44.7903491 37.0263445,44.7241947 36.6445354,44.2637596 L35.1831545,42.5010268 L28.1956297,48.5180584 L25.6893176,64.712292 L26.5937826,63.9690939 C26.9021229,63.7158168 27.3589234,63.7589117 27.614351,64.0651123 C27.869398,64.371313 27.8263826,64.8249436 27.5180423,65.0785986 L25.3581373,66.8530503 L24.8282487,70.2772051 L44.6796561,53.957467 L43.2106618,52.1849055 L41.4809106,53.6062814 C41.3457738,53.7170428 41.182087,53.7714785 41.0191615,53.7714785 C40.8105559,53.7714785 40.603473,53.6822645 40.4603422,53.5102629 C40.2049146,53.2040622 40.2483106,52.7504317 40.556651,52.4967766 L42.2890668,51.0731326 L38.8519205,46.7398265 C38.4701114,46.2797695 38.5363475,45.5993236 39,45.2201641 C39.4636525,44.8410045 40.1488532,44.907159 40.5306623,45.367594 L46.5883208,52.8619492 C47.2213701,53.6259387 47.1121187,54.7607712 46.3446939,55.3920737 C31.4522365,67.6345549 24.0051196,73.7565516 24.0033432,73.7580637 C23.9584244,73.7943541 23.9104604,73.8272424 23.844605,73.8642889 C23.7947376,73.8918847 23.7425862,73.9157003 23.6744468,73.9395159 C23.6203921,73.9584172 23.564434,73.9735382 23.4962946,73.984879 C23.4384332,73.9943296 23.3794298,74 23.3192844,74 L1.08718517,74 C0.48687319,74 0,73.5165054 0,72.9199812 L0,63.4009216 Z M2.17475101,64.3208956 L2.17475101,71.8403404 L19.4204922,71.8403404 L19.8555947,68.9061066 C19.9138368,68.5129601 20.2823225,68.2411598 20.6782162,68.2989977 C21.07411,68.3564576 21.3481903,68.7227643 21.2899482,69.1159108 L20.8856798,71.8403404 L22.3858887,71.8403404 L23.3143357,65.839942 C25.1760515,53.8119272 26.1069094,47.7977938 26.1069094,47.7975418 L30.678721,18.2571186 L25.9234279,6.77005834 L24.5279024,6.77005834 L25.3250192,8.77321536 C25.4723374,9.14292428 25.2896172,9.56102046 24.9173248,9.7069383 C24.8297714,9.74133862 24.7399339,9.75759371 24.6512385,9.75759371 C24.3623122,9.75759371 24.0893739,9.5852141 23.9766965,9.30207301 L22.9690707,6.76968031 L2.17437034,6.76968031 L2.17437034,58.2908116 L2.1991137,58.2908116 L2.1991137,64.3208956 L2.17475101,64.3208956 Z" id="Fill-3"></path>
            </g>
            <path d="M21.7588102,54.7655756 L21.2358525,58.3088098 C21.177788,58.6999949 21.4492585,59.064098 21.8413825,59.1216474 C21.8768245,59.1269133 21.9122664,59.1295463 21.9469543,59.1295463 C22.2972266,59.1295463 22.603762,58.8733953 22.6561709,58.5175673 L23.1795057,54.974333 C23.2371931,54.5831479 22.9660997,54.2190448 22.5739757,54.1614955 C22.1814747,54.1043223 21.8164977,54.3740143 21.7588102,54.7655756" id="Fill-6"></path>
            <path d="M20.712744,61.8520065 L20.1897863,65.3948647 C20.1317218,65.7864259 20.4031923,66.1505289 20.7953163,66.2080783 C20.8307583,66.2133442 20.8662003,66.2156011 20.9008881,66.2156011 C21.2511605,66.2156011 21.5580729,65.9598262 21.6104818,65.6039982 L22.1334395,62.0607639 C22.1911269,61.6692027 21.9200335,61.3050997 21.5275325,61.2475503 C21.1354085,61.190001 20.7708085,61.4604453 20.712744,61.8520065" id="Fill-8"></path>
            <path d="M22.8048764,47.6791822 L22.2819187,51.2224165 C22.2238542,51.6136016 22.4953247,51.9777047 22.8874487,52.035254 C22.9228907,52.04052 22.9583326,52.043153 22.9930205,52.043153 C23.3432928,52.043153 23.6502053,51.7870019 23.7026142,51.431174 L24.2255718,47.8879397 C24.2832593,47.4967546 24.0121659,47.1322754 23.6196649,47.0751022 C23.2275408,47.017929 22.8625639,47.287621 22.8048764,47.6791822" id="Fill-10"></path>
            <path d="M26.7579388,25.8160727 C26.3654378,25.7585233 26.0008379,26.0289676 25.9431504,26.4201527 L25.4201927,29.963387 C25.3621282,30.3545721 25.6335987,30.7190513 26.0257227,30.7766006 C26.0611646,30.7814905 26.0966066,30.7841234 26.1312945,30.7841234 C26.4815668,30.7841234 26.7884793,30.5283486 26.8408881,30.1725206 L27.3634688,26.6292863 C27.4215333,26.2377251 27.1504399,25.873622 26.7579388,25.8160727" id="Fill-12"></path>
            <path d="M26.4037076,12.4357367 C26.2577922,12.0678723 25.8407834,11.8873253 25.472036,12.0328913 C25.1032886,12.1780812 24.9223083,12.5940915 25.0682237,12.9619559 L26.3874948,16.2930475 C26.4987222,16.5743999 26.7694386,16.7462956 27.0556137,16.7462956 C27.1430876,16.7462956 27.2324466,16.7301216 27.3191663,16.6958929 C27.6879137,16.5503269 27.868517,16.1343166 27.7229786,15.7664522 L26.4037076,12.4357367 Z" id="Fill-14"></path>
            <path d="M27.8866904,23.0859392 L28.4096481,19.5427049 C28.4677126,19.1515198 28.1962421,18.7874167 27.8041181,18.7298674 C27.4123712,18.672318 27.0466401,18.9427624 26.9889527,19.3339475 L26.465995,22.8771817 C26.4083075,23.2683668 26.6794009,23.632846 27.071902,23.6900192 C27.1073439,23.6952852 27.1424089,23.6979182 27.1774738,23.6979182 C27.5273691,23.6979182 27.8339045,23.4417672 27.8866904,23.0859392" id="Fill-16"></path>
            <path d="M24.3739757,37.0497427 C24.3162882,37.441304 24.5873817,37.805407 24.9795057,37.8629564 C25.0153247,37.8678462 25.0503896,37.8704791 25.0850775,37.8704791 C25.4353498,37.8704791 25.7418852,37.6143281 25.7946711,37.2585001 L26.3176288,33.7152659 C26.3756933,33.3240808 26.1042229,32.9599777 25.7120989,32.9024284 C25.3195978,32.8452552 24.9549979,33.1153233 24.8969334,33.5068846 L24.3739757,37.0497427 Z" id="Fill-18"></path>
            <path d="M23.8509426,40.5929394 L23.3279849,44.1357975 C23.2699204,44.5273588 23.5413909,44.8914618 23.9335149,44.9490112 C23.9689568,44.9542771 24.0043988,44.9565339 24.0394638,44.9565339 C24.389359,44.9565339 24.6962715,44.7003829 24.7486804,44.3449311 L25.271638,40.8016968 C25.3293255,40.4105117 25.0582321,40.0460325 24.665731,39.9888593 C24.273607,39.93131 23.9086301,40.2013781 23.8509426,40.5929394" id="Fill-20"></path>
            <path d="M37.4044072,54.8938015 L34.6384248,57.1769684 C34.3330205,57.4289819 34.2900377,57.8807255 34.5430331,58.1853985 C34.685178,58.356542 34.8902891,58.4449347 35.0965312,58.4449347 C35.2579053,58.4449347 35.4200335,58.3911468 35.5538835,58.2805618 L38.3198659,55.9973949 C38.6252702,55.7453814 38.668253,55.2936378 38.4152576,54.9889648 C38.1626393,54.6842918 37.7101885,54.6417881 37.4044072,54.8938015" id="Fill-22"></path>
            <path d="M31.8724801,59.4597968 L29.1064977,61.7429637 C28.8010934,61.9953533 28.7581106,62.4467207 29.011106,62.7513937 C29.1532509,62.9225372 29.3579849,63.0113061 29.5646041,63.0113061 C29.7259782,63.0113061 29.8881064,62.957142 30.0219564,62.8469332 L32.7879388,60.5637663 C33.0933431,60.3113767 33.1363259,59.8600092 32.8833305,59.5549601 C32.6307122,59.2506632 32.1782614,59.2077833 31.8724801,59.4597968" id="Fill-24"></path>
        </g>
    </g>
</svg>