<?xml version="1.0" encoding="UTF-8"?>
<svg width="80px" height="80px" viewBox="0 0 80 80" version="1.1" xmlns="http://www.w3.org/2000/svg" xmlns:xlink="http://www.w3.org/1999/xlink">
    <!-- Generator: Sketch 50.2 (55047) - http://www.bohemiancoding.com/sketch -->
    <title>deporto</title>
    <desc>Created with Sketch.</desc>
    <defs></defs>
    <g id="deporto" stroke="none" stroke-width="1" fill="none" fill-rule="evenodd">
        <path d="M73.3384423,34.2521114 C72.618705,33.3846314 71.602127,32.8912522 70.5530185,32.8912522 L68.9752893,32.8912522 L68.9752893,31.6157856 C68.9752893,29.3278073 66.9895736,27.4695027 64.5497863,27.4695027 L62.4678344,27.4695027 L62.4678344,25.1191742 C62.4678344,24.0117819 61.9974977,22.9328537 61.1761026,22.158899 C59.5455114,20.6137003 56.7234908,20.6137003 55.0874778,22.158899 C54.2674382,22.9328537 53.795746,24.0117819 53.795746,25.1191742 L53.795746,36.1429465 L25.6012929,36.1429465 L25.6012929,25.1191742 C25.6012929,24.0117819 25.1309561,22.9328537 24.309561,22.158899 C22.6789699,20.6137003 19.8569492,20.6137003 18.2209363,22.158899 C17.3995412,22.9328537 16.9292045,24.0117819 16.9292045,25.1191742 L16.9292045,27.4695027 L14.5937858,27.4695027 C13.4985924,27.4695027 12.4657491,27.8666458 11.6768846,28.5823168 C10.8771765,29.3183193 10.4217496,30.3389636 10.4217496,31.3826504 L10.4217496,32.8912522 L8.86028568,32.8912522 C7.8057554,32.8912522 6.78917735,33.3886977 6.06401835,34.2575331 C5.37545616,35.0789282 5,36.1632781 5,37.3072672 L5,43.656136 C5,44.7987697 5.37545616,45.8790533 6.06401835,46.7058701 C6.78917735,47.57335 7.8057554,48.0707955 8.86028568,48.0707955 L10.4217496,48.0707955 L10.4217496,49.575331 C10.4217496,50.6230841 10.8771765,51.6450839 11.6768846,52.3810864 C12.4657491,53.0954019 13.4985924,53.4925451 14.5937858,53.4925451 L16.9292045,53.4925451 L16.9292045,55.844229 C16.9292045,56.9502659 17.3995412,58.0251277 18.2209363,58.8031488 C19.0355542,59.5716818 20.1158378,60 21.2652487,60 C22.4146596,60 23.4949432,59.5716818 24.309561,58.8031488 C25.1309561,58.0251277 25.6012929,56.9448441 25.6012929,55.844229 L25.6012929,44.8150349 L53.795746,44.8150349 L53.795746,55.844229 C53.795746,56.9502659 54.2674382,58.0251277 55.0874778,58.8031488 C55.9034512,59.5716818 56.9878011,60 58.1317902,60 C59.2812011,60 60.3614847,59.5716818 61.1761026,58.8031488 C61.9974977,58.0251277 62.4678344,56.9448441 62.4678344,55.844229 L62.4678344,53.4925451 L64.5497863,53.4925451 C66.9895736,53.4925451 68.9752893,51.6288187 68.9752893,49.3421958 L68.9752893,48.0707955 L70.5530185,48.0707955 C71.602127,48.0707955 72.618705,47.57335 73.3384423,46.7112918 C74.0215827,45.8898968 74.3970389,44.8096132 74.3970389,43.6710458 L74.3970389,37.2855802 C74.3970389,36.1524346 74.0215827,35.0735064 73.3384423,34.2521114 Z M8.86028568,45.9007403 C8.44687728,45.9007403 8.04431238,45.6947138 7.73256178,45.3179022 C7.37201543,44.889584 7.1714107,44.2809926 7.1714107,43.656136 L7.1714107,37.3072672 C7.1714107,36.6769888 7.37201543,36.0738192 7.73256178,35.6441456 C8.04431238,35.2686894 8.44687728,35.0572412 8.86028568,35.0572412 L10.4217496,35.0572412 L10.4217496,45.9007403 L8.86028568,45.9007403 Z M14.5937858,51.3224898 C14.0489,51.3224898 13.518924,51.1259514 13.1434678,50.7816703 C12.7883432,50.4536545 12.5931603,50.0253363 12.5931603,49.575331 L12.5931603,31.3826504 C12.5931603,30.9380669 12.7883432,30.5083933 13.1434678,30.1803774 C13.5243457,29.8360963 14.0489,29.6354916 14.5937858,29.6354916 L16.9292045,29.6354916 L16.9292045,51.3224898 L14.5937858,51.3224898 Z M23.4366594,55.844229 C23.4366594,56.3633615 23.2143676,56.8553853 22.8212908,57.2254197 C22.0066729,57.9939527 20.5238244,57.9939527 19.7092065,57.2254197 C19.3161297,56.8553853 19.093838,56.3633615 19.093838,55.844229 L19.093838,25.1191742 C19.093838,24.6000417 19.3161297,24.1080179 19.7092065,23.7366281 C20.1158378,23.3503284 20.6824106,23.1280367 21.2652487,23.1280367 C21.8480867,23.1280367 22.4146596,23.3503284 22.8212908,23.7366281 C23.2143676,24.1080179 23.4366594,24.6000417 23.4366594,25.1191742 L23.4366594,55.844229 Z M25.6012929,42.649046 L53.795746,42.649046 L53.795746,38.3130018 L25.6012929,38.3130018 L25.6012929,42.649046 Z M60.3032009,55.844229 C60.3032009,56.3633615 60.0863309,56.8553853 59.6891878,57.2254197 C58.8732145,57.9939527 57.390366,57.9939527 56.5811698,57.2254197 C56.1840267,56.8553853 55.9671567,56.3633615 55.9671567,55.844229 L55.9671567,25.1191742 C55.9671567,24.6000417 56.1840267,24.1080179 56.5757481,23.7366281 C56.9837348,23.3503284 57.5503076,23.1334585 58.1317902,23.1334585 C58.7146283,23.1334585 59.2812011,23.3503284 59.6891878,23.7366281 C60.0863309,24.1080179 60.3032009,24.6000417 60.3032009,25.1191742 L60.3032009,55.844229 Z M66.8106558,49.3421958 C66.8106558,50.4387447 65.7940778,51.3224898 64.5497863,51.3224898 L62.4678344,51.3224898 L62.4678344,29.6354916 L64.5497863,29.6354916 C65.7940778,29.6354916 66.8106558,30.5246585 66.8106558,31.6157856 L66.8106558,49.3421958 Z M72.2324054,43.6710458 C72.2324054,44.2959024 72.0250235,44.8950057 71.6712543,45.3233239 C71.3581483,45.6947138 70.9610051,45.9007403 70.5530185,45.9007403 L68.9752893,45.9007403 L68.9752893,35.0572412 L70.5530185,35.0572412 C70.9610051,35.0572412 71.3581483,35.2632676 71.6712543,35.6400792 C72.0250235,36.0629757 72.2324054,36.6661453 72.2324054,37.2855802 L72.2324054,43.6710458 Z" id="Fill-1" fill="#474646"></path>
    </g>
</svg>