<?xml version="1.0" encoding="UTF-8"?>
<svg width="80px" height="80px" viewBox="0 0 80 80" version="1.1" xmlns="http://www.w3.org/2000/svg" xmlns:xlink="http://www.w3.org/1999/xlink">
    <!-- Generator: Sketch 50.2 (55047) - http://www.bohemiancoding.com/sketch -->
    <title>ler</title>
    <desc>Created with Sketch.</desc>
    <defs>
        <polygon id="path-1" points="0.146696306 0.19951846 64.7375681 0.19951846 64.7375681 46.9110961 0.146696306 46.9110961"></polygon>
        <polygon id="path-3" points="0.000574153841 0.263249536 73.4902563 0.263249536 73.4902563 46.4346919 0.000574153841 46.4346919"></polygon>
        <polygon id="path-5" points="0.263249536 0.689558764 5.09417996 0.689558764 5.09417996 33.1235093 0.263249536 33.1235093"></polygon>
    </defs>
    <g id="ler" stroke="none" stroke-width="1" fill="none" fill-rule="evenodd">
        <g id="Group" transform="translate(3.000000, 12.000000)">
            <g id="Group-3" transform="translate(4.306154, 0.303010)">
                <mask id="mask-2" fill="white">
                    <use xlink:href="#path-1"></use>
                </mask>
                <g id="Clip-2"></g>
                <path d="M2.43900552,5.16724103 C10.9393531,1.58452106 20.6396823,1.60748722 31.2931068,5.23470411 L31.2931068,44.0704699 C21.9458823,40.54373 12.2570362,40.5537777 2.43900552,44.1020484 L2.43900552,5.16724103 Z M62.4395173,5.16724103 L62.4395173,44.1020484 C57.5161481,42.3193007 52.6272282,41.4336684 47.7942882,41.4336684 C42.9886206,41.4336684 38.2446745,42.3135592 33.585416,44.0704699 L33.585416,5.23470411 C44.2388406,1.60748722 53.9391697,1.58452106 62.4395173,5.16724103 Z M1.28926245,46.9110961 C1.43567168,46.9110961 1.58208091,46.8895653 1.71557168,46.8335853 C12.1953147,42.6494392 22.0980331,42.645133 31.9935745,46.8235376 C32.211753,46.8838238 32.2576853,46.8938715 32.3021822,46.899613 C32.4873468,46.9053545 32.5318437,46.9053545 32.5763407,46.899613 C32.7615053,46.8608576 32.8060022,46.8493745 32.8519345,46.8335853 C42.7761837,42.645133 52.6774666,42.645133 63.1629512,46.8335853 C63.2964419,46.8895653 63.4428512,46.9110961 63.5892604,46.9110961 C63.8131804,46.9110961 64.0371004,46.8493745 64.2337481,46.7144484 C64.5480973,46.5020115 64.7375681,46.1489069 64.7375681,45.7670945 L64.7375681,4.41653489 C64.7375681,3.96151797 64.4691512,3.55243336 64.054325,3.36726874 C54.7415497,-0.803958917 44.1039144,-0.854197378 32.4428499,3.20507028 C20.7746084,-0.854197378 10.1369731,-0.803958917 0.824197839,3.36726874 C0.409371689,3.55243336 0.146696306,3.96151797 0.146696306,4.41653489 L0.146696306,45.7670945 C0.146696306,46.1489069 0.330425536,46.5020115 0.650516302,46.7144484 C0.841422455,46.8493745 1.06534245,46.9110961 1.28926245,46.9110961 Z" id="Fill-1" fill="#474646" mask="url(#mask-2)"></path>
            </g>
            <g id="Group-6" transform="translate(0.000000, 7.479933)">
                <mask id="mask-4" fill="white">
                    <use xlink:href="#path-3"></use>
                </mask>
                <g id="Clip-5"></g>
                <path d="M72.3410874,0.263249536 C71.7080828,0.263249536 71.1970859,0.779987994 71.1970859,1.4129926 L71.1970859,41.8879677 L43.0448876,41.8879677 C42.9889076,41.8879677 42.9386692,41.9166753 42.8869953,41.9224169 C42.5740815,41.8664369 42.2367661,41.9224169 41.9683492,42.1334184 C38.6095492,44.7802676 35.1775446,44.7687846 31.4843001,42.1075815 C31.4498508,42.08318 31.4096601,42.0774384 31.3709047,42.0559077 C31.304877,42.0157169 31.2374139,41.9841384 31.1584677,41.9597369 C31.0838277,41.9382061 31.0120585,41.9224169 30.9273708,41.9166753 C30.8900508,41.9094984 30.8556016,41.8879677 30.8096693,41.8879677 L2.30006029,41.8879677 L2.30006029,2.84837721 C2.30006029,2.2153726 1.78332183,1.69863414 1.14888184,1.69863414 C0.514441842,1.69863414 0.000574153841,2.2153726 0.000574153841,2.84837721 L0.000574153841,43.0362753 C0.000574153841,43.6707153 0.514441842,44.1860184 1.14888184,44.1860184 L30.4637416,44.1860184 C32.6311723,45.677383 34.7799431,46.4352661 36.8813462,46.4352661 C38.98562,46.4352661 41.0482677,45.677383 43.0563707,44.1860184 L72.3410874,44.1860184 C72.9798336,44.1860184 73.4908305,43.6707153 73.4908305,43.0362753 L73.4908305,1.4129926 C73.4908305,0.779987994 72.9798336,0.263249536 72.3410874,0.263249536" id="Fill-4" fill="#4A4A4A" mask="url(#mask-4)"></path>
            </g>
            <path d="M4.78485458,7.23649148 L1.14902538,7.23649148 C0.508843842,7.23649148 0.000717692302,7.75322994 0.000717692302,8.38623455 L0.000717692302,38.5206989 C0.000717692302,39.1537035 0.508843842,39.670442 1.14902538,39.670442 C1.78346537,39.670442 2.2930269,39.1537035 2.2930269,38.5206989 L2.2930269,9.53597761 L4.78485458,9.53597761 L4.78485458,7.23649148 Z" id="Fill-7" fill="#474646"></path>
            <g id="Group-11" transform="translate(68.396076, 6.546933)">
                <mask id="mask-6" fill="white">
                    <use xlink:href="#path-5"></use>
                </mask>
                <g id="Clip-10"></g>
                <path d="M3.94501104,0.689558764 L0.263249536,0.689558764 L0.263249536,2.9890449 L2.79383259,2.9890449 L2.79383259,31.9737662 C2.79383259,32.6067708 3.31200643,33.1235093 3.94501104,33.1235093 C4.57801565,33.1235093 5.09475411,32.6067708 5.09475411,31.9737662 L5.09475411,1.83930183 C5.09475411,1.20629722 4.57801565,0.689558764 3.94501104,0.689558764" id="Fill-9" fill="#474646" mask="url(#mask-6)"></path>
            </g>
            <polygon id="Stroke-12" stroke="#4A4A4A" stroke-width="2" stroke-linecap="round" stroke-linejoin="round" points="44.7366319 2.59460121 44.7366319 20.2971995 48.5633673 15.9910457 52.8709565 19.5795072 52.8709565 1.63719968"></polygon>
        </g>
    </g>
</svg>