<?xml version="1.0" encoding="UTF-8"?>
<svg width="80px" height="80px" viewBox="0 0 80 80" version="1.1" xmlns="http://www.w3.org/2000/svg" xmlns:xlink="http://www.w3.org/1999/xlink">
    <!-- Generator: Sketch 50.2 (55047) - http://www.bohemiancoding.com/sketch -->
    <title>maquilhagem</title>
    <desc>Created with Sketch.</desc>
    <defs></defs>
    <g id="maquilhagem" stroke="none" stroke-width="1" fill="none" fill-rule="evenodd">
        <g id="Group" transform="translate(12.000000, 12.000000)" fill="#474646">
            <path d="M2.31206464,54.5647256 L15.0983601,54.5647256 L15.0983601,26.5317125 L2.31206464,26.5317125 L2.31206464,54.5647256 Z M4.13416425,24.2196478 L13.2785726,24.2196478 L13.2785726,19.9891475 L4.13416425,19.9891475 L4.13416425,24.2196478 Z M5.38884466,4.0524713 L12.0231215,7.37066941 L12.0231215,17.6770829 L5.38884466,17.6770829 L5.38884466,4.0524713 Z M16.2543924,24.2196478 L15.5906372,24.2196478 L15.5906372,18.8331152 C15.5906372,18.1942147 15.0727347,17.6770829 14.4346049,17.6770829 L14.3351861,17.6770829 L14.3351861,6.6564341 C14.3351861,6.21849053 14.0876025,5.818118 13.6962856,5.62236319 L4.74975146,1.14794009 C4.39157412,0.968947757 3.96634689,0.987636946 3.62531736,1.19842017 C3.2844805,1.4092034 3.07678002,1.78086779 3.07678002,2.18201101 L3.07678002,17.6770829 L2.97736124,17.6770829 C2.3392314,17.6770829 1.82132892,18.1942147 1.82132892,18.8331152 L1.82132892,24.2196478 L1.15603232,24.2196478 C0.51790248,24.2196478 0,24.7375503 0,25.3756801 L0,55.7207579 C0,56.3590804 0.51790248,56.8767902 1.15603232,56.8767902 L16.2543924,56.8767902 C16.892715,56.8767902 17.4104248,56.3590804 17.4104248,55.7207579 L17.4104248,25.3756801 C17.4104248,24.7375503 16.8934857,24.2196478 16.2543924,24.2196478 Z" id="Fill-1"></path>
            <path d="M54.7738133,45.7678205 L17.2253055,45.7678205 C16.5864049,45.7678205 16.0692731,46.2849523 16.0692731,46.9238529 C16.0692731,47.5621754 16.5864049,48.0798852 17.2253055,48.0798852 L52.9343732,48.0798852 L52.6702198,48.6293859 C51.2176652,51.6466302 48.1160305,53.5966641 44.7668121,53.5966641 L17.2253055,53.5966641 C16.5864049,53.5966641 16.0692731,54.1137959 16.0692731,54.7526964 C16.0692731,55.3910189 16.5864049,55.9087287 17.2253055,55.9087287 L44.7668121,55.9087287 C48.9986611,55.9087287 52.9185741,53.4446458 54.7535827,49.6318586 L55.8153984,47.4251855 C55.9878399,47.0668155 55.9645266,46.6446711 55.752202,46.3082656 C55.540648,45.9718602 55.1712957,45.7678205 54.7738133,45.7678205" id="Fill-3"></path>
            <path d="M29.5505175,6.84195802 C39.4209141,6.84195802 47.4518706,14.8721439 47.4518706,24.7427332 C47.4518706,34.6131298 39.4209141,42.6433156 29.5505175,42.6433156 C25.1132801,42.6433156 20.8567691,41.0079153 17.564967,38.0386462 C17.1050588,37.624016 16.3962183,37.6606237 15.9806247,38.1205319 C15.5659945,38.5804401 15.6026022,39.2894732 16.0625104,39.7041035 C19.7668233,43.0461929 24.5568432,44.886211 29.5505175,44.886211 C40.657676,44.886211 49.694766,35.8498917 49.694766,24.7427332 C49.694766,13.635382 40.657676,4.59925532 29.5505175,4.59925532 C23.1711458,4.59925532 17.1027468,7.66986984 13.3173189,12.8142137 C12.950086,13.3126563 13.0568263,14.0149459 13.5554616,14.3821788 C14.0540969,14.7488338 14.2577512,15.379064 15.1236194,14.1434582 C18.3811258,9.49466686 23.8815276,6.84195802 29.5505175,6.84195802" id="Fill-4"></path>
            <path d="M41.8873476,15.9087388 L21.4224927,36.3726303 C20.9853199,36.8105738 20.9853199,37.5211484 21.4224927,37.9583213 C21.6415609,38.1775821 21.9292202,38.2870198 22.2163016,38.2870198 C22.5031903,38.2870198 22.790079,38.1775821 23.0091471,37.9583213 L43.4728459,17.4946225 C43.9111748,17.0564862 43.9111748,16.3461043 43.4728459,15.9087388 C43.0349023,15.4707952 42.3250985,15.4707952 41.8873476,15.9087388" id="Fill-5"></path>
            <path d="M27.654451,36.5114697 C27.2165075,36.9492206 27.2165075,37.6590245 27.654451,38.0969681 C27.8735192,38.3162289 28.1604079,38.4258593 28.4472965,38.4258593 C28.7343779,38.4258593 29.0220373,38.3162289 29.2409127,38.0969681 L44.6055456,22.7327205 C45.0432965,22.2947769 45.0432965,21.5842024 44.6055456,21.1470295 C44.1672167,20.7090859 43.4570275,20.7090859 43.0186986,21.1470295 L27.654451,36.5114697 Z" id="Fill-6"></path>
            <path d="M30.2843282,0.206332502 C24.0186331,-0.00136797158 17.959675,2.14345733 13.2241813,6.24428931 C12.7561808,6.650442 12.7049301,7.35870447 13.1108901,7.82631955 C13.5160794,8.29431996 14.2237639,8.34537806 14.6923423,7.94018873 C19.0001041,4.20947976 24.5105248,2.25886789 30.2099568,2.44787917 C42.6448185,2.86019737 52.4263933,13.3124636 52.0140751,25.7475179 C51.8083014,31.960421 49.0746703,37.7513722 44.4630647,41.8556723 C44.2424552,42.0477663 44.0129827,42.2450625 43.7744547,42.4458268 C43.629758,42.5648981 43.4837126,42.6826207 43.3355478,42.7984166 C43.2921966,42.8321343 43.2530842,42.8695126 43.2158985,42.9082397 C41.8982143,43.9767989 40.3585719,45.0682861 38.7029409,45.7730805 C36.4436684,46.7348994 37.8189616,46.6913555 38.1168326,47.2341127 C38.2834939,47.5377638 40.1065569,47.0225587 40.4215757,47.0845992 C40.6703153,47.1335379 40.9375514,47.0988569 41.1768501,46.9674545 C43.3954688,45.7505379 45.3819177,44.2207217 47.096699,42.4479462 C51.4740153,38.0284346 54.0467653,32.1224582 54.2558144,25.8218893 C54.7089791,12.1506511 43.9551811,0.659689844 30.2843282,0.206332502" id="Fill-7"></path>
        </g>
    </g>
</svg>