<?xml version="1.0" encoding="UTF-8"?>
<svg width="79px" height="68px" viewBox="0 0 79 68" version="1.1" xmlns="http://www.w3.org/2000/svg" xmlns:xlink="http://www.w3.org/1999/xlink">
    <!-- Generator: Sketch 50.2 (55047) - http://www.bohemiancoding.com/sketch -->
    <title>presente</title>
    <desc>Created with Sketch.</desc>
    <defs>
        <polygon id="path-1" points="26.9211 4.4801 79.173 4.4801 79.173 58.4431 26.9211 58.4431"></polygon>
    </defs>
    <g id="presente" stroke="none" stroke-width="1" fill="none" fill-rule="evenodd">
        <g id="Group-3" transform="translate(0.000000, 0.575600)">
            <g id="presente">
                <path d="M64.1971,17.5991 C63.9471,17.7351 63.6661,17.8061 63.3841,17.8061 C63.1051,17.8061 62.8251,17.7351 62.5761,17.6011 C62.2001,17.3971 53.4721,12.5731 53.4721,5.5061 C53.4721,5.1961 53.5021,4.8941 53.5481,4.5961 C52.7271,4.5241 51.8991,4.4801 51.0601,4.4801 C40.8021,4.4801 31.8311,9.9771 26.9211,18.1831 L42.3301,18.1831 L42.3301,28.6341 C42.5951,28.8891 42.8491,29.1551 43.0771,29.4441 C43.2131,29.6151 43.3191,29.8021 43.4381,29.9831 C44.0981,29.7691 44.8001,29.6511 45.5301,29.6511 C45.7421,29.6511 45.9511,29.6641 46.1591,29.6831 C46.2171,29.6031 46.2721,29.5221 46.3331,29.4441 C47.0051,28.5931 47.8461,27.8811 48.8311,27.3281 C50.4781,26.4061 52.3261,26.0561 54.0331,26.3431 C55.8231,26.6441 57.2511,27.5991 58.0551,29.0331 C59.0071,30.7311 58.8971,32.8071 57.8601,34.6601 L63.7791,34.6601 C64.3311,34.6601 64.7791,35.1081 64.7791,35.6601 L64.7791,44.3311 C64.7791,44.8841 64.3311,45.3311 63.7791,45.3311 L62.1221,45.3311 L62.1221,58.4431 C72.1481,54.1471 79.1731,44.1921 79.1731,32.5931 C79.1731,24.6371 75.8631,17.4581 70.5511,12.3441 C67.9571,15.5271 64.4291,17.4721 64.1971,17.5991 Z" id="Fill-1" fill="#F3CA21"></path>
                <path d="M18.4271,24.326 L18.4271,18.183 L18.4271,8.704 C18.4271,4.349 21.9581,0.819 26.3131,0.819 C30.6681,0.819 34.1981,4.349 34.1981,8.704 L34.1981,23.625" id="Stroke-4" stroke="#474646" stroke-width="2" stroke-linecap="round" stroke-linejoin="round"></path>
                <path d="M0.9998,65.9998 L6.5378,59.8498 L11.9278,65.9998 L11.9278,18.1828 L11.9278,8.7048 C11.9278,4.3498 15.4578,0.8188 19.8128,0.8188 C24.1678,0.8188 27.6988,4.3498 27.6988,8.7048 L27.6988,17.6248" id="Stroke-6" stroke="#474646" stroke-width="2" stroke-linecap="round" stroke-linejoin="round"></path>
                <path d="M6.5374,59.8499 L6.5374,18.5109" id="Stroke-8" stroke="#474646" stroke-width="2" stroke-linecap="round" stroke-linejoin="round"></path>
                <polyline id="Stroke-10" stroke="#474646" stroke-width="2" stroke-linecap="round" stroke-linejoin="round" points="42.3304 29.4891 42.3304 18.1831 11.9954 18.1831 0.9994 18.1831 0.9994 66.0001 11.9274 66.0001 58.4164 66.0001 61.1224 66.0001 61.1224 44.3311 30.2584 44.3311 30.2584 65.8241"></polyline>
                <path d="M46.8089,30.4876 C46.9059,30.3436 47.0089,30.2016 47.1179,30.0636 C47.6869,29.3416 48.4309,28.6986 49.3199,28.1996 C52.3129,26.5226 55.8329,27.1146 57.1829,29.5226 C58.2049,31.3456 57.6879,33.6886 56.0769,35.4466" id="Stroke-12" stroke="#474646" stroke-width="2" stroke-linecap="round" stroke-linejoin="round"></path>
                <path d="M42.8704,30.9261 C42.7044,30.6301 42.5114,30.3411 42.2914,30.0631 C41.7224,29.3421 40.9794,28.6991 40.0894,28.2001 C37.0974,26.5231 33.5774,27.1141 32.2274,29.5221 C31.2184,31.3231 31.7084,33.6301 33.2734,35.3811" id="Stroke-14" stroke="#474646" stroke-width="2" stroke-linecap="round" stroke-linejoin="round"></path>
                <path d="M39.723,65.222 L39.723,36.457 C39.723,33.251 42.323,30.651 45.53,30.651 C48.737,30.651 51.336,33.251 51.336,36.457 L51.336,64.824" id="Stroke-16" stroke="#474646" stroke-width="2" stroke-linecap="round" stroke-linejoin="round"></path>
                <polygon id="Stroke-18" stroke="#474646" stroke-width="2" stroke-linecap="round" stroke-linejoin="round" points="27.198 44.331 63.778 44.331 63.778 35.661 27.198 35.661"></polygon>
                <path d="M67.2142,0.4246 C65.7312,0.4246 64.3392,1.0736 63.3842,2.1696 C62.4302,1.0736 61.0382,0.4246 59.5542,0.4246 C56.7522,0.4246 54.4712,2.7036 54.4712,5.5066 C54.4712,11.9856 62.6992,16.5296 63.0492,16.7196 C63.1542,16.7766 63.2692,16.8056 63.3842,16.8056 C63.5002,16.8056 63.6152,16.7766 63.7192,16.7196 C64.0702,16.5296 72.2972,11.9846 72.2972,5.5066 C72.2972,2.7036 70.0162,0.4246 67.2142,0.4246" id="Stroke-20" stroke="#474646" stroke-width="2" stroke-linecap="round" stroke-linejoin="round"></path>
            </g>
            <mask id="mask-2" fill="white">
                <use xlink:href="#path-1"></use>
            </mask>
            <g id="Clip-2"></g>
        </g>
    </g>
</svg>