<?xml version="1.0" encoding="UTF-8"?>
<svg width="80px" height="80px" viewBox="0 0 80 80" version="1.1" xmlns="http://www.w3.org/2000/svg" xmlns:xlink="http://www.w3.org/1999/xlink">
    <!-- Generator: Sketch 50.2 (55047) - http://www.bohemiancoding.com/sketch -->
    <title>roupas/desativado</title>
    <desc>Created with Sketch.</desc>
    <defs></defs>
    <g id="roupas/desativado" stroke="none" stroke-width="1" fill="none" fill-rule="evenodd">
        <path d="M66.6916377,40.0624352 L58.3258476,44.7173901 L58.3258476,41.7378015 L65.9550887,37.4924748 L66.728107,39.9707907 C66.739178,40.0060135 66.7238739,40.0444977 66.6916377,40.0624352 Z M56.708175,31.3920802 C56.2757536,32.5084475 56.0559612,33.682215 56.0559612,34.8797904 L56.0559612,70.6492037 C56.0562868,70.6922538 56.0214456,70.7271505 55.978464,70.7271505 L22.0216659,70.7271505 C21.9786843,70.7271505 21.9435175,70.6922538 21.9435175,70.6492037 L21.9435175,34.8797904 C21.9435175,33.682215 21.7240506,32.5087737 21.2916293,31.3920802 L17.7762521,22.3209027 C18.412185,21.7801674 19.1591538,21.3662994 19.9829686,21.1194136 C20.8119933,20.870571 21.7136309,20.6008556 22.6094073,20.3334232 C24.4504542,27.832946 31.239274,33.2096423 39.000065,33.2096423 C42.3265834,33.2096423 45.5195982,32.2491685 48.274005,30.4276928 C48.2756331,30.4270405 48.2775868,30.4270405 48.2788893,30.4263882 C48.7578741,30.1485194 49.9011206,29.4179723 51.8593901,27.2064366 C53.4099854,25.1609047 54.8234952,22.6359512 55.3900714,20.3334232 C56.2861734,20.6008556 57.187811,20.8702449 58.0168357,21.1190875 C58.8403248,21.3662994 59.5876192,21.7798413 60.2235521,22.3205766 L56.708175,31.3920802 Z M19.6746079,39.1375104 L12.7366549,35.2770254 L15.8879905,25.175907 C15.966139,24.9257598 16.0595915,24.6831138 16.16672,24.4486212 L19.1764116,32.214598 C19.5069144,33.0677727 19.6746079,33.9643236 19.6746079,34.8797904 L19.6746079,39.1375104 Z M19.6742823,44.7173901 L11.3088178,40.0624352 C11.276256,40.0444977 11.2612775,40.0060135 11.2720229,39.9707907 L12.0453668,37.4924748 L19.6742823,41.7378015 L19.6742823,44.7173901 Z M26.008213,19.3207675 C26.6688929,19.1241068 27.3663677,19.4985122 27.5952775,20.1732899 C29.2575599,25.0643681 33.8403144,28.3508517 39.000065,28.3508517 C44.1594898,28.3508517 48.7422444,25.0643681 50.4045267,20.1732899 C50.6337622,19.4988384 51.3302601,19.1247591 51.9919169,19.3207675 C52.3725649,19.4342632 52.7844722,19.5565646 53.2133118,19.6847365 C52.5083478,22.354821 50.9698004,25.7329491 47.375298,28.2898641 C44.9145991,30.0206737 42.0214789,30.9367928 39.000065,30.9367928 C32.2457607,30.9367928 26.3432745,26.2309605 24.7887718,19.6840842 C25.2169601,19.5565646 25.6278907,19.4342632 26.008213,19.3207675 Z M39.000065,21.6748251 C42.1455395,21.6748251 45.1526262,21.332055 47.7289197,20.6951093 C46.0858488,23.9613724 42.7290478,26.0776761 39.000065,26.0776761 C35.2710821,26.0776761 31.9142811,23.9613724 30.2712102,20.6951093 C32.8475037,21.332055 35.8545904,21.6748251 39.000065,21.6748251 Z M39.000065,17.4718962 L44.1334404,19.0660544 C42.5160933,19.2865231 40.7854311,19.4019756 39.000065,19.4019756 C37.2146988,19.4019756 35.4840366,19.2865231 33.8666895,19.0660544 L39.000065,17.4718962 Z M62.112465,25.175907 L65.2638007,35.2770254 L58.3258476,39.1378365 L58.3258476,34.8797904 C58.3258476,33.9643236 58.4932155,33.0677727 58.8240439,32.214598 L61.8337355,24.4486212 C61.940864,24.6831138 62.0343165,24.9257598 62.112465,25.175907 Z M68.8941211,39.2927516 L64.2781535,24.4975418 C63.4429421,21.821913 61.3459591,19.7450719 58.6680726,18.9417962 C56.7211997,18.3576846 54.3728392,17.6581205 52.6379439,17.1421716 C51.4536695,16.7896174 50.2316233,17.0867283 49.3465923,17.835213 C49.1134495,17.9206609 48.8734686,18.0028474 48.6273011,18.0817726 L40.1348454,15.4449541 L40.1348454,13.3423482 C40.1348454,11.8975608 39.3142868,10.6239954 38.0443747,10.0982624 C36.9496454,9.64493182 36.3299934,8.50084285 36.5374124,7.3156606 C36.7106414,6.32844358 37.5513883,5.48635757 38.5370355,5.31317877 C39.2957265,5.17946255 40.0319499,5.373188 40.6089459,5.85815387 C41.1774758,6.33627087 41.5037455,7.03681338 41.5037455,7.77975371 C41.5037455,8.4072415 42.0117103,8.91601538 42.6382003,8.91601538 C43.2653415,8.91601538 43.7729807,8.4072415 43.7729807,7.77975371 C43.7729807,6.36366639 43.1517006,5.02878721 42.0680423,4.11756014 C40.9850352,3.2066592 39.5555701,2.82605719 38.1443396,3.07424753 C36.2199343,3.41277785 34.6397078,4.99552123 34.3023671,6.92266539 C33.9093456,9.16551027 35.0916663,11.3353004 37.1775783,12.1985854 C37.5891601,12.3691551 37.8656102,12.8286823 37.8656102,13.3420221 L37.8656102,15.444628 L29.3728288,18.0817726 C29.1269869,18.0028474 28.8866804,17.9206609 28.6535376,17.835213 C27.7685066,17.0867283 26.546786,16.7896174 25.362186,17.1421716 C23.6272907,17.6581205 21.2789302,18.3576846 19.3320573,18.9417962 C16.6541708,19.7450719 14.5571878,21.821913 13.7219764,24.4975418 L9.10600875,39.2927516 C8.77550599,40.3510665 9.23853548,41.510484 10.2062736,42.0492625 L19.6742823,47.3176813 L19.6742823,70.6488776 C19.6742823,71.9455987 20.7273325,73 22.0216659,73 L55.9781383,73 C57.2724718,73 58.3258476,71.9455987 58.3258476,70.6488776 L58.3258476,47.3176813 L67.7938563,42.0492625 C68.7615944,41.510484 69.2242983,40.3513927 68.8941211,39.2927516 Z" id="Fill-1" fill="#4A4A4A"></path>
    </g>
</svg>