<?xml version="1.0" encoding="UTF-8"?>
<svg width="80px" height="80px" viewBox="0 0 80 80" version="1.1" xmlns="http://www.w3.org/2000/svg" xmlns:xlink="http://www.w3.org/1999/xlink">
    <!-- Generator: Sketch 50.2 (55047) - http://www.bohemiancoding.com/sketch -->
    <title>sapatilhas</title>
    <desc>Created with Sketch.</desc>
    <defs></defs>
    <g id="sapatilhas" stroke="none" stroke-width="1" fill="none" fill-rule="evenodd">
        <path d="M75.2530475,47.5035325 C72.4691874,50.9498759 67.1891342,53.2445084 59.5454739,54.3333527 C59.035837,54.4059026 58.5157719,54.4730895 57.9852788,54.5350623 C57.7764185,54.5593449 57.568452,54.5825847 57.3615284,54.6044837 C57.2944905,54.6117834 57.2280485,54.6183382 57.1611596,54.625191 C57.0217208,54.6396414 56.882431,54.6540918 56.744035,54.6674994 C56.6659731,54.675246 56.588954,54.6822477 56.511488,54.6893984 C56.3848609,54.7014652 56.2583827,54.7132341 56.1327984,54.724556 C56.0525019,54.7317068 55.9726523,54.7382616 55.8928027,54.7452633 C55.7715386,54.7556914 55.6505725,54.7658216 55.5303512,54.7753559 C55.4505016,54.7817617 55.3713969,54.7880186 55.2921432,54.7941265 C55.1723689,54.8033628 55.0531904,54.8124502 54.9346078,54.8209416 C54.8574398,54.8264536 54.7802717,54.8321146 54.7035506,54.8373287 C54.584968,54.8455222 54.4672792,54.8534178 54.3501864,54.8610154 C54.2761468,54.8657825 54.2021071,54.8705497 54.1286634,54.8751678 C54.0068034,54.8827655 53.8861352,54.8897672 53.7662119,54.89662 C53.7006637,54.9003443 53.6346687,54.9043666 53.5698654,54.9077929 C53.4384711,54.9149437 53.3091625,54.9216474 53.1803007,54.9279043 C53.1281601,54.9304369 53.0752747,54.9334163 53.0234321,54.9359489 C52.8528579,54.9439934 52.6845183,54.951591 52.5185623,54.9584438 C52.5103687,54.9587417 52.5018773,54.9593376 52.4938327,54.9596356 C52.3159589,54.9669353 52.1410645,54.9734901 51.9692985,54.979449 C51.9341408,54.9806408 51.9004729,54.9815346 51.8656132,54.9827264 C51.7334741,54.9871956 51.6023778,54.9913668 51.4741119,54.9949422 C51.4178001,54.9965809 51.3634249,54.9979217 51.3080069,54.9994114 C51.202236,55.0023909 51.0969121,55.0050724 50.9939717,55.007307 C50.9342335,55.0086477 50.875687,55.0099885 50.8168427,55.0110313 C50.7222448,55.012819 50.6282427,55.0149046 50.5361774,55.0165433 C50.4745025,55.0174371 50.4137215,55.018331 50.3530894,55.0192248 C50.267132,55.0205656 50.1820683,55.0217574 50.0983455,55.0226512 C50.0375644,55.0233961 49.9775283,55.023843 49.918237,55.0245878 C49.8829304,55.0248858 49.8492625,55.0250348 49.8145517,55.0253327 C50.0591655,50.8251854 52.9604164,49.5221178 53.5764202,49.2918054 C53.5852096,49.2912095 53.5942969,49.2906136 53.6030864,49.2900177 C53.621559,49.288826 53.6407765,49.2876342 53.6595472,49.2862934 C53.7079634,49.283165 53.7565286,49.2801855 53.8064346,49.2769081 C53.8295255,49.2754184 53.8533611,49.2737797 53.8768989,49.272141 C53.9241234,49.2690125 53.9716458,49.2657351 54.020062,49.2624577 C54.0444936,49.26067 54.0695211,49.2588824 54.0942506,49.2570947 C54.1425179,49.2536683 54.1909342,49.2502419 54.2403932,49.2466666 C54.2669104,49.2447299 54.2940235,49.2427933 54.3206897,49.2407077 C54.3699998,49.2371323 54.4193099,49.233408 54.4693649,49.2298326 C54.4952862,49.227896 54.5215055,49.2258103 54.5477247,49.2237247 C54.6010571,49.2195535 54.6545384,49.2153822 54.7090626,49.211062 C54.7320044,49.2091254 54.7555422,49.2073377 54.778633,49.20555 C54.8361366,49.2009318 54.8937892,49.1961647 54.9523356,49.1912486 C54.9761713,49.189163 55.0004539,49.1872263 55.0244386,49.1851407 C55.0826871,49.1802246 55.1413825,49.1753085 55.2006738,49.1700944 C55.2267441,49.1678598 55.2532613,49.1653273 55.2797785,49.1630927 C55.33758,49.1578786 55.3958285,49.1526646 55.4548219,49.1473015 C55.4834247,49.144918 55.5124744,49.1420875 55.5416732,49.139257 C55.5991768,49.1340429 55.6568294,49.1286799 55.7155248,49.1230189 C55.7457663,49.1203374 55.7760078,49.117209 55.8065473,49.1143785 C55.8649448,49.1087175 55.9236402,49.1029075 55.9829315,49.0970976 C56.013322,49.0941181 56.0437125,49.0909897 56.074103,49.0880102 C56.134884,49.0819023 56.195963,49.0756455 56.2574889,49.0692396 C56.2869855,49.0662602 56.3169291,49.0631317 56.3465748,49.0600033 C56.4086965,49.0534485 56.4711163,49.0468937 56.5341319,49.0400409 C56.5654162,49.0366145 56.5969985,49.0331881 56.6284319,49.0296128 C56.6912985,49.02276 56.7541651,49.0157583 56.8176277,49.0087566 C56.8483161,49.0051812 56.8790046,49.0017548 56.909842,48.9981795 C56.9747943,48.9907308 57.0398955,48.9834311 57.1055927,48.9755356 C57.137026,48.9718112 57.1683103,48.9679379 57.1995947,48.9643626 C57.2646959,48.956616 57.3299461,48.9487204 57.3956433,48.9406759 C57.4281194,48.9366536 57.4607445,48.9327803 57.4933696,48.9284601 C57.5593647,48.9204155 57.6255087,48.912073 57.6920997,48.9035816 C57.7247248,48.8995593 57.7573499,48.895388 57.790124,48.8909188 C57.856417,48.8824274 57.922859,48.8737869 57.989599,48.8649975 C58.0238628,48.8605283 58.0581266,48.8559102 58.0925394,48.851292 C58.1586834,48.8422046 58.2251254,48.8334152 58.2918654,48.8240299 C58.3262782,48.8192628 58.3606909,48.8144956 58.3954017,48.8097285 C58.4631844,48.8003432 58.5309672,48.7908089 58.5990479,48.7809767 C58.6330137,48.7762096 58.6666817,48.7712934 58.7006475,48.7663773 C58.7696221,48.7562472 58.8388946,48.745968 58.908316,48.7356889 C58.9421329,48.7306238 58.9759498,48.7255587 59.0097667,48.7204936 C59.0788902,48.7102145 59.1480137,48.6994884 59.2171372,48.6886134 C59.2527418,48.6832504 59.2881974,48.6777383 59.323802,48.6720774 C59.3929255,48.6612023 59.462198,48.6501783 59.5316194,48.6390053 C59.5666281,48.6333444 59.6017857,48.6276834 59.6369434,48.6220224 C59.7066628,48.6107005 59.7762332,48.5990806 59.8459526,48.5871627 C59.8818552,48.5812038 59.9179066,48.5750959 59.9538092,48.568988 C60.0232306,48.5572191 60.0923541,48.5454502 60.1619246,48.5332345 C60.1987209,48.5268286 60.2355173,48.5202738 60.2723136,48.513719 C60.342033,48.5015032 60.4117524,48.4889894 60.4813229,48.4763267 C60.5175233,48.4697719 60.5538728,48.4630681 60.5900732,48.4565133 C60.6600906,48.4437016 60.7302569,48.430741 60.8001253,48.4174824 C60.8370706,48.4106296 60.8740159,48.4036279 60.9108123,48.3964772 C60.9809786,48.3830696 61.0512939,48.369513 61.1217582,48.3556585 C61.1578097,48.3486568 61.1941591,48.3415061 61.2303596,48.3342064 C61.3009728,48.3202029 61.3714371,48.3060505 61.4423483,48.2916001 C61.4789956,48.2841514 61.515792,48.2765538 61.5525883,48.2689562 C61.6229036,48.2543568 61.6933679,48.2396085 61.7635342,48.2247112 C61.8001816,48.2171136 61.83668,48.209218 61.8731784,48.2014714 C61.9439407,48.1862761 62.0147029,48.1707829 62.0853161,48.1552897 C62.1215166,48.1472452 62.157866,48.1393496 62.1939175,48.1313051 C62.2655736,48.115216 62.3370806,48.0989779 62.4085877,48.0825909 C62.4435964,48.0745463 62.4784561,48.0665018 62.5131668,48.0584572 C62.5852698,48.0416233 62.6570748,48.0247893 62.7290288,48.0076574 C62.7640375,47.9993149 62.7987482,47.9909724 62.8339059,47.9826299 C62.905264,47.965349 62.9769201,47.9477702 63.0484271,47.9298934 C63.0837338,47.921104 63.1185935,47.9124636 63.1536021,47.9038231 C63.2246623,47.8857974 63.2952755,47.8677717 63.3661867,47.8495969 C63.4013444,47.8405096 63.4368,47.8312733 63.4719576,47.8221859 C63.5428688,47.8035643 63.6133331,47.7847937 63.6837974,47.7658741 C63.7185081,47.7564888 63.7536657,47.7472524 63.7882275,47.7375692 C63.8586918,47.7183517 63.9288581,47.6989852 63.9990244,47.6793207 C64.0334372,47.6694885 64.0681479,47.6601032 64.1025607,47.650271 C64.173174,47.6303086 64.2434893,47.6098992 64.3135066,47.589341 L64.4152552,47.5596953 C64.4846767,47.5389881 64.5539492,47.5184298 64.6230727,47.4972756 C64.6573365,47.4869964 64.6917493,47.4764194 64.7261621,47.4658423 C64.7949876,47.4445391 64.8636642,47.422938 64.9321919,47.4011879 C64.9658598,47.3906109 64.9998256,47.3800338 65.0333446,47.3691587 C65.1020212,47.3471107 65.1703998,47.3246158 65.2386295,47.3019719 C65.2717015,47.2912458 65.3047735,47.2803708 65.3378456,47.2693468 C65.4063732,47.2462559 65.4743049,47.2230161 65.5422367,47.1996274 C65.5745638,47.1884544 65.606742,47.1774304 65.6389202,47.1661084 C65.7070009,47.1424217 65.7746347,47.1181391 65.8422685,47.0938565 C65.8737018,47.0825345 65.9052841,47.0712126 65.9365684,47.0597416 C66.0037553,47.0351611 66.0704952,47.0102826 66.1372352,46.9851061 C66.1685195,46.9731883 66.1998039,46.9615684 66.2309392,46.9497995 C66.2972323,46.9243251 66.3629294,46.8985527 66.4287755,46.8729294 C66.459464,46.8607136 66.4903014,46.8486468 66.5209899,46.836431 C66.586538,46.8103607 66.6517882,46.7836945 66.7165915,46.7568793 C66.7463861,46.7445146 66.7766277,46.7324477 66.8062733,46.719934 C66.8713746,46.6926719 66.9360289,46.6649629 67.0005342,46.637105 C67.029286,46.6247402 67.0581868,46.6123754 67.0870876,46.5997127 C67.151146,46.5715568 67.2146086,46.543103 67.2780711,46.5142022 C67.306376,46.5013905 67.3349788,46.4887278 67.3632837,46.4759161 C67.4265973,46.4467174 67.489166,46.4172207 67.5515857,46.3874261 C67.5789967,46.3746144 67.6067057,46.3616537 67.6336699,46.3485441 C67.6963875,46.3183026 67.7582114,46.2876141 67.8198862,46.2567767 C67.8461055,46.243667 67.8727717,46.2308554 67.8989909,46.2174478 C67.9602189,46.1863124 68.0207019,46.1547301 68.081036,46.1231478 C68.1069574,46.1095913 68.1330276,46.0963327 68.1588,46.0826271 C68.2188361,46.0505979 68.2778295,46.0179728 68.3368228,45.9854967 C68.3618503,45.9716422 68.3873247,45.9579367 68.4122032,45.9439332 C68.4713455,45.9108612 68.5292961,45.8770443 68.5873956,45.8432274 C68.6113802,45.8295219 68.6356629,45.8156674 68.6592006,45.8016639 C68.717747,45.7672511 68.7751017,45.7317955 68.8321584,45.6966379 C68.8546533,45.6829323 68.8772972,45.6695248 68.8994942,45.6556703 C68.9569978,45.6196188 69.0133096,45.5831204 69.0697704,45.546473 C69.0907756,45.5327675 69.1122278,45.5193599 69.133084,45.5055054 C69.1896938,45.4682621 69.2451118,45.429976 69.3003808,45.3919879 C69.3200452,45.3784313 69.3400076,45.3651727 69.3593741,45.3516162 C69.415239,45.3124363 69.4700611,45.2725115 69.5244363,45.2325867 C69.5423131,45.2194771 69.5604878,45.2068143 69.5782156,45.1934068 C69.6336336,45.1522902 69.6877108,45.1104288 69.7414901,45.0681204 C69.7571323,45.0557556 69.7735193,45.0436888 69.7891615,45.031324 C69.8435367,44.9882708 69.8967201,44.9443238 69.9493076,44.9002277 C69.963609,44.8884588 69.9783573,44.87669 69.9923608,44.8649211 C70.046736,44.8188884 70.0996214,44.7721109 70.1520599,44.7251843 C70.1635309,44.7147562 70.1755977,44.704775 70.1869196,44.6944959 C70.2426356,44.643994 70.2967128,44.5927473 70.3500452,44.5410536 C70.3576428,44.5339029 70.3653894,44.5269012 70.3726891,44.5197505 C70.4130608,44.4804216 70.4517938,44.4403478 70.4908247,44.400572 C70.4969326,44.3941661 70.5033385,44.3877603 70.5097443,44.3813545 C70.5213642,44.3694366 70.53358,44.3576677 70.5450509,44.3456009 L70.5499671,44.3408338 C70.5909347,44.2976316 70.6304125,44.2538335 70.6698904,44.2098864 C70.6812123,44.1975217 70.6928322,44.1853059 70.7038563,44.1729411 C70.7632965,44.1054563 70.821396,44.0376735 70.877112,43.96855 C70.8818791,43.9627401 70.8875401,43.957824 70.8923072,43.951865 C70.954578,43.8758888 71.0204241,43.8042327 71.0892496,43.736003 C71.1069774,43.7184242 71.125897,43.7023351 71.1439228,43.6855012 C71.159118,43.6711997 71.1750581,43.658388 71.1902534,43.6446825 C71.236435,43.603119 71.2827657,43.5614066 71.3319268,43.5232695 C71.3484628,43.5101598 71.3654457,43.4977951 71.3822797,43.4849834 C71.4010503,43.4711289 71.4205658,43.4584662 71.4394854,43.4449096 C71.5002664,43.4021543 71.5613454,43.359846 71.6252548,43.3217089 C71.6280853,43.3200702 71.6306178,43.3184315 71.6332994,43.3167928 C71.6559433,43.3035342 71.67963,43.2917653 71.7028698,43.2789536 C71.7783991,43.2372411 71.8554182,43.1977633 71.9355658,43.1627546 C71.9808536,43.1429412 72.0262904,43.1240216 72.0723231,43.1065917 C72.1073317,43.0934821 72.1421914,43.0797766 72.1774981,43.0681567 C72.2361934,43.0487902 72.2959317,43.0327011 72.3558188,43.0172079 C72.3926152,43.0076736 72.4286667,42.9967986 72.46591,42.988605 C72.5327989,42.9743036 72.6007306,42.9640245 72.6689603,42.9546392 C72.6994998,42.950319 72.7294433,42.9437641 72.7601318,42.9403378 C72.8591989,42.9296117 72.9594578,42.9239507 73.0604616,42.9236528 C73.1453762,42.9232059 73.229546,42.9264833 73.3134179,42.9337829 C73.3371046,42.9358686 73.3600464,42.9400398 73.3835842,42.9427213 C73.4474936,42.950021 73.5112541,42.9579166 73.5741208,42.9693875 C73.5998931,42.9740057 73.6250696,42.9804115 73.650544,42.9859235 C73.711325,42.9988842 73.771957,43.0125897 73.8316952,43.0298706 C73.8559778,43.0367233 73.8799625,43.0444699 73.9039472,43.0519186 C73.9642813,43.0708382 74.0240195,43.0913965 74.0830128,43.1143383 C74.1058057,43.1234257 74.1285986,43.1323641 74.1512425,43.1420473 C74.2102359,43.1667769 74.2681864,43.19389 74.3252431,43.2229397 C74.3471421,43.2339637 74.3688922,43.2442429 74.3904933,43.2558628 C74.4485928,43.2869981 74.5050536,43.3212619 74.5612165,43.3565686 C74.580434,43.3686354 74.5998005,43.3795104 74.6187201,43.3920242 C74.6920148,43.4408873 74.7636709,43.492581 74.8329434,43.5484459 C75.4175138,44.0205416 75.7832427,44.6919633 75.8627943,45.4393613 C75.9416011,46.1854186 75.7251432,46.9189621 75.2530475,47.5035325 Z M47.415936,55.00686 C47.067488,54.9979217 46.8280882,54.9883874 46.7197848,54.9839182 C46.7025039,54.9830244 46.685372,54.9827264 46.6682401,54.9827264 L14.0611593,54.9827264 C14.0599675,54.9827264 14.0590736,54.9825774 14.0578818,54.9825774 L7.20869509,54.9825774 C5.65773626,54.9825774 4.39563625,53.7204774 4.39563625,52.1692206 L4.39563625,49.3564597 L13.7775145,49.3564597 L46.729766,49.3564597 C47.6867691,49.4020455 48.5756915,49.4260302 49.4410762,49.4303504 C48.4106293,50.6599743 47.5303473,52.449439 47.415936,55.00686 Z M4.39563625,37.7107864 C6.97361556,39.1607415 11.7050009,42.3980757 12.4732551,46.9608235 L4.39563625,46.9608235 L4.39563625,37.7107864 Z M14.0316626,43.9265396 C16.2817521,44.1781552 19.6238144,43.7710117 24.1427641,41.2570908 C29.3012553,38.3875712 34.9147102,40.3735314 40.8578427,42.4761376 C44.6025792,43.8009553 48.4632168,45.1630163 52.2527943,45.225436 C52.2283627,45.5353 52.2084003,45.8573798 52.1918643,46.1895898 C52.1911194,46.2046361 52.1903745,46.2195334 52.1897787,46.2344307 C52.1786057,46.4645941 52.1695183,46.7001206 52.1626656,46.941457 C52.1623676,46.9532259 52.1617717,46.9643988 52.1613248,46.9761677 C52.0235247,46.9828715 51.8867674,46.9880856 51.7500101,46.9937465 C50.1363336,47.0482707 48.5368095,47.0403751 47.0125169,46.9670804 C46.9518848,46.9643988 46.8915507,46.963654 46.8312166,46.9629091 C46.8163193,46.9620153 46.80172,46.9605255 46.7865247,46.9603766 C46.7561342,46.9596317 46.7252968,46.9599297 46.6956511,46.9611214 L14.8957065,46.9611214 L14.8957065,46.9608235 C14.759843,45.8813645 14.4550441,44.8696882 14.0316626,43.9265396 Z M5.35979008,31.2553356 C5.94987249,31.0120625 7.30254814,31.9054541 8.02268406,32.6223126 C10.979353,35.8581571 14.42808,37.0258082 18.2730754,36.0930877 C21.3335786,35.3506058 23.9516316,33.4038254 25.5158491,32.2409415 C25.7256032,32.0848177 25.9183744,31.9415056 26.0928218,31.8154744 C26.5881574,31.457641 27.1503818,31.2733613 27.7212467,31.1987258 C27.72512,31.1982789 27.7292912,31.1984278 27.7333135,31.197683 C28.9526582,31.0436448 30.2003079,31.3879216 30.9317657,31.6511571 C30.9456202,31.6560732 30.9596237,31.6612872 30.9731802,31.6662033 C30.9962711,31.6746948 31.018766,31.6828883 31.040814,31.6912308 C31.0583929,31.6977856 31.0756737,31.7043404 31.0923587,31.7107463 C31.1105334,31.717748 31.1291551,31.7247498 31.146436,31.7314535 C31.1777203,31.7436693 31.2079618,31.7555872 31.2362667,31.7669091 C31.2492274,31.7719742 31.2606983,31.7768903 31.2729141,31.7819554 C31.2904929,31.7891061 31.3082207,31.7962568 31.3244588,31.8031096 C31.3372705,31.8086216 31.3494863,31.8136867 31.3615531,31.8186028 C31.3752586,31.8244128 31.3885172,31.8302227 31.401031,31.8354368 C31.411906,31.8402039 31.4233769,31.84512 31.4332091,31.8492913 C31.4419986,31.8531646 31.4495962,31.8565909 31.4577897,31.8601663 C31.533617,31.8936852 31.5768192,31.9146904 31.5792028,31.9157333 C31.5797987,31.9161802 31.5803946,31.9163291 31.5811394,31.9166271 C31.5933552,31.922884 31.605869,31.9286939 31.6183827,31.9345039 L39.7990909,35.659427 C39.8953275,35.7531311 40.0079512,35.8329806 40.1371109,35.891825 L48.9314392,39.816819 C48.9317372,39.816968 48.9321841,39.8172659 48.9324821,39.8174149 L52.8109964,41.5833419 C52.7156537,41.970374 52.6274616,42.3860089 52.5488038,42.8344179 C49.0890528,42.8452929 45.47288,41.5666569 41.6566364,40.2166628 C35.4742532,38.0297378 29.081371,35.7683263 22.9783904,39.1626782 C16.0688696,43.0063328 12.6698996,41.2252106 12.0985878,40.8611204 C9.52612047,37.7381975 5.93333648,35.7508965 4.39801982,34.9947091 C4.4424138,31.7313046 5.26370244,31.2949624 5.35979008,31.2553356 Z M29.8560311,25.5410258 C30.2424672,25.2831534 30.863834,25.3597255 31.7031484,25.7702954 C32.3228764,26.0731577 33.149975,26.4954964 34.1227693,27.0024518 L33.9523441,27.2865435 C33.6119406,27.853833 33.7959223,28.5894621 34.3630629,28.9297167 C34.555983,29.0456177 34.7684187,29.1005888 34.9781728,29.1005888 C35.3851673,29.1005888 35.7818826,28.8932182 36.006385,28.5188489 L36.2460827,28.119452 C36.7432059,28.3828364 37.2601426,28.6582877 37.7928703,28.9428263 L37.6087396,29.2498598 C37.2683361,29.8170004 37.4524668,30.5526295 38.0196074,30.893182 C38.2125275,31.0089341 38.4249632,31.0639051 38.6347173,31.0639051 C39.0417117,31.0639051 39.4382781,30.8563856 39.6629295,30.4821652 L39.9062026,30.0765115 C40.4140518,30.3497281 40.9292008,30.627563 41.4480741,30.9080793 L41.2651351,31.2130272 C40.9245826,31.7803167 41.1084154,32.5159458 41.6758539,32.8563493 C41.8687741,32.9722504 42.0812097,33.0272215 42.2909638,33.0272215 C42.6978093,33.0272215 43.0946736,32.819702 43.319325,32.4453326 L43.5564902,32.049958 C44.0714902,32.3294315 44.5857453,32.608905 45.0953822,32.8862929 L44.9215306,33.1764925 C44.5808291,33.743782 44.7649599,34.4794112 45.3321004,34.8196657 C45.5250206,34.9357157 45.7374562,34.9906868 45.9473593,34.9906868 C46.3542048,34.9906868 46.7510691,34.7831673 46.9755716,34.4087979 L47.2006699,34.0335347 C47.7247572,34.319563 48.2384164,34.6000794 48.7377742,34.873296 L48.5776282,35.1398089 C48.2372247,35.7070984 48.4212064,36.4427275 48.9884959,36.782982 C49.1814161,36.8988831 49.3938517,36.9540031 49.6036058,36.9540031 C50.0104513,36.9540031 50.4073156,36.7464836 50.6319671,36.3721143 L50.8405294,36.0244111 C52.2700752,36.8081585 53.4906117,37.4791333 54.3664245,37.9613592 C54.1057216,38.3147233 53.8398046,38.7550878 53.5866993,39.3039046 L42.1930885,34.1887647 C42.0996823,34.1004236 41.9912299,34.0250432 41.8675823,33.9687314 L32.6270795,29.7612844 C32.6255898,29.7606885 32.6230572,29.7594968 32.6214185,29.7586029 C32.6136719,29.7548786 32.6045846,29.7507073 32.5943054,29.7456423 C32.5819406,29.7398323 32.5676392,29.7331285 32.5514012,29.7255309 C32.5473789,29.7237432 32.5439525,29.7221045 32.5397813,29.7201679 C32.2570303,29.5887736 31.4711973,29.2503067 30.4346425,29.0132906 C30.4182555,29.0094173 30.4017195,29.0058419 30.3851835,29.0021176 C30.3123356,28.9857305 30.2385939,28.9700884 30.1633625,28.9550421 C30.127758,28.9477424 30.0921534,28.9405917 30.0561019,28.9337389 C30.017071,28.9262903 29.9777421,28.9191396 29.9382642,28.9121378 C29.88374,28.9024546 29.828471,28.8930693 29.7729041,28.8841309 C29.7375974,28.8783209 29.7021419,28.8728089 29.6663883,28.8674459 C29.6012871,28.8576137 29.535441,28.8483773 29.4691479,28.8398859 C29.4441205,28.8366085 29.4193909,28.8333311 29.3943634,28.8302026 C29.3100447,28.8200725 29.22513,28.8106872 29.1390236,28.8026426 C29.125765,28.8013019 29.1125064,28.800408 29.0992478,28.7992162 C29.0125454,28.7916186 28.9250982,28.7850638 28.8369061,28.7797008 C28.8290106,28.7794028 28.8214129,28.7786579 28.8135174,28.77836 C28.8029403,28.7777641 28.7926611,28.7768703 28.7820841,28.7762744 C28.8602949,27.4684396 29.1840134,25.9903286 29.8560311,25.5410258 Z M54.568432,46.6804561 C54.5712625,46.6105878 54.573795,46.5414642 54.5769234,46.4726387 C54.5812437,46.3738695 54.5861598,46.2755473 54.5912249,46.1781189 C54.5942043,46.1210622 54.5974817,46.0646014 54.6006102,46.0082896 C54.606867,45.900731 54.6135708,45.7942152 54.6208705,45.6887423 C54.62385,45.6456891 54.6269784,45.6029338 54.6299579,45.5604765 C54.6387473,45.4415959 54.6481326,45.3239072 54.6581138,45.2077082 C54.6603484,45.1814889 54.662583,45.1554186 54.6649665,45.1294973 C54.6770334,44.9952726 54.6896961,44.8625375 54.7035506,44.7315902 C54.7041465,44.7248864 54.7048913,44.7181826 54.7054872,44.7114788 C54.8446281,43.3991749 55.071812,42.2568492 55.3862942,41.2962707 C55.8239772,39.9581945 56.3254206,39.313141 56.6205363,39.0263678 L68.9301827,42.5577749 C68.9123059,42.5786311 68.895025,42.5988914 68.8765523,42.6191518 C68.8482475,42.650883 68.8191977,42.6823164 68.7892541,42.7136007 C68.7542454,42.7499502 68.7175981,42.7861506 68.6803548,42.8222021 C68.6486235,42.8528906 68.6168922,42.883728 68.5836712,42.9142675 C68.5444913,42.9504679 68.5027789,42.9862215 68.4613643,43.021975 C68.4266536,43.0517696 68.3923898,43.0818622 68.3561893,43.1116568 C68.3116464,43.1480062 68.2648688,43.1839088 68.2180913,43.2199602 C68.1812949,43.2485631 68.1455414,43.2770169 68.1071063,43.3050239 C68.0561575,43.3425651 68.0025272,43.3796594 67.9491949,43.4169027 C67.9116536,43.4431219 67.8754532,43.4694902 67.8368691,43.4954115 C67.7737046,43.5375709 67.7072626,43.5791344 67.6411185,43.6209958 C67.6089403,43.6411072 67.5784008,43.6616655 67.5457757,43.6817768 C67.4461127,43.7425578 67.3430234,43.8028919 67.2368055,43.8626302 C67.2028397,43.8815497 67.1666392,43.9003203 67.1319285,43.918942 C67.057144,43.9599096 66.9825085,44.0007282 66.9045956,44.0410999 C66.857669,44.0653825 66.8083589,44.0889203 66.7603896,44.1130539 C66.691564,44.1474667 66.6234833,44.1817305 66.5525721,44.2156964 C66.4993888,44.2410218 66.4441197,44.2660493 66.3897446,44.2910768 C66.320621,44.322808 66.2517955,44.3546883 66.1808843,44.3861216 C66.1233807,44.411596 66.0639404,44.4366235 66.005096,44.4617999 C65.9340359,44.4921904 65.8629757,44.5225809 65.7899789,44.5525245 C65.728751,44.577552 65.6660333,44.6025795 65.6036136,44.627309 C65.5298719,44.6566567 65.4559812,44.6858554 65.3804519,44.7144583 C65.3157976,44.7391878 65.2501004,44.7636194 65.1839564,44.788051 C65.1076822,44.8165048 65.0305141,44.8445118 64.9524522,44.8723698 C64.8848184,44.8962054 64.8165887,44.9201901 64.7479121,44.9438768 C64.6682115,44.9712879 64.5873192,44.9986989 64.5058309,45.0256631 C64.4359625,45.0487539 64.3654982,45.0719937 64.2942891,45.0949355 C64.2110131,45.1217507 64.1263964,45.1481189 64.0413328,45.1744872 C63.9693788,45.1968331 63.8971268,45.2190301 63.823981,45.2409292 C63.7362359,45.2674464 63.647299,45.2930698 63.5579151,45.3189911 C63.4844714,45.3402942 63.4113256,45.3614484 63.336839,45.3824536 C63.2440288,45.4085239 63.1494309,45.4338493 63.054684,45.4593237 C62.9810913,45.4791371 62.9080945,45.4990995 62.833459,45.518615 C62.7339449,45.5446853 62.6323453,45.5700107 62.5310436,45.5953362 C62.4584937,45.6136598 62.3868376,45.6321325 62.3133939,45.6501583 C62.2010682,45.6774203 62.0865079,45.7039375 61.9722455,45.7306037 C61.9072933,45.745501 61.8436818,45.7611432 61.7782826,45.7758915 C61.598621,45.8167102 61.4165759,45.856635 61.2319983,45.8956659 C61.2014588,45.9020717 61.1700255,45.9081796 61.139337,45.9145855 C60.9829153,45.9472106 60.8255997,45.9796867 60.6659005,46.0108221 C60.5957342,46.0245276 60.5239292,46.0377862 60.4531669,46.0513428 C60.331009,46.0745826 60.209298,46.0979714 60.0852034,46.1206153 C60.0041621,46.1352146 59.9217799,46.149516 59.8401427,46.1638175 C59.7242416,46.1843758 59.6081916,46.204934 59.4906518,46.2247475 C59.4029067,46.2396448 59.3139697,46.2537972 59.2251818,46.2680986 C59.1116643,46.2867203 58.9979978,46.305044 58.8829906,46.3229207 C58.7904783,46.3373711 58.6970722,46.3512256 58.603666,46.3650801 C58.4899996,46.382212 58.3760352,46.399046 58.2610279,46.415284 C58.1649403,46.4291385 58.0682568,46.4423971 57.9711263,46.4558047 C57.8571619,46.4714469 57.7424526,46.4869401 57.6271474,46.5019864 C57.5277824,46.5147981 57.4279704,46.5276097 57.3278605,46.5401235 C57.2121084,46.5547229 57.0959094,46.5687263 56.9789655,46.5825808 C56.8776638,46.5944987 56.7760642,46.6064165 56.6737197,46.6181854 C56.5560309,46.631444 56.4374484,46.6444047 56.3187168,46.6569184 C56.2150315,46.6682403 56.1114952,46.6792644 56.0070651,46.6896925 C55.8874397,46.7019083 55.7669205,46.7135282 55.6464012,46.7251481 C55.5412262,46.7352782 55.4360512,46.7455574 55.3301314,46.7550917 C55.2073776,46.7662646 55.0837299,46.7768417 54.9599333,46.7871209 C54.8540134,46.7962082 54.7485404,46.8052956 54.6420247,46.8137871 C54.6161034,46.8160217 54.5897351,46.8176604 54.5638138,46.819746 C54.5654525,46.7734153 54.5669422,46.7264888 54.568432,46.6804561 Z M78.2444271,45.1849153 C78.0972417,43.8014022 77.42001,42.5582218 76.3377205,41.6840477 C76.2761947,41.6341417 76.213179,41.5860234 76.1497165,41.5392459 C76.1154527,41.5140694 76.080593,41.4902337 76.0457333,41.4658021 C76.0184712,41.4468825 75.9913581,41.427516 75.9637981,41.4088944 C75.914488,41.3758224 75.864582,41.3440911 75.8145271,41.3126578 C75.8040989,41.3064009 75.7938198,41.2998461 75.7836896,41.2934403 C74.9825124,40.8007862 74.071095,40.5376998 73.1286912,40.5280165 C73.1082819,40.5277186 73.0875747,40.5266758 73.0671653,40.5266758 C73.0646328,40.5266758 73.0622492,40.5268247 73.0595677,40.5268247 C72.9643739,40.5271227 72.8688822,40.5295063 72.7730925,40.5348693 C72.7610256,40.5356142 72.7492568,40.5368059 72.7373389,40.5376998 C72.6630013,40.5424669 72.5885148,40.5481279 72.5138793,40.5558745 C72.5104529,40.5561724 72.5070265,40.5569173 72.5037491,40.5572152 C72.4538431,40.5625783 72.4043841,40.5700269 72.354925,40.5767307 C72.3144043,40.5822427 72.2740326,40.5871588 72.2338099,40.5935647 C72.183457,40.6017582 72.133253,40.6112925 72.0833471,40.6209757 C72.0431243,40.6287223 72.0031995,40.636022 71.9632747,40.6445135 C71.9163482,40.6544947 71.8697196,40.6658166 71.82324,40.6771386 C71.779144,40.6878646 71.7351969,40.6990376 71.6915478,40.7108065 C71.6498354,40.7221285 71.6084209,40.7338973 71.5673043,40.7462621 C71.5248469,40.7587758 71.4823896,40.7718855 71.4402302,40.78574 L56.8705131,36.6067469 C56.3610252,36.3254857 54.5335723,35.3175338 52.0743245,33.9688804 L52.3508186,33.5082556 C52.691371,32.9409661 52.5073893,32.2053369 51.9400998,31.8649334 C51.3731082,31.5246789 50.6370321,31.7085117 50.2969266,32.2758012 L49.9718673,32.8173184 C49.4726585,32.5442507 48.9594462,32.2637344 48.4349119,31.9774081 L48.694721,31.5447903 C49.0351245,30.9775007 48.8512917,30.2418716 48.2838532,29.9016171 C47.7168617,29.5610646 46.9810836,29.7451953 46.6406801,30.3123359 L46.3300712,30.8300174 C45.8205832,30.5524805 45.306626,30.273156 44.7911791,29.9935335 L45.0386235,29.5813249 C45.3791759,29.0140354 45.1950452,28.2784063 44.6279046,27.9381518 C44.0609131,27.5975993 43.324837,27.78173 42.9847315,28.3488706 L42.683061,28.8515058 C42.1646346,28.5712874 41.6494857,28.2933036 41.1413385,28.019789 L41.3825259,27.6177107 C41.7227804,27.0505701 41.5386497,26.314941 40.9715091,25.9743885 C40.4043686,25.634134 39.6685905,25.8181157 39.328336,26.3852563 L39.0280062,26.8858059 C38.4963213,26.6015652 37.9796826,26.3265609 37.4815166,26.0622826 L37.7261304,25.6542453 C38.0665339,25.0869558 37.8825521,24.3514757 37.3154116,24.0110722 C36.7481221,23.6703707 36.012344,23.8547994 35.6719405,24.4219399 L35.3585011,24.9443886 C34.3133059,24.399296 33.4221489,23.9440343 32.7559412,23.6182301 C30.6850663,22.605809 29.3101937,23.0235296 28.5216791,23.5520861 C26.7469627,24.7417852 26.4147527,27.504938 26.374232,29.0457667 C25.7977062,29.2202142 25.228629,29.4849394 24.6906871,29.8733122 C24.5081951,30.0053024 24.3064855,30.1551693 24.0870482,30.3182948 C20.9773839,32.6303572 15.1891835,36.9334449 9.7756504,30.9885247 C9.76477536,30.9767559 9.75360238,30.964838 9.74228043,30.9533671 C9.44850549,30.6557189 6.80304137,28.0738663 4.45135218,29.038616 C2.80177317,29.7158476 2,31.7558851 2,35.2756723 L2,35.7568554 L2,48.1585671 L2,52.1692206 C2,55.0415708 4.33664291,57.3782137 7.20869509,57.3782137 L13.4581162,57.3782137 C13.459308,57.3782137 13.4603508,57.3783627 13.4613936,57.3783627 L46.6429146,57.3783627 C46.9357957,57.3905784 47.6185394,57.4145631 48.6044433,57.4217138 C48.605933,57.4217138 48.6072738,57.4218628 48.6086146,57.4218628 C48.639452,57.4220118 48.6719281,57.4223097 48.7032125,57.4224587 C48.7088735,57.4224587 48.7146834,57.4224587 48.7204934,57.4226077 C48.7873823,57.4229056 48.8547181,57.4232036 48.9239906,57.4235015 C49.0054789,57.4239484 49.0884569,57.4240974 49.1735205,57.4240974 C51.3267776,57.4240974 54.6517079,57.3354584 58.2626666,56.9147584 C67.3963557,55.8500477 73.7396299,53.1901332 77.1167008,49.0092035 C77.9910239,47.926616 78.3914636,46.5684284 78.2444271,45.1849153 Z" id="Fill-1" fill="#4A4A4A"></path>
    </g>
</svg>