<?xml version="1.0" encoding="UTF-8"?>
<svg width="80px" height="80px" viewBox="0 0 80 80" version="1.1" xmlns="http://www.w3.org/2000/svg" xmlns:xlink="http://www.w3.org/1999/xlink">
    <!-- Generator: Sketch 50.2 (55047) - http://www.bohemiancoding.com/sketch -->
    <title>vestido/ativado</title>
    <desc>Created with Sketch.</desc>
    <defs>
        <polygon id="path-1" points="0 0 46 0 46 76 0 76"></polygon>
    </defs>
    <g id="vestido/ativado" stroke="none" stroke-width="1" fill="none" fill-rule="evenodd">
        <circle id="Oval-Copy" fill="#F3CA21" cx="49" cy="31" r="29"></circle>
        <g id="Group-2" transform="translate(1.000000, 3.000000)">
            <path d="M70.0119488,0 C68.264894,0 66.6250421,0.713143276 65.5,1.91746536 C64.376136,0.713143276 62.7362841,0 60.9880512,0 C57.6871424,0 55,2.50424272 55,5.58427446 C55,12.70362 64.6930326,17.6967218 65.1053517,17.9055003 C65.2290475,17.9681338 65.3645237,18 65.5,18 C65.6366543,18 65.7721306,17.9681338 65.8946483,17.9055003 C66.3081454,17.6967218 76,12.7025212 76,5.58427446 C76,2.50424272 73.3128576,0 70.0119488,0" id="Stroke-20" stroke="#474646" stroke-width="2.29411765" fill="#FFFFFF" stroke-linecap="round" stroke-linejoin="round"></path>
            <path d="M43.9952743,71.7706563 C43.9889634,71.7037188 43.3522826,64.9833906 41.3657924,56.2940313 C38.0974782,41.9973906 33.693494,33.1869531 30.5086554,28.2535469 L30.5086554,23.9007813 L34.1586339,8.3935 C34.195782,8.236 34.196786,8.07442187 34.1649448,7.91903125 L34.1658053,7.91889062 L32.9392014,1.90646875 C32.8317732,1.37926562 32.3598921,1 31.8118503,1 L28.1323255,1 C27.4973658,1 26.9825995,1.50484375 26.9825995,2.12739062 L26.9825995,7.88851562 C25.2914294,8.59923437 23.5229511,9.81535937 22.0493627,11.8701719 C22.0383186,11.8855 22.001314,11.8856406 21.9998797,11.8856406 C21.998302,11.8856406 21.9612973,11.8855 21.9502533,11.8701719 C20.4768083,9.81535937 18.7084734,8.599375 17.0173033,7.88865625 L17.0173033,2.12739062 C17.0173033,1.50484375 16.502537,1 15.8675773,1 L12.1881959,1 C11.6401541,1 11.168273,1.37926562 11.0608448,1.90632812 L9.8342409,7.91875 L9.83495804,7.91889062 C9.80311683,8.07414062 9.80412083,8.23585937 9.84126891,8.39335937 L13.4912474,23.9007813 L13.4913908,28.2535469 C10.3064088,33.1869531 5.90256805,41.9973906 2.63411042,56.2940313 C0.647620234,64.9833906 0.0109393733,71.7037188 0.00477193084,71.7706563 C-0.0246309924,72.0860781 0.0827972492,72.3989688 0.300665739,72.6329688 C0.518677658,72.8668281 0.826762923,73 1.14976479,73 L42.850138,73 C43.1732833,73 43.4813686,72.8668281 43.6992371,72.6329688 C43.9169621,72.3989688 44.0245338,72.0860781 43.9952743,71.7706563 Z" id="Path" fill="#FFFFFF"></path>
            <g id="Group" transform="translate(1.000000, 0.000000)">
                <rect id="Rectangle" fill="#F3CA21" x="15.7368421" y="25.3333333" width="15.7368421" height="3.61904762"></rect>
                <mask id="mask-2" fill="white">
                    <use xlink:href="#path-1"></use>
                </mask>
                <g id="Clip-2"></g>
                <path d="M2.54166574,73.6201016 C3.20713669,68.0109453 6.3902411,45.4748672 15.9692441,30.3048516 L17.7519805,30.3048516 L15.4004899,45.4347891 C15.2995746,46.0843516 15.7495697,46.6922031 16.4057439,46.7921016 C16.4678225,46.8014531 16.5293013,46.8059063 16.5900304,46.8059063 C17.1733297,46.8059063 17.6852535,46.3850859 17.776722,45.7969766 L20.1844433,30.3048516 L21.7978879,30.3048516 L21.7978879,54.5010547 C21.7978879,55.1583359 22.3360527,55.6910781 23.0000242,55.6910781 C23.6638457,55.6910781 24.2020105,55.1583359 24.2020105,54.5010547 L24.2020105,30.3048516 L25.8154551,30.3048516 L28.2230265,45.7969766 C28.314345,46.3852344 28.8264188,46.8059063 29.4095681,46.8059063 C29.4702972,46.8059063 29.531776,46.8014531 29.5938546,46.7921016 C30.2500288,46.6922031 30.7000239,46.0845 30.5991086,45.4347891 L28.2479179,30.3048516 L30.0305044,30.3048516 C39.6036594,45.4659609 42.7914122,68.0090156 43.4580827,73.6201016 L2.54166574,73.6201016 Z M12.9527324,8.6485625 C14.8561772,8.69086719 18.4556883,9.28714062 20.981269,12.8429609 C21.4381618,13.4862891 22.192852,13.8704453 22.9998742,13.8704453 C23.8067465,13.8704453 24.5612868,13.4862891 25.0183295,12.8429609 C27.5611543,9.26279687 31.1474699,8.67572656 33.0486655,8.64188281 L29.7369054,22.8476484 L16.262843,22.8476484 L12.9527324,8.6485625 Z M15.3866946,2.37989844 L15.3866946,6.528875 C14.458664,6.34080469 13.619103,6.27534375 12.9426858,6.26554687 L13.7276656,2.37989844 L15.3866946,2.37989844 Z M30.6132038,2.37989844 L32.2723827,2.37989844 L33.0573625,6.26554687 C32.3807954,6.27549219 31.5412344,6.34080469 30.6132038,6.528875 L30.6132038,2.37989844 Z M16.5087584,27.9248047 L29.4912899,27.9248047 L29.4912899,25.2275469 L16.5087584,25.2275469 L16.5087584,27.9248047 Z M45.9950595,74.7023594 C45.9884618,74.6317031 45.3228409,67.5380234 43.2460557,58.3659219 C39.8291817,43.2750234 35.2250165,33.9751172 31.8954125,28.7676328 L31.8954125,24.1730469 L35.7112991,7.80425 C35.7501357,7.638 35.7511853,7.46744531 35.7178968,7.30342187 L35.7187965,7.30327344 L34.4364379,0.956828125 C34.3241265,0.400335937 33.8307963,0 33.2578435,0 L29.4110676,0 C28.747246,0 28.2090813,0.532890625 28.2090813,1.19002344 L28.2090813,7.27121094 C26.4410398,8.02141406 24.5921762,9.30510156 23.0516064,11.4740703 C23.0400604,11.49025 23.0013737,11.4903984 22.9998742,11.4903984 C22.9982248,11.4903984 22.9595381,11.49025 22.9479921,11.4740703 C21.4075723,9.30510156 19.5588586,8.0215625 17.7908171,7.27135937 L17.7908171,1.19002344 C17.7908171,0.532890625 17.2526524,0 16.5888308,0 L12.7422048,0 C12.169252,0 11.6759218,0.400335937 11.5636105,0.956679687 L10.2812518,7.303125 L10.2820016,7.30327344 C10.248713,7.46714844 10.2497627,7.63785156 10.2885993,7.80410156 L14.1044859,24.1730469 L14.1046359,28.7676328 C10.7748819,33.9751172 6.1708666,43.2750234 2.75384271,58.3659219 C0.677057517,67.5380234 0.0114366175,74.6317031 0.00498883679,74.7023594 C-0.025750583,75.0353047 0.0865607605,75.3655781 0.314332364,75.6125781 C0.542253915,75.8594297 0.864343056,76 1.20202683,76 L44.7978716,76 C45.1357053,76 45.4577944,75.8594297 45.685566,75.6125781 C45.9131877,75.3655781 46.025649,75.0353047 45.9950595,74.7023594 Z" id="Fill-1" fill="#474646" mask="url(#mask-2)"></path>
            </g>
        </g>
    </g>
</svg>