<?xml version="1.0" encoding="UTF-8"?>
<svg width="80px" height="80px" viewBox="0 0 80 80" version="1.1" xmlns="http://www.w3.org/2000/svg" xmlns:xlink="http://www.w3.org/1999/xlink">
    <!-- Generator: Sketch 50.2 (55047) - http://www.bohemiancoding.com/sketch -->
    <title>vestido/desativado</title>
    <desc>Created with Sketch.</desc>
    <defs>
        <polygon id="path-1" points="0 0 46 0 46 76 0 76"></polygon>
    </defs>
    <g id="vestido/desativado" stroke="none" stroke-width="1" fill="none" fill-rule="evenodd">
        <g id="Group-2" transform="translate(17.000000, 2.000000)">
            <g id="Group">
                <rect id="Rectangle" fill="#F1F1F1" x="15.7368421" y="25.3333333" width="15.7368421" height="3.61904762"></rect>
                <mask id="mask-2" fill="white">
                    <use xlink:href="#path-1"></use>
                </mask>
                <g id="Clip-2"></g>
                <path d="M2.54166574,73.6201016 C3.20713669,68.0109453 6.3902411,45.4748672 15.9692441,30.3048516 L17.7519805,30.3048516 L15.4004899,45.4347891 C15.2995746,46.0843516 15.7495697,46.6922031 16.4057439,46.7921016 C16.4678225,46.8014531 16.5293013,46.8059063 16.5900304,46.8059063 C17.1733297,46.8059063 17.6852535,46.3850859 17.776722,45.7969766 L20.1844433,30.3048516 L21.7978879,30.3048516 L21.7978879,54.5010547 C21.7978879,55.1583359 22.3360527,55.6910781 23.0000242,55.6910781 C23.6638457,55.6910781 24.2020105,55.1583359 24.2020105,54.5010547 L24.2020105,30.3048516 L25.8154551,30.3048516 L28.2230265,45.7969766 C28.314345,46.3852344 28.8264188,46.8059063 29.4095681,46.8059063 C29.4702972,46.8059063 29.531776,46.8014531 29.5938546,46.7921016 C30.2500288,46.6922031 30.7000239,46.0845 30.5991086,45.4347891 L28.2479179,30.3048516 L30.0305044,30.3048516 C39.6036594,45.4659609 42.7914122,68.0090156 43.4580827,73.6201016 L2.54166574,73.6201016 Z M12.9527324,8.6485625 C14.8561772,8.69086719 18.4556883,9.28714062 20.981269,12.8429609 C21.4381618,13.4862891 22.192852,13.8704453 22.9998742,13.8704453 C23.8067465,13.8704453 24.5612868,13.4862891 25.0183295,12.8429609 C27.5611543,9.26279687 31.1474699,8.67572656 33.0486655,8.64188281 L29.7369054,22.8476484 L16.262843,22.8476484 L12.9527324,8.6485625 Z M15.3866946,2.37989844 L15.3866946,6.528875 C14.458664,6.34080469 13.619103,6.27534375 12.9426858,6.26554687 L13.7276656,2.37989844 L15.3866946,2.37989844 Z M30.6132038,2.37989844 L32.2723827,2.37989844 L33.0573625,6.26554687 C32.3807954,6.27549219 31.5412344,6.34080469 30.6132038,6.528875 L30.6132038,2.37989844 Z M16.5087584,27.9248047 L29.4912899,27.9248047 L29.4912899,25.2275469 L16.5087584,25.2275469 L16.5087584,27.9248047 Z M45.9950595,74.7023594 C45.9884618,74.6317031 45.3228409,67.5380234 43.2460557,58.3659219 C39.8291817,43.2750234 35.2250165,33.9751172 31.8954125,28.7676328 L31.8954125,24.1730469 L35.7112991,7.80425 C35.7501357,7.638 35.7511853,7.46744531 35.7178968,7.30342187 L35.7187965,7.30327344 L34.4364379,0.956828125 C34.3241265,0.400335937 33.8307963,0 33.2578435,0 L29.4110676,0 C28.747246,0 28.2090813,0.532890625 28.2090813,1.19002344 L28.2090813,7.27121094 C26.4410398,8.02141406 24.5921762,9.30510156 23.0516064,11.4740703 C23.0400604,11.49025 23.0013737,11.4903984 22.9998742,11.4903984 C22.9982248,11.4903984 22.9595381,11.49025 22.9479921,11.4740703 C21.4075723,9.30510156 19.5588586,8.0215625 17.7908171,7.27135937 L17.7908171,1.19002344 C17.7908171,0.532890625 17.2526524,0 16.5888308,0 L12.7422048,0 C12.169252,0 11.6759218,0.400335937 11.5636105,0.956679687 L10.2812518,7.303125 L10.2820016,7.30327344 C10.248713,7.46714844 10.2497627,7.63785156 10.2885993,7.80410156 L14.1044859,24.1730469 L14.1046359,28.7676328 C10.7748819,33.9751172 6.1708666,43.2750234 2.75384271,58.3659219 C0.677057517,67.5380234 0.0114366175,74.6317031 0.00498883679,74.7023594 C-0.025750583,75.0353047 0.0865607605,75.3655781 0.314332364,75.6125781 C0.542253915,75.8594297 0.864343056,76 1.20202683,76 L44.7978716,76 C45.1357053,76 45.4577944,75.8594297 45.685566,75.6125781 C45.9131877,75.3655781 46.025649,75.0353047 45.9950595,74.7023594 Z" id="Fill-1" fill="#474646" mask="url(#mask-2)"></path>
            </g>
        </g>
    </g>
</svg>