<?xml version="1.0" encoding="UTF-8"?>
<svg width="25px" height="25px" viewBox="0 0 25 25" version="1.1" xmlns="http://www.w3.org/2000/svg" xmlns:xlink="http://www.w3.org/1999/xlink">
    <!-- Generator: Sketch 50.2 (55047) - http://www.bohemiancoding.com/sketch -->
    <title>icon/insta</title>
    <desc>Created with Sketch.</desc>
    <defs></defs>
    <g id="icon/insta" stroke="none" stroke-width="1" fill="none" fill-rule="evenodd">
        <g id="Group-2" fill="#444444">
            <path d="M12.5146094,14.9126563 C13.8419531,14.9126563 14.9185156,13.8392188 14.9185156,12.5142188 C14.9185156,11.19 13.8419531,10.1165625 12.5146094,10.1165625 C11.1872656,10.1165625 10.1107031,11.19 10.1107031,12.5142188 C10.1107031,13.8392188 11.1872656,14.9126563 12.5146094,14.9126563" id="Fill-202"></path>
            <path d="M15.2826563,10.058125 L16.9725,10.058125 C17.1654688,10.058125 17.3225,9.901875 17.3225,9.7096875 L17.3225,8.02296875 C17.3225,7.83078125 17.1654688,7.67453125 16.9725,7.67453125 L15.2826563,7.67453125 C15.0896875,7.67453125 14.9326563,7.83078125 14.9326563,8.02296875 L14.9326563,9.7096875 C14.9326563,9.901875 15.0896875,10.058125 15.2826563,10.058125" id="Fill-203"></path>
            <path d="M18.75,17.2675 C18.75,18.08625 18.0851563,18.7503125 17.2640625,18.7503125 L7.7359375,18.7503125 C6.915625,18.7503125 6.25,18.08625 6.25,17.2675 L6.25,7.73234375 C6.25,6.91359375 6.915625,6.2503125 7.7359375,6.2503125 L17.2640625,6.2503125 C18.0851563,6.2503125 18.75,6.91359375 18.75,7.73234375 L18.75,17.2675 Z M12.5,0.0003125 C5.59609375,0.0003125 0,5.59640625 0,12.5003125 C0,19.4034375 5.59609375,25.0003125 12.5,25.0003125 C19.4039062,25.0003125 25,19.4034375 25,12.5003125 C25,5.59640625 19.4039062,0.0003125 12.5,0.0003125 L12.5,0.0003125 Z" id="Fill-204"></path>
            <path d="M16.3170313,12.5145312 C16.3170313,14.6059375 14.6115625,16.3082812 12.5146875,16.3082812 C10.4178125,16.3082812 8.71234375,14.6059375 8.71234375,12.5145312 C8.71234375,12.1676563 8.75921875,11.8309375 8.8475,11.5114063 L7.67796875,11.5114063 L7.67796875,16.9473437 C7.67796875,17.1403125 7.83421875,17.2965625 8.0271875,17.2965625 L17.0014062,17.2965625 C17.1951563,17.2965625 17.3514063,17.1403125 17.3514063,16.9473437 L17.3514063,11.5114063 L16.181875,11.5114063 C16.2701563,11.8309375 16.3170313,12.1676563 16.3170313,12.5145312" id="Fill-205"></path>
        </g>
    </g>
</svg>