<?xml version="1.0" encoding="utf-8"?>
<!-- Generator: Adobe Illustrator 17.0.0, SVG Export Plug-In . SVG Version: 6.00 Build 0)  -->
<!DOCTYPE svg PUBLIC "-//W3C//DTD SVG 1.1//EN" "http://www.w3.org/Graphics/SVG/1.1/DTD/svg11.dtd">
<svg version="1.1" id="Camada_1" xmlns="http://www.w3.org/2000/svg" xmlns:xlink="http://www.w3.org/1999/xlink" x="0px" y="0px"
	 width="40px" height="40px" viewBox="0 0 40 40" enable-background="new 0 0 40 40" xml:space="preserve">
<title>Group 10</title>
<desc>Created with Sketch.</desc>
<path fill="#2E2E2E" d="M25.464,27.557c-0.256,0-0.512-0.098-0.707-0.293L20,22.507l-4.757,4.757c-0.391,0.391-1.023,0.391-1.414,0
	l-1.093-1.093c-0.391-0.391-0.391-1.023,0-1.414L17.493,20l-4.757-4.757c-0.391-0.391-0.391-1.023,0-1.414l1.093-1.093
	c0.391-0.391,1.023-0.391,1.414,0L20,17.493l4.757-4.757c0.391-0.391,1.023-0.391,1.414,0l1.093,1.093
	c0.391,0.391,0.391,1.023,0,1.414L22.507,20l4.757,4.757c0.391,0.391,0.391,1.023,0,1.414l-1.093,1.093
	C25.976,27.459,25.72,27.557,25.464,27.557z"/>
</svg>
