<?xml version="1.0" encoding="utf-8"?>
<!-- Generator: Adobe Illustrator 23.0.1, SVG Export Plug-In . SVG Version: 6.00 Build 0)  -->
<svg version="1.1" id="Layer_1" xmlns="http://www.w3.org/2000/svg" xmlns:xlink="http://www.w3.org/1999/xlink" x="0px" y="0px"
	 viewBox="0 0 80 80" style="enable-background:new 0 0 80 80;" xml:space="preserve">
<style type="text/css">
	.st0{fill-rule:evenodd;clip-rule:evenodd;fill:#F4CA22;}
	.st1{fill:#484647;}
	
		.st2{fill-rule:evenodd;clip-rule:evenodd;fill:none;stroke:#484647;stroke-width:2;stroke-linecap:round;stroke-linejoin:round;stroke-miterlimit:10;}
	.st3{fill:none;stroke:#484647;stroke-width:2;stroke-linecap:round;stroke-linejoin:round;stroke-miterlimit:10;}
	.st4{fill:#010101;}
	.st5{fill:#FFFFFF;}
</style>
<g>
	<path class="st0" d="M51.9,11.1c-8.4,0-16,3.7-21.1,9.6v10.9h-5.9c-0.7,2.4-1.1,5-1.1,7.6c0,1,0,1.9,0.1,2.9
		c0.5,0.1,0.7,0.2,0.9,0.3c0,0,1.9,0.3,3.1-0.1c0.5-0.1,1.5-0.5,6.8-2c4.4-1.2,8.8,0.5,10.1,5.1c0.8,2.8,0.5,5.7,0.5,8.6l-0.9,0
		l0,0.2c0.3,0,0.6-0.1,0.9-0.1c3.2,0,5.7,2.6,5.7,5.7c0,2.5-1.6,4.6-3.8,5.4l0,0c0,0,0,0.8,0,1.9c1.5,0.2,3,0.4,4.6,0.4
		c15.5,0,28.1-12.6,28.1-28.1C80.1,23.7,67.5,11.1,51.9,11.1z M46.1,35.2l4-15.1h14.5l5.1,15.1H46.1z"/>
</g>
<g>
	<g>
		<g>
			<path class="st1" d="M12.9,76H7.2c-1.2,0-3-0.9-3-3.1c0-1.6,0.1-5.6,0.1-7.2c-2.2-1.1-3.8-3.4-3.8-6c0-3.7,3-6.7,6.7-6.7
				s6.7,3,6.7,6.7V75C13.9,75.6,13.5,76,12.9,76z M6.2,66.3c0,1.8-0.1,5.2-0.1,6.6c0,0.9,0.8,1,1.1,1.1l4.7,0V59.7
				c0-2.6-2.1-4.7-4.7-4.7s-4.7,2.1-4.7,4.7s2.1,4.7,4.7,4.7c0.6,0,1,0.4,1,1s-0.4,1-1,1C6.9,66.4,6.6,66.4,6.2,66.3z"/>
		</g>
		<g>
			<path class="st1" d="M39.7,76c-0.6,0-1-0.4-1-1V59.7c0-3.7,3-6.7,6.7-6.7c3.7,0,6.7,3,6.7,6.7c0,2.6-1.5,4.9-3.8,6
				c0,1.6,0.1,5.7,0.1,7.2c0,2.2-1.8,3-3,3.1L39.7,76z M40.7,74h4.7c0.4,0,1-0.2,1-1.1c0-1.4,0-4.8-0.1-6.6c-0.3,0-0.6,0.1-1,0.1
				c-0.6,0-1-0.4-1-1s0.4-1,1-1c2.6,0,4.7-2.1,4.7-4.7S48,55,45.4,55c-2.6,0-4.7,2.1-4.7,4.7V74z"/>
		</g>
		<g>
			<path class="st1" d="M39.6,64.2H13.3c-0.6,0-1-0.4-1-1s0.4-1,1-1h26.3c0.6,0,1,0.4,1,1S40.1,64.2,39.6,64.2z"/>
		</g>
		<g>
			<path class="st1" d="M41.2,76H12.3c-0.6,0-1-0.4-1-1s0.4-1,1-1h28.9c0.6,0,1,0.4,1,1S41.8,76,41.2,76z"/>
		</g>
		<g>
			<path class="st1" d="M7.5,55c-0.6,0-1-0.4-1-1c0-0.7,0-1.3,0-2c-0.1-2.3-0.1-4.6,0.5-6.9c1.4-4.8,6.2-7.2,11.4-5.7
				c3.3,0.9,4.9,1.5,5.8,1.7c0.5,0.2,0.7,0.2,0.9,0.3c0.4,0.1,1.8,0.2,2.7-0.1l0.4-0.1c0.7-0.2,2.2-0.7,6.4-1.9
				c5.2-1.5,9.9,1,11.4,5.7c0.7,2.3,0.6,4.6,0.5,6.9c0,0.7,0,1.4,0,2c0,0.6-0.4,1-1,1s-1-0.4-1-1c0-0.7,0-1.4,0-2.1
				c0.1-2.2,0.1-4.3-0.5-6.2c-1.1-3.8-4.8-5.6-8.9-4.4c-4.2,1.2-5.7,1.7-6.4,1.9l-0.4,0.1c-1.4,0.4-3.3,0.2-3.5,0.2
				c-0.3-0.1-0.6-0.1-1.2-0.3c-0.9-0.3-2.5-0.8-5.8-1.7c-4.1-1.2-7.8,0.6-8.9,4.4c-0.6,2-0.5,4-0.5,6.2c0,0.7,0,1.4,0,2.1
				C8.5,54.5,8,55,7.5,55z"/>
		</g>
		<g>
			<g>
				<g>
					<path class="st1" d="M18.9,53.9c-0.6,0-1-0.4-1-1v-5.5c0-0.6,0.4-1,1-1s1,0.4,1,1v5.5C19.9,53.5,19.5,53.9,18.9,53.9z"/>
				</g>
				<g>
					<path class="st1" d="M21.7,51.2h-5.5c-0.6,0-1-0.4-1-1s0.4-1,1-1h5.5c0.6,0,1,0.4,1,1S22.3,51.2,21.7,51.2z"/>
				</g>
			</g>
			<g>
				<g>
					<path class="st1" d="M33.9,53.7c-0.6,0-1-0.4-1-1v-5.5c0-0.6,0.4-1,1-1s1,0.4,1,1v5.5C34.9,53.2,34.4,53.7,33.9,53.7z"/>
				</g>
				<g>
					<path class="st1" d="M36.6,50.9h-5.5c-0.6,0-1-0.4-1-1s0.4-1,1-1h5.5c0.6,0,1,0.4,1,1S37.2,50.9,36.6,50.9z"/>
				</g>
			</g>
		</g>
	</g>
	<g>
		<path class="st1" d="M69.7,36.2H46.1c-0.3,0-0.6-0.1-0.8-0.4c-0.2-0.2-0.3-0.6-0.2-0.9l4-15.1c0.1-0.4,0.5-0.7,1-0.7h14.5
			c0.4,0,0.8,0.3,0.9,0.7l5.1,15.1c0.1,0.3,0.1,0.6-0.1,0.9C70.3,36,70,36.2,69.7,36.2z M47.4,34.2h20.9L63.9,21h-13L47.4,34.2z"/>
	</g>
	<g>
		<path class="st1" d="M57.9,76.5c-0.6,0-1-0.4-1-1v-40c0-0.6,0.4-1,1-1s1,0.4,1,1v40C58.9,76.1,58.5,76.5,57.9,76.5z"/>
	</g>
	<g>
		<path class="st1" d="M63,76.5H52.8c-0.6,0-1-0.4-1-1s0.4-1,1-1H63c0.6,0,1,0.4,1,1S63.5,76.5,63,76.5z"/>
	</g>
</g>
<g>
	<path class="st1" d="M30.8,31.6H8.2c-0.6,0-1-0.4-1-1V11.1c0-0.6,0.4-1,1-1h22.6c0.6,0,1,0.4,1,1v19.5
		C31.8,31.1,31.4,31.6,30.8,31.6z M9.2,29.6h20.6V12.1H9.2V29.6z"/>
</g>
<g>
	<path class="st1" d="M20.7,31.1c-0.5,0-0.9-0.3-1-0.8c-1.1-4.4-3.2-7.3-6.5-8.6c-2.4-0.9-4.4-0.6-4.5-0.6c-0.5,0.1-1.1-0.3-1.1-0.8
		s0.3-1.1,0.8-1.1c0.1,0,10.3-1.5,13.2,10.7c0.1,0.5-0.2,1.1-0.7,1.2C20.8,31.1,20.7,31.1,20.7,31.1z"/>
</g>
<g>
	<path class="st1" d="M22.9,22.2c-2.3,0-4.1-1.8-4.1-4.1s1.8-4.1,4.1-4.1c2.3,0,4.1,1.8,4.1,4.1S25.2,22.2,22.9,22.2z M22.9,16
		c-1.2,0-2.1,0.9-2.1,2.1s0.9,2.1,2.1,2.1s2.1-0.9,2.1-2.1S24.1,16,22.9,16z"/>
</g>
</svg>
