<?xml version="1.0" encoding="utf-8"?>
<!-- Generator: Adobe Illustrator 23.0.1, SVG Export Plug-In . SVG Version: 6.00 Build 0)  -->
<svg version="1.1" id="Layer_1" xmlns="http://www.w3.org/2000/svg" xmlns:xlink="http://www.w3.org/1999/xlink" x="0px" y="0px"
	 viewBox="0 0 80 80" style="enable-background:new 0 0 80 80;" xml:space="preserve">
<style type="text/css">
	.st0{fill-rule:evenodd;clip-rule:evenodd;fill:#F4CA22;}
	.st1{fill:#484647;}
	
		.st2{fill-rule:evenodd;clip-rule:evenodd;fill:none;stroke:#484647;stroke-width:2;stroke-linecap:round;stroke-linejoin:round;stroke-miterlimit:10;}
	.st3{fill:none;stroke:#484647;stroke-width:2;stroke-linecap:round;stroke-linejoin:round;stroke-miterlimit:10;}
	.st4{fill:#010101;}
	.st5{fill:#FFFFFF;}
</style>
<g>
	<path class="st0" d="M59.8,12.2l-2.5,2.6l1.1,5.8L53.1,18l-5.2,2.9l0.9-5.9l-3.4-3.1c-5.4,1.3-10.1,4.1-13.8,7.9l4.5-0.1l3.1,3.6
		L38.8,24h0.9c0,0,4.1,1.3,6.3,2.8C48.2,28.2,56,39,56,39l-8,6l-3.8-4.1c0,0-1.3,5.6-1.3,11.6c0,5.7,0.8,10.9,1.4,13.8
		c1.7,0.5,3.4,0.8,5.1,0.9L49,55.4c0-0.9,0.5-2.1,1.2-2.7l7.4-6c0.7-0.6,1.9-0.6,2.6-0.1l7,5.2c0.7,0.5,1.4,1.7,1.4,2.6l0.2,7.2
		c6.8-5.1,11.2-13.3,11.2-22.5C80.1,26.4,71.5,15.6,59.8,12.2z"/>
</g>
<g>
	<g>
		<path class="st1" d="M58.8,55.9c-0.9,0-1.7-0.3-2.3-0.9c-0.7-0.6-1.1-1.5-1.1-2.4c0-0.9,0.3-1.8,0.9-2.5c0.6-0.7,1.5-1.1,2.4-1.1
			c0.9,0,1.8,0.3,2.5,0.9s1.1,1.5,1.1,2.4l0,0c0,0.9-0.3,1.8-0.9,2.5c-0.6,0.7-1.5,1.1-2.4,1.1C58.9,55.9,58.9,55.9,58.8,55.9z
			 M58.8,51C58.8,51,58.8,51,58.8,51c-0.4,0-0.8,0.2-1,0.5c-0.3,0.3-0.4,0.6-0.4,1c0,0.4,0.2,0.7,0.5,1c0.3,0.3,0.6,0.4,1,0.4
			c0.4,0,0.7-0.2,1-0.5c0.3-0.3,0.4-0.6,0.4-1v0c0-0.4-0.2-0.7-0.5-1C59.5,51.2,59.2,51,58.8,51z"/>
	</g>
	<g>
		<g>
			<path class="st1" d="M51.3,76.3c-1.4,0-2.6-1.1-2.7-2.6L48,55.4v0c0-1.2,0.6-2.7,1.6-3.5l7.4-6c1.1-0.9,2.8-0.9,3.8-0.1l7,5.2
				c1,0.7,1.8,2.2,1.8,3.4L70.2,73c0,0.7-0.2,1.4-0.7,1.9c-0.5,0.5-1.1,0.8-1.9,0.8L51.3,76.3C51.4,76.3,51.3,76.3,51.3,76.3z
				 M59,47.3c-0.3,0-0.5,0.1-0.7,0.2l-7.4,6c-0.5,0.4-0.9,1.3-0.9,1.9c0,0,0,0,0,0l0.7,18.3c0,0.4,0.3,0.6,0.7,0.6l16.2-0.5
				c0.2,0,0.3-0.1,0.5-0.2s0.2-0.3,0.2-0.5l-0.6-18.6c0-0.6-0.5-1.5-1-1.9l-7-5.2C59.5,47.3,59.2,47.3,59,47.3z"/>
		</g>
	</g>
</g>
<g>
	<g>
		<path class="st1" d="M28.3,31.5c-0.3,0-0.6-0.1-0.8-0.4l-8.1-10.6c-0.2-0.3-0.3-0.7-0.1-1c0.2-0.3,0.5-0.6,0.9-0.6l15.9-0.2
			c0.3,0,0.7,0.2,0.9,0.5c0.2,0.3,0.1,0.7-0.1,1l-7.8,10.8C29,31.4,28.7,31.5,28.3,31.5C28.3,31.5,28.3,31.5,28.3,31.5z M22.2,20.9
			l6.1,7.9l5.9-8.1L22.2,20.9z"/>
	</g>
	<g>
		<path class="st1" d="M32.4,34.1c-0.2,0-0.4-0.1-0.5-0.2l-3.5-2.3l-3.7,2.2c-0.4,0.3-1,0.1-1.3-0.3l-6.8-9c-0.3-0.4-0.3-0.8,0-1.2
			l3-4.1c0.3-0.4,1-0.5,1.4-0.2c0.4,0.3,0.5,1,0.2,1.4L18.5,24l5.8,7.7l3.5-2.1c0.3-0.2,0.7-0.2,1,0l3.2,2.1l5.9-8.4l-2.6-3
			c-0.4-0.4-0.3-1,0.1-1.4c0.4-0.4,1-0.3,1.4,0.1l3.1,3.6c0.3,0.3,0.3,0.9,0.1,1.2l-6.9,9.8C33,34,32.7,34.1,32.4,34.1z"/>
	</g>
	<g>
		<path class="st1" d="M30.5,76.4c-7.1,0-13.9-1.1-14.3-1.2c0,0-0.1,0-0.1,0c-2.8-0.9-4.5-2.1-5.1-3.6c-0.4-1.1-0.1-2,0-2.4l0.6-2.6
			c0.7-2.9,1.5-8.3,1.5-14c0-3.8-0.5-7.4-0.9-9.5l-2.5,2.7c-0.3,0.4-0.9,0.4-1.3,0.1l-8-6c-0.4-0.3-0.5-0.9-0.2-1.4
			c0.8-1.1,8-10.9,10.3-12.4c2.3-1.5,6.4-2.8,6.5-2.9c0.5-0.2,1.1,0.1,1.3,0.6c0.2,0.5-0.1,1.1-0.6,1.3c0,0-4,1.3-6,2.7
			c-1.4,0.9-6,6.9-9.2,11.2l6.5,4.9l3.2-3.5c0.3-0.3,0.6-0.4,1-0.3c0.4,0.1,0.6,0.4,0.7,0.7c0.1,0.2,1.3,5.8,1.3,11.8
			c0,5.8-0.8,11.3-1.5,14.4l-0.6,2.8c0,0.1-0.1,0.2-0.1,0.3c0,0-0.2,0.4,0,0.9c0.2,0.5,1,1.5,3.7,2.4c1.1,0.2,15.8,2.5,23.8,0
			c4.2-1.3,3.7-3.5,3.7-3.5l-0.6-2.8c-0.7-3.2-1.5-8.6-1.5-14.4c0-6.1,1.3-11.6,1.3-11.8c0.1-0.4,0.4-0.6,0.7-0.7
			c0.4-0.1,0.7,0,1,0.3l3.2,3.5l6.5-4.9c-3.1-4.3-7.8-10.2-9.2-11.2c-2-1.4-6-2.7-6-2.7c-0.5-0.2-0.8-0.7-0.6-1.3
			c0.2-0.5,0.7-0.8,1.3-0.6c0.2,0.1,4.3,1.4,6.5,2.9c2.3,1.5,9.5,11.3,10.3,12.4c0.3,0.4,0.2,1.1-0.2,1.4l-8,6
			c-0.4,0.3-1,0.3-1.3-0.1L44.8,43c-0.4,2.1-0.9,5.7-0.9,9.5c0,5.7,0.8,11.1,1.5,14l0.6,2.8c0,0.1,1,4-5.1,5.9
			C37.9,76.1,34.2,76.4,30.5,76.4z"/>
	</g>
	<g>
		<path class="st1" d="M11.3,43.4c-0.2,0-0.4-0.1-0.6-0.2l-8.5-5.9c-0.5-0.3-0.6-0.9-0.3-1.4c0.3-0.5,0.9-0.6,1.4-0.3l8.5,5.9
			c0.5,0.3,0.6,0.9,0.3,1.4C11.9,43.2,11.6,43.4,11.3,43.4z"/>
	</g>
	<g>
		<path class="st1" d="M45.6,43.4c-0.3,0-0.6-0.2-0.8-0.4c-0.3-0.5-0.2-1.1,0.3-1.4l8.5-5.9c0.5-0.3,1.1-0.2,1.4,0.3
			c0.3,0.5,0.2,1.1-0.3,1.4l-8.5,5.9C46,43.3,45.8,43.4,45.6,43.4z"/>
	</g>
</g>
<g>
	<path class="st1" d="M58.8,53.5c-0.2,0-0.5-0.1-0.7-0.3c-0.4-0.4-0.4-1,0-1.4c0.1-0.1,8.5-9.2,7.1-18.5c-0.7-4.7-4.5-6.5-7.9-6.3
		c-2.8,0.2-5.5,1.9-5.5,5.1c0,0.6-0.4,1-1,1h0c-0.6,0-1-0.4-1-1c0-3.8,3-6.7,7.4-7.1c4.2-0.3,9.1,2.1,10,8
		c1.5,10.2-7.2,19.7-7.6,20.1C59.4,53.3,59.1,53.5,58.8,53.5z"/>
</g>
<g>
	<path class="st1" d="M56.6,48.5c-0.3,0-0.7-0.2-0.9-0.5l-3.5-5.8c-0.3-0.5-0.1-1.1,0.4-1.4c0.5-0.3,1.1-0.1,1.4,0.4l3.5,5.8
		c0.3,0.5,0.1,1.1-0.4,1.4C57,48.5,56.8,48.5,56.6,48.5z"/>
</g>
<g>
	<path class="st1" d="M47.9,21.9c-0.2,0-0.4-0.1-0.6-0.2c-0.3-0.2-0.5-0.6-0.4-1l0.8-5.4l-4-3.7c-0.3-0.3-0.4-0.7-0.3-1
		s0.4-0.6,0.8-0.7l5.3-0.9l2.3-4.9c0.2-0.3,0.5-0.6,0.9-0.6c0.4,0,0.7,0.2,0.9,0.5l2.5,4.8l5.4,0.7c0.4,0,0.7,0.3,0.8,0.7
		c0.1,0.4,0,0.8-0.2,1l-3.8,3.9l1,5.3c0.1,0.4-0.1,0.8-0.4,1c-0.3,0.2-0.7,0.3-1.1,0.1l-4.8-2.4l-4.7,2.6
		C48.2,21.8,48,21.9,47.9,21.9z M46.6,11.6l2.9,2.7c0.2,0.2,0.4,0.6,0.3,0.9L49.1,19l3.4-1.9c0.3-0.2,0.6-0.2,0.9,0l3.5,1.7L56.3,15
		c-0.1-0.3,0-0.7,0.3-0.9l2.7-2.8l-3.9-0.5c-0.3,0-0.6-0.2-0.8-0.5l-1.8-3.5l-1.7,3.5c-0.1,0.3-0.4,0.5-0.7,0.6L46.6,11.6z
		 M50.2,9.9L50.2,9.9L50.2,9.9z"/>
</g>
<g>
	<path class="st1" d="M55.8,71.4c-0.2,0-0.4,0-0.5-0.1c-0.5-0.3-0.6-0.9-0.3-1.4l7.2-12.1c0.3-0.5,0.9-0.6,1.4-0.3
		c0.5,0.3,0.6,0.9,0.3,1.4l-7.2,12.1C56.5,71.2,56.2,71.4,55.8,71.4z"/>
</g>
<g>
	<path class="st1" d="M55.2,63.5c-1.7,0-3.1-1.4-3.1-3.1s1.4-3.1,3.1-3.1s3.1,1.4,3.1,3.1S56.9,63.5,55.2,63.5z M55.2,59.4
		c-0.6,0-1.1,0.5-1.1,1.1s0.5,1.1,1.1,1.1c0.6,0,1.1-0.5,1.1-1.1S55.8,59.4,55.2,59.4z"/>
</g>
<g>
	<path class="st1" d="M63.5,71.4c-1.7,0-3.1-1.4-3.1-3.1c0-1.7,1.4-3.1,3.1-3.1s3.1,1.4,3.1,3.1C66.6,70,65.2,71.4,63.5,71.4z
		 M63.5,67.3c-0.6,0-1.1,0.5-1.1,1.1s0.5,1.1,1.1,1.1s1.1-0.5,1.1-1.1S64.1,67.3,63.5,67.3z"/>
</g>
</svg>
