<?xml version="1.0" encoding="utf-8"?>
<!-- Generator: Adobe Illustrator 23.0.1, SVG Export Plug-In . SVG Version: 6.00 Build 0)  -->
<svg version="1.1" id="Layer_1" xmlns="http://www.w3.org/2000/svg" xmlns:xlink="http://www.w3.org/1999/xlink" x="0px" y="0px"
	 viewBox="0 0 80 80" style="enable-background:new 0 0 80 80;" xml:space="preserve">
<style type="text/css">
	.st0{fill-rule:evenodd;clip-rule:evenodd;fill:#F4CA22;}
	.st1{fill:#484647;}
	
		.st2{fill-rule:evenodd;clip-rule:evenodd;fill:none;stroke:#484647;stroke-width:2;stroke-linecap:round;stroke-linejoin:round;stroke-miterlimit:10;}
	.st3{fill:none;stroke:#484647;stroke-width:2;stroke-linecap:round;stroke-linejoin:round;stroke-miterlimit:10;}
	.st4{fill:#010101;}
</style>
<g>
	<path class="st0" d="M51.9,11.1c-7.3,0-13.9,2.8-18.9,7.3l2.1,0l0.1,6.3l-7.4,0.1l1.4,0l6-0.1c2.1,4.9,3.5,12.5,4.5,19.3L24.2,44
		c0,0,0,0.1,0,0.1h20.6L43.3,38l0,0c-0.6-1-0.9-2.2-0.9-3.4c0-1.7,0.5-3.2,1.5-4.4l0,0l0.8-7.9l1.1,0l0.3,0l-0.1-5l6.2-0.1l0.1,5
		l0.6,0l1.1,0l1,7.8l-0.2,0c1,1.2,1.6,2.7,1.6,4.4c0,1.3-0.3,2.6-1,3.6l0,0l-1.2,6.1h6.1V66c11.3-3.6,19.5-14.2,19.5-26.8
		C80.1,23.7,67.5,11.1,51.9,11.1z"/>
</g>
<g>
	<g>
		<path class="st1" d="M9.3,25.9c-0.5,0-1-0.4-1-1l-0.1-6.3c0-0.6,0.4-1,1-1l25.9-0.2c0.3,0,0.5,0.1,0.7,0.3
			c0.2,0.2,0.3,0.4,0.3,0.7l0.1,6.3c0,0.3-0.1,0.5-0.3,0.7c-0.2,0.2-0.4,0.3-0.7,0.3L9.3,25.9C9.3,25.9,9.3,25.9,9.3,25.9z
			 M10.3,19.6l0,4.3l23.9-0.2l0-4.3L10.3,19.6z"/>
	</g>
	<g>
		<path class="st1" d="M5.8,45.1c-0.1,0-0.1,0-0.2,0c-0.5-0.1-0.9-0.6-0.8-1.1c1.5-9.4,3.5-19.1,3.6-19.2c0.1-0.5,0.5-0.8,1-0.8
			l25.9-0.2c0.4,0,0.8,0.2,0.9,0.6c1.8,4.2,3.3,10.8,4.5,19.5c0.1,0.5-0.3,1.1-0.9,1.1c-0.5,0.1-1.1-0.3-1.1-0.9
			c-1.1-8.1-2.5-14.3-4.2-18.4l-24.4,0.2C9.6,28.4,8,36.4,6.8,44.2C6.7,44.7,6.3,45.1,5.8,45.1z"/>
	</g>
	<g>
		<path class="st1" d="M7.7,34.4C7.7,34.4,7.7,34.4,7.7,34.4c-0.6,0-1-0.5-1-1c0-0.6,0.5-1,1-1c0,0,3.7,0,5.6-2.2
			c1.1-1.2,1.4-3,1.1-5.2c-0.1-0.5,0.3-1.1,0.8-1.1c0.5-0.1,1.1,0.3,1.1,0.8c0.4,2.8-0.1,5.1-1.6,6.8C12.3,34.4,8.1,34.4,7.7,34.4z"
			/>
	</g>
	<g>
		<path class="st1" d="M37,34.2c-0.8,0-4.7-0.1-7.1-2.8c-1.5-1.7-2.1-4-1.7-6.8c0.1-0.5,0.6-0.9,1.1-0.9c0.5,0.1,0.9,0.6,0.9,1.1
			c-0.3,2.2,0.1,4,1.2,5.2c2,2.2,5.6,2.1,5.7,2.1c0.6,0,1,0.4,1,1s-0.4,1-1,1C37.1,34.2,37.1,34.2,37,34.2z"/>
	</g>
</g>
<g>
	<g>
		<path class="st1" d="M49.3,42.3c-4.4,0-8-3.5-8-7.9c-0.1-4.4,3.5-8.1,7.9-8.2c2.1,0,4.2,0.8,5.7,2.3c1.5,1.5,2.4,3.5,2.4,5.7l0,0
			c0,2.1-0.8,4.2-2.3,5.7c-1.5,1.5-3.5,2.4-5.7,2.4C49.4,42.3,49.4,42.3,49.3,42.3z M49.3,28.2C49.3,28.2,49.3,28.2,49.3,28.2
			c-3.4,0-6.1,2.8-6,6.1c0,3.3,2.8,6,6.1,6c1.6,0,3.1-0.7,4.2-1.8c1.1-1.2,1.7-2.7,1.7-4.3v0c0-1.6-0.7-3.1-1.8-4.3
			C52.4,28.8,50.9,28.2,49.3,28.2z"/>
	</g>
	<g>
		<path class="st1" d="M46,24.6c-0.5,0-1-0.4-1-1L44.9,17c0-0.3,0.1-0.5,0.3-0.7s0.4-0.3,0.7-0.3l6.2-0.1c0,0,0,0,0,0
			c0.5,0,1,0.4,1,1l0.1,6.6c0,0.3-0.1,0.5-0.3,0.7c-0.2,0.2-0.4,0.3-0.7,0.3L46,24.6C46,24.6,46,24.6,46,24.6z M46.9,18l0.1,4.6
			l4.2-0.1l-0.1-4.6L46.9,18z"/>
	</g>
	<g>
		<path class="st1" d="M43.7,30.9c0,0-0.1,0-0.1,0c-0.5-0.1-0.9-0.6-0.9-1.1l0.8-7.9c0.1-0.5,0.5-0.9,1-0.9l1.1,0c0,0,0,0,0,0
			c0.5,0,1,0.4,1,1c0,0.6-0.4,1-1,1l-0.2,0l-0.7,7C44.7,30.5,44.3,30.9,43.7,30.9z"/>
	</g>
	<g>
		<path class="st1" d="M54.9,30.8c-0.5,0-0.9-0.4-1-0.9l-0.9-7l-0.2,0c-0.6,0-1-0.4-1-1c0-0.6,0.4-1,1-1l1.1,0c0.5,0,0.9,0.4,1,0.9
			l1,7.8c0.1,0.5-0.3,1-0.9,1.1C55,30.8,55,30.8,54.9,30.8z"/>
	</g>
	<g>
		<path class="st1" d="M49.1,35.3c-0.3,0-0.5-0.1-0.7-0.3c-0.4-0.4-0.4-1,0-1.4l2.8-2.6c0.4-0.4,1-0.4,1.4,0c0.4,0.4,0.4,1,0,1.4
			L49.7,35C49.5,35.2,49.3,35.3,49.1,35.3z"/>
	</g>
	<g>
		<path class="st1" d="M54.2,45.2c-0.1,0-0.1,0-0.2,0c-0.5-0.1-0.9-0.6-0.8-1.2l1.2-6.4c0.1-0.5,0.6-0.9,1.2-0.8
			c0.5,0.1,0.9,0.6,0.8,1.2l-1.2,6.4C55.1,44.9,54.7,45.2,54.2,45.2z"/>
	</g>
	<g>
		<path class="st1" d="M44.9,45.3c-0.4,0-0.9-0.3-1-0.8l-1.7-6.5c-0.1-0.5,0.2-1.1,0.7-1.2c0.5-0.1,1.1,0.2,1.2,0.7l1.7,6.5
			c0.1,0.5-0.2,1.1-0.7,1.2C45,45.3,44.9,45.3,44.9,45.3z"/>
	</g>
</g>
<g>
	<path class="st1" d="M60.5,75.2H1.8c-0.6,0-1-0.4-1-1V45.1c0-0.6,0.4-1,1-1h58.7c0.6,0,1,0.4,1,1v29.1
		C61.5,74.7,61.1,75.2,60.5,75.2z M2.8,73.2h56.7V46.1H2.8V73.2z"/>
</g>
<g>
	<path class="st1" d="M32.9,63.4c-7.3,0-13.3-6-13.3-13.3c0-0.6,0.4-1,1-1s1,0.4,1,1c0,6.2,5.1,11.3,11.3,11.3
		c6.2,0,11.3-5.1,11.3-11.3c0-0.6,0.4-1,1-1s1,0.4,1,1C46.2,57.5,40.3,63.4,32.9,63.4z"/>
</g>
<g>
	<g>
		<path class="st1" d="M49.3,42.3c-4.4,0-8-3.5-8-7.9c-0.1-4.4,3.5-8.1,7.9-8.2c2.1,0,4.2,0.8,5.7,2.3c1.5,1.5,2.4,3.5,2.4,5.7l0,0
			c0,2.1-0.8,4.2-2.3,5.7c-1.5,1.5-3.5,2.4-5.7,2.4C49.4,42.3,49.4,42.3,49.3,42.3z M49.3,28.2C49.3,28.2,49.3,28.2,49.3,28.2
			c-3.4,0-6.1,2.8-6,6.1c0,3.3,2.8,6,6.1,6c1.6,0,3.1-0.7,4.2-1.8c1.1-1.2,1.7-2.7,1.7-4.3v0c0-1.6-0.7-3.1-1.8-4.3
			C52.4,28.8,50.9,28.2,49.3,28.2z"/>
	</g>
	<g>
		<path class="st1" d="M46,24.6c-0.5,0-1-0.4-1-1L44.9,17c0-0.3,0.1-0.5,0.3-0.7s0.4-0.3,0.7-0.3l6.2-0.1c0,0,0,0,0,0
			c0.5,0,1,0.4,1,1l0.1,6.6c0,0.3-0.1,0.5-0.3,0.7c-0.2,0.2-0.4,0.3-0.7,0.3L46,24.6C46,24.6,46,24.6,46,24.6z M46.9,18l0.1,4.6
			l4.2-0.1l-0.1-4.6L46.9,18z"/>
	</g>
	<g>
		<path class="st1" d="M43.7,30.9c0,0-0.1,0-0.1,0c-0.5-0.1-0.9-0.6-0.9-1.1l0.8-7.9c0.1-0.5,0.5-0.9,1-0.9l1.1,0c0,0,0,0,0,0
			c0.5,0,1,0.4,1,1c0,0.6-0.4,1-1,1l-0.2,0l-0.7,7C44.7,30.5,44.3,30.9,43.7,30.9z"/>
	</g>
	<g>
		<path class="st1" d="M54.9,30.8c-0.5,0-0.9-0.4-1-0.9l-0.9-7l-0.2,0c-0.6,0-1-0.4-1-1c0-0.6,0.4-1,1-1l1.1,0c0.5,0,0.9,0.4,1,0.9
			l1,7.8c0.1,0.5-0.3,1-0.9,1.1C55,30.8,55,30.8,54.9,30.8z"/>
	</g>
	<g>
		<path class="st1" d="M49.1,35.3c-0.3,0-0.5-0.1-0.7-0.3c-0.4-0.4-0.4-1,0-1.4l2.8-2.6c0.4-0.4,1-0.4,1.4,0c0.4,0.4,0.4,1,0,1.4
			L49.7,35C49.5,35.2,49.3,35.3,49.1,35.3z"/>
	</g>
	<g>
		<path class="st1" d="M54.3,44.8c-0.1,0-0.1,0-0.2,0c-0.5-0.1-0.9-0.6-0.8-1.2l1.1-6c0.1-0.5,0.6-0.9,1.2-0.8
			c0.5,0.1,0.9,0.6,0.8,1.2l-1.1,6C55.2,44.5,54.7,44.8,54.3,44.8z"/>
	</g>
	<g>
		<path class="st1" d="M44.9,46c-0.5,0-0.9-0.3-1-0.8L42.2,38c-0.1-0.5,0.2-1.1,0.7-1.2c0.5-0.1,1.1,0.2,1.2,0.7l1.7,7.1
			c0.1,0.5-0.2,1.1-0.7,1.2C45,45.9,44.9,46,44.9,46z"/>
	</g>
</g>
</svg>
