<?xml version="1.0" encoding="utf-8"?>
<!-- Generator: Adobe Illustrator 23.0.1, SVG Export Plug-In . SVG Version: 6.00 Build 0)  -->
<svg version="1.1" id="Layer_1" xmlns="http://www.w3.org/2000/svg" xmlns:xlink="http://www.w3.org/1999/xlink" x="0px" y="0px"
	 viewBox="0 0 80 80" style="enable-background:new 0 0 80 80;" xml:space="preserve">
<style type="text/css">
	.st0{fill-rule:evenodd;clip-rule:evenodd;fill:#F4CA22;}
	.st1{fill:#484647;}
	
		.st2{fill-rule:evenodd;clip-rule:evenodd;fill:none;stroke:#484647;stroke-width:2;stroke-linecap:round;stroke-linejoin:round;stroke-miterlimit:10;}
	.st3{fill:none;stroke:#484647;stroke-width:2;stroke-linecap:round;stroke-linejoin:round;stroke-miterlimit:10;}
	.st4{fill:#010101;}
	.st5{fill:#FFFFFF;}
</style>
<g>
	<path class="st0" d="M51.9,11.1c-11.7,0-21.8,7.2-26,17.4h19.3v6.7c0,0,0.1,0,0.1,0c3.7,0,6.6,3,6.6,6.6s-3,6.6-6.6,6.6
		c0,0-0.1,0-0.1,0v5.3c0,0,0.1,0,0.1,0c3.7,0,6.6,3,6.6,6.6c0,3.2-2.3,5.8-5.3,6.5c1.7,0.3,3.4,0.5,5.2,0.5c3.1,0,6.1-0.5,8.9-1.5
		c-2.3-1-3.9-3.3-3.9-6c0-3.7,3-6.6,6.6-6.6c3.7,0,6.6,3,6.6,6.6c0,0.3,0,0.5,0,0.7c6-5.2,9.9-12.8,9.9-21.4
		C80.1,23.7,67.5,11.1,51.9,11.1z M63.6,48.4c-3.7,0-6.6-3-6.6-6.6s3-6.6,6.6-6.6c3.7,0,6.6,3,6.6,6.6S67.3,48.4,63.6,48.4z"/>
</g>
<g>
	<path class="st1" d="M45.2,75.2C45.2,75.2,45.2,75.2,45.2,75.2L24.7,75H4.3c-0.6,0-1-0.4-1-1V28.5c0-0.6,0.4-1,1-1h40.9
		c0.6,0,1,0.4,1,1v6.2c0,0.6-0.4,1-1,1s-1-0.4-1-1v-5.2H5.3V73h19.4l19.5,0.2v-6.1c0-0.6,0.4-1,1-1s1,0.4,1,1v7.1
		c0,0.3-0.1,0.5-0.3,0.7C45.7,75.1,45.5,75.2,45.2,75.2z"/>
</g>
<g>
	<path class="st1" d="M45.2,54.2c-0.6,0-1-0.4-1-1v-4.3c0-0.6,0.4-1,1-1s1,0.4,1,1v4.3C46.2,53.8,45.8,54.2,45.2,54.2z"/>
</g>
<g>
	<path class="st1" d="M20.9,35.4c-0.6,0-1-0.4-1-1V19.5c0-4.7,3.8-8.5,8.5-8.5s8.5,3.8,8.5,8.5v14.2c0,0.6-0.4,1-1,1s-1-0.4-1-1
		V19.5c0-3.6-2.9-6.5-6.5-6.5s-6.5,2.9-6.5,6.5v14.9C21.9,34.9,21.5,35.4,20.9,35.4z"/>
</g>
<g>
	<path class="st1" d="M14.7,75c-0.3,0-0.6-0.1-0.8-0.3l-4.4-5l-4.5,5c-0.4,0.4-1,0.4-1.4,0.1c-0.4-0.4-0.4-1-0.1-1.4l5.3-5.8
		c0.2-0.2,0.5-0.3,0.7-0.3c0,0,0,0,0,0c0.3,0,0.6,0.1,0.7,0.3l3.4,3.8V19.5c0-4.7,3.8-8.5,8.5-8.5s8.5,3.8,8.5,8.5V28
		c0,0.6-0.4,1-1,1s-1-0.4-1-1v-8.5c0-3.6-2.9-6.5-6.5-6.5s-6.5,2.9-6.5,6.5V74c0,0.4-0.3,0.8-0.6,0.9C15,74.9,14.9,75,14.7,75z"/>
</g>
<g>
	<path class="st1" d="M9.6,69.1c-0.6,0-1-0.4-1-1V28.8c0-0.6,0.4-1,1-1s1,0.4,1,1v39.3C10.6,68.7,10.2,69.1,9.6,69.1z"/>
</g>
<g>
	<path class="st1" d="M45.3,49.4c-4.2,0-7.6-3.4-7.6-7.6s3.4-7.6,7.6-7.6s7.6,3.4,7.6,7.6S49.5,49.4,45.3,49.4z M45.3,36.2
		c-3.1,0-5.6,2.5-5.6,5.6c0,3.1,2.5,5.6,5.6,5.6s5.6-2.5,5.6-5.6C51,38.7,48.4,36.2,45.3,36.2z"/>
</g>
<g>
	<path class="st1" d="M45.1,45.8c-0.2,0-0.5-0.1-0.6-0.2l-2.6-2.2c-0.4-0.4-0.5-1-0.1-1.4c0.4-0.4,1-0.5,1.4-0.1l1.6,1.3l1.9-5
		c0.2-0.5,0.8-0.8,1.3-0.6c0.5,0.2,0.8,0.8,0.6,1.3l-2.4,6.3c-0.1,0.3-0.4,0.5-0.7,0.6C45.3,45.8,45.2,45.8,45.1,45.8z"/>
</g>
<g>
	<path class="st1" d="M63.6,49.4c-4.2,0-7.6-3.4-7.6-7.6s3.4-7.6,7.6-7.6s7.6,3.4,7.6,7.6S67.8,49.4,63.6,49.4z M63.6,36.2
		c-3.1,0-5.6,2.5-5.6,5.6c0,3.1,2.5,5.6,5.6,5.6c3.1,0,5.6-2.5,5.6-5.6C69.2,38.7,66.7,36.2,63.6,36.2z"/>
</g>
<g>
	<path class="st1" d="M63.4,45.8c-0.2,0-0.5-0.1-0.6-0.2l-2.6-2.2c-0.4-0.4-0.5-1-0.1-1.4c0.4-0.4,1-0.5,1.4-0.1l1.6,1.3l1.9-5
		c0.2-0.5,0.8-0.8,1.3-0.6c0.5,0.2,0.8,0.8,0.6,1.3l-2.4,6.3c-0.1,0.3-0.4,0.5-0.7,0.6C63.6,45.8,63.5,45.8,63.4,45.8z"/>
</g>
<g>
	<path class="st1" d="M45.3,68c-4.2,0-7.6-3.4-7.6-7.6s3.4-7.6,7.6-7.6s7.6,3.4,7.6,7.6S49.5,68,45.3,68z M45.3,54.7
		c-3.1,0-5.6,2.5-5.6,5.6s2.5,5.6,5.6,5.6s5.6-2.5,5.6-5.6S48.4,54.7,45.3,54.7z"/>
</g>
<g>
	<path class="st1" d="M45.1,64.3c-0.2,0-0.5-0.1-0.6-0.2l-2.6-2.2c-0.4-0.4-0.5-1-0.1-1.4c0.4-0.4,1-0.5,1.4-0.1l1.6,1.3l1.9-5
		c0.2-0.5,0.8-0.8,1.3-0.6c0.5,0.2,0.8,0.8,0.6,1.3l-2.4,6.3c-0.1,0.3-0.4,0.5-0.7,0.6C45.3,64.3,45.2,64.3,45.1,64.3z"/>
</g>
<g>
	<path class="st1" d="M63.6,67.4c-4.2,0-7.6-3.4-7.6-7.6s3.4-7.6,7.6-7.6s7.6,3.4,7.6,7.6S67.8,67.4,63.6,67.4z M63.6,54.2
		c-3.1,0-5.6,2.5-5.6,5.6c0,3.1,2.5,5.6,5.6,5.6c3.1,0,5.6-2.5,5.6-5.6C69.2,56.7,66.7,54.2,63.6,54.2z"/>
</g>
<g>
	<path class="st1" d="M63.4,63.8c-0.2,0-0.5-0.1-0.6-0.2l-2.6-2.2c-0.4-0.4-0.5-1-0.1-1.4c0.4-0.4,1-0.5,1.4-0.1l1.6,1.3l1.9-5
		c0.2-0.5,0.8-0.8,1.3-0.6c0.5,0.2,0.8,0.8,0.6,1.3l-2.4,6.3c-0.1,0.3-0.4,0.5-0.7,0.6C63.6,63.8,63.5,63.8,63.4,63.8z"/>
</g>
</svg>
