<?xml version="1.0" encoding="utf-8"?>
<!-- Generator: Adobe Illustrator 23.0.1, SVG Export Plug-In . SVG Version: 6.00 Build 0)  -->
<svg version="1.1" id="Layer_1" xmlns="http://www.w3.org/2000/svg" xmlns:xlink="http://www.w3.org/1999/xlink" x="0px" y="0px"
	 viewBox="0 0 80 80" style="enable-background:new 0 0 80 80;" xml:space="preserve">
<style type="text/css">
	.st0{fill-rule:evenodd;clip-rule:evenodd;fill:#F4CA22;}
	.st1{fill:#484647;}
	
		.st2{fill-rule:evenodd;clip-rule:evenodd;fill:none;stroke:#484647;stroke-width:2;stroke-linecap:round;stroke-linejoin:round;stroke-miterlimit:10;}
	.st3{fill:none;stroke:#484647;stroke-width:2;stroke-linecap:round;stroke-linejoin:round;stroke-miterlimit:10;}
	.st4{fill:#010101;}
	.st5{fill:#FFFFFF;}
</style>
<g>
	<path class="st0" d="M71.4,18.9c-2.6,3.2-6.1,5.1-6.4,5.3c-0.2,0.1-0.5,0.2-0.8,0.2c-0.3,0-0.6-0.1-0.8-0.2
		c-0.4-0.2-9.1-5-9.1-12.1c0-0.3,0-0.6,0.1-0.9c-0.8-0.1-1.6-0.1-2.5-0.1c-10.3,0-19.2,5.5-24.1,13.7h15.4v10.5
		c0.3,0.3,0.5,0.5,0.7,0.8c0.1,0.2,0.2,0.4,0.4,0.5c0.7-0.2,1.4-0.3,2.1-0.3c0.2,0,0.4,0,0.6,0c0.1-0.1,0.1-0.2,0.2-0.2
		c0.7-0.9,1.5-1.6,2.5-2.1c1.6-0.9,3.5-1.3,5.2-1c1.8,0.3,3.2,1.3,4,2.7c1,1.7,0.8,3.8-0.2,5.6h5.9c0.6,0,1,0.4,1,1v8.7
		c0,0.6-0.4,1-1,1H63V65c10-4.3,17.1-14.3,17.1-25.8C80.1,31.2,76.7,24.1,71.4,18.9z"/>
</g>
<g>
	<path class="st1" d="M19.3,31.9c-0.6,0-1-0.4-1-1V15.3c0-4.9,4-8.9,8.9-8.9s8.9,4,8.9,8.9v14.9c0,0.6-0.4,1-1,1s-1-0.4-1-1V15.3
		c0-3.8-3.1-6.9-6.9-6.9c-3.8,0-6.9,3.1-6.9,6.9v15.6C20.3,31.5,19.9,31.9,19.3,31.9z"/>
</g>
<g>
	<path class="st1" d="M12.8,73.6c-0.3,0-0.6-0.1-0.8-0.3L7.4,68l-4.8,5.3c-0.4,0.4-1,0.4-1.4,0.1c-0.4-0.4-0.4-1-0.1-1.4l5.5-6.1
		c0.2-0.2,0.5-0.3,0.8-0.3c0.3,0,0.6,0.1,0.7,0.3l3.6,4.2V15.3c0-4.9,4-8.9,8.9-8.9s8.9,4,8.9,8.9v8.9c0,0.6-0.4,1-1,1s-1-0.4-1-1
		v-8.9c0-3.8-3.1-6.9-6.9-6.9c-3.8,0-6.9,3.1-6.9,6.9v57.3c0,0.4-0.3,0.8-0.6,0.9C13,73.6,12.9,73.6,12.8,73.6z"/>
</g>
<g>
	<path class="st1" d="M7.4,67.5c-0.6,0-1-0.4-1-1V25.1c0-0.6,0.4-1,1-1s1,0.4,1,1v41.3C8.4,67,8,67.5,7.4,67.5z"/>
</g>
<g>
	<g>
		<path class="st1" d="M62,73.6H1.9c-0.6,0-1-0.4-1-1V24.8c0-0.6,0.4-1,1-1h41.3c0.6,0,1,0.4,1,1v11.3c0,0.6-0.4,1-1,1s-1-0.4-1-1
			V25.8H2.9v45.8h27.3V50.9c0-0.6,0.4-1,1-1H62c0.6,0,1,0.4,1,1v21.7C63,73.2,62.6,73.6,62,73.6z M32.1,71.6H61V51.9H32.1V71.6z"/>
	</g>
	<g>
		<path class="st1" d="M57,43c-0.2,0-0.5-0.1-0.7-0.3c-0.4-0.4-0.4-1-0.1-1.4c1.4-1.5,1.8-3.4,1-4.8c-1.1-1.9-4-2.3-6.5-0.9
			c-0.7,0.4-1.4,1-1.9,1.6c-0.1,0.1-0.2,0.2-0.3,0.4c-0.3,0.5-0.9,0.6-1.4,0.3c-0.5-0.3-0.6-0.9-0.3-1.4c0.1-0.2,0.2-0.3,0.4-0.5
			c0.7-0.9,1.5-1.6,2.5-2.1c3.5-1.9,7.6-1.2,9.2,1.7c1.2,2.2,0.7,4.9-1.2,7.1C57.5,42.9,57.2,43,57,43z"/>
	</g>
	<g>
		<path class="st1" d="M34.2,43c-0.3,0-0.5-0.1-0.7-0.3c-1.9-2.1-2.4-4.9-1.2-7c1.6-2.9,5.8-3.6,9.2-1.7c1,0.6,1.8,1.3,2.5,2.1
			c0.2,0.3,0.5,0.6,0.7,1c0.3,0.5,0.1,1.1-0.4,1.4c-0.5,0.3-1.1,0.1-1.4-0.4c-0.1-0.3-0.3-0.5-0.5-0.7c-0.5-0.6-1.2-1.2-1.9-1.6
			c-2.5-1.4-5.4-1-6.5,0.9c-0.8,1.4-0.4,3.2,0.9,4.7c0.4,0.4,0.3,1-0.1,1.4C34.6,42.9,34.4,43,34.2,43z"/>
	</g>
	<g>
		<path class="st1" d="M40.6,72.8c-0.6,0-1-0.4-1-1V43.1c0-3.8,3.1-6.8,6.8-6.8s6.8,3.1,6.8,6.8v28.4c0,0.6-0.4,1-1,1s-1-0.4-1-1
			V43.1c0-2.6-2.2-4.8-4.8-4.8s-4.8,2.2-4.8,4.8v28.8C41.6,72.4,41.2,72.8,40.6,72.8z"/>
	</g>
	<g>
		<path class="st1" d="M64.7,51.9H28.1c-0.6,0-1-0.4-1-1v-8.7c0-0.6,0.4-1,1-1h36.6c0.6,0,1,0.4,1,1v8.7
			C65.7,51.5,65.2,51.9,64.7,51.9z M29.1,49.9h34.6v-6.7H29.1V49.9z"/>
	</g>
</g>
<g>
	<path class="st1" d="M64.3,24.4c-0.3,0-0.6-0.1-0.8-0.2c-0.4-0.2-9.1-5-9.1-12.1c0-3.4,2.7-6.1,6.1-6.1c1.4,0,2.8,0.5,3.8,1.4
		C65.3,6.5,66.7,6,68.1,6c3.4,0,6.1,2.7,6.1,6.1c0,7.1-8.7,11.9-9.1,12.1C64.8,24.3,64.5,24.4,64.3,24.4z M60.4,8
		c-2.3,0-4.1,1.8-4.1,4.1c0,5.5,6.8,9.6,7.9,10.3c1.1-0.6,7.9-4.8,7.9-10.3c0-2.3-1.8-4.1-4.1-4.1c-1.2,0-2.3,0.5-3.1,1.4
		c-0.2,0.2-0.5,0.3-0.8,0.3l0,0c-0.3,0-0.6-0.1-0.8-0.3C62.7,8.5,61.6,8,60.4,8z"/>
</g>
</svg>
