<?xml version="1.0" encoding="UTF-8"?>
<svg width="39px" height="38px" viewBox="0 0 39 38" version="1.1" xmlns="http://www.w3.org/2000/svg" xmlns:xlink="http://www.w3.org/1999/xlink">
    <!-- Generator: Sketch 52.6 (67491) - http://www.bohemiancoding.com/sketch -->
    <title>Group 26</title>
    <desc>Created with Sketch.</desc>
    <g id="landing" stroke="none" stroke-width="1" fill="none" fill-rule="evenodd">
        <g id="💻-Large-/-12-Col" transform="translate(-708.000000, -114.000000)">
            <g id="Group" transform="translate(708.000000, 114.000000)">
                <g id="Group-26">
                    <g id="Group-2" transform="translate(0.000000, 0.000000)" fill="#FFFFFF">
                        <ellipse id="Oval" cx="19.475" cy="19" rx="19.475" ry="19"></ellipse>
                    </g>
                    <path d="M16.6905916,26.8966087 L16.6905916,20.9940725 L10.4263073,20.9940725 C9.10286695,20.9940725 8,19.9749296 8,18.6585366 C8,17.3846079 9.10286695,16.3230007 10.4263073,16.3230007 L16.6905916,16.3230007 L16.6905916,10.4204645 C16.6905916,9.06160723 17.7934585,8 19.2051282,8 C20.5726832,8 21.7196648,9.06160723 21.7196648,10.4204645 L21.7196648,16.3230007 L27.9839491,16.3230007 C29.3073895,16.3230007 30.4102564,17.3846079 30.4102564,18.6585366 C30.4102564,19.9749296 29.3073895,20.9940725 27.9839491,20.9940725 L21.7196648,20.9940725 L21.7196648,26.8966087 C21.7196648,28.2554659 20.5726832,29.3170732 19.2051282,29.3170732 C17.7934585,29.3170732 16.6905916,28.2554659 16.6905916,26.8966087 Z" id="+" fill="#F4CA20"></path>
                </g>
            </g>
        </g>
    </g>
</svg>