<?xml version="1.0" encoding="utf-8"?>
<!-- Generator: Adobe Illustrator 23.0.1, SVG Export Plug-In . SVG Version: 6.00 Build 0)  -->
<svg version="1.1" id="Layer_1" xmlns="http://www.w3.org/2000/svg" xmlns:xlink="http://www.w3.org/1999/xlink" x="0px" y="0px"
	 viewBox="0 0 80 80" style="enable-background:new 0 0 80 80;" xml:space="preserve">
<style type="text/css">
	.st0{fill-rule:evenodd;clip-rule:evenodd;fill:#F4CA22;}
	.st1{fill:#484647;}
	
		.st2{fill-rule:evenodd;clip-rule:evenodd;fill:none;stroke:#484647;stroke-width:2;stroke-linecap:round;stroke-linejoin:round;stroke-miterlimit:10;}
	.st3{fill:none;stroke:#484647;stroke-width:2;stroke-linecap:round;stroke-linejoin:round;stroke-miterlimit:10;}
	.st4{fill:#010101;}
	.st5{fill:#FFFFFF;}
</style>
<g>
	<path class="st0" d="M58.8,66.4C71,63.4,80.1,52.3,80.1,39.2c0-10.2-5.5-19.2-13.7-24.1v16.7c0,1.3-1.1,2.4-2.4,2.4h-7.1v8.4
		l-7-8.4H34.7c0,0.8-0.2,4-0.2,4c-0.3,2.6-1,4.6-1.3,5.4v3.3l8.1,18.4c2.9,1.2,6.1,1.9,9.5,2c6.7-8.3,14.6-17.9,14.7-18
		c1-1,2.9-0.6,4.3,0.8c1.4,1.4,1.8,3.4,0.8,4.3"/>
</g>
<g>
	<path class="st1" d="M56.8,43.6c-0.3,0-0.6-0.1-0.8-0.4l-6.7-8H24.1c-1.9,0-3.4-1.5-3.4-3.4V7.2c0-1.9,1.5-3.4,3.4-3.4h39.9
		c1.9,0,3.4,1.5,3.4,3.4v24.6c0,1.9-1.5,3.4-3.4,3.4h-6.1v7.4c0,0.4-0.3,0.8-0.7,0.9C57.1,43.6,56.9,43.6,56.8,43.6z M24.1,5.7
		c-0.8,0-1.4,0.6-1.4,1.4v24.6c0,0.8,0.6,1.4,1.4,1.4h25.8c0.3,0,0.6,0.1,0.8,0.4l5.2,6.3v-5.6c0-0.6,0.4-1,1-1h7.1
		c0.8,0,1.4-0.6,1.4-1.4V7.2c0-0.8-0.6-1.4-1.4-1.4H24.1z"/>
</g>
<g>
	<path class="st1" d="M44,27.9c-0.3,0-0.6-0.1-0.8-0.2c-0.4-0.2-9.1-5-9.1-12.1c0-3.4,2.7-6.1,6.1-6.1c1.4,0,2.8,0.5,3.8,1.4
		c1.1-0.9,2.4-1.4,3.8-1.4c3.4,0,6.1,2.7,6.1,6.1c0,7.1-8.7,11.9-9.1,12.1C44.6,27.8,44.3,27.9,44,27.9z M43.9,25.9
		C43.9,25.9,43.9,25.9,43.9,25.9C43.9,25.9,43.9,25.9,43.9,25.9z M40.2,11.5c-2.3,0-4.1,1.8-4.1,4.1c0,5.5,6.8,9.6,7.9,10.3
		c1.1-0.6,7.9-4.8,7.9-10.3c0-2.3-1.8-4.1-4.1-4.1c-1.2,0-2.3,0.5-3.1,1.4c-0.4,0.4-1.1,0.4-1.5,0C42.5,12,41.3,11.5,40.2,11.5z"/>
</g>
<g>
	<g>
		<path class="st1" d="M21.8,74.3c-15.9,0-20.7-3.7-21.2-4.1L0,69.7c-0.3-0.3-0.4-0.8-0.3-1.2l9.7-21.9v-2.8
			c-0.5-1.3-1.6-4.5-1.4-8.5c0.1-2-1-6.2-1.4-7.6l-0.3-1c-0.1-0.3,0-0.5,0.1-0.8c0.1-0.2,0.4-0.4,0.6-0.5l6.7-1.5
			c0.5-0.1,1.1,0.2,1.2,0.7l0.2,1c0,0.1,0.6,2.1,2.4,3.5c0.6,0.3,2.2,1,3.3,0.6c0.5-0.2,1.1,0.1,1.3,0.6c0.2,0.5-0.1,1.1-0.6,1.3
			c-2.2,0.8-4.7-0.6-5-0.7c0,0-0.1,0-0.1-0.1c-2.4-1.8-3.2-4.4-3.2-4.7l0,0l-4.7,1.1l0,0c0,0.1,1.6,5.4,1.5,8.2
			c-0.2,3.8,0.9,6.8,1.3,7.8c0.1,0.1,0.1,0.3,0.1,0.4v3.2c0,0.1,0,0.3-0.1,0.4L1.9,68.6l0,0c0,0,4.5,3.7,19.9,3.7
			c15.4,0,19.9-3.6,19.9-3.7l0,0l-9.5-21.4c-0.1-0.1-0.1-0.3-0.1-0.4v-3.3c0-0.1,0-0.3,0.1-0.4c0.1-0.1,1.4-3.4,1.4-7.9
			c0-0.6,0.4-1,1-1c0,0,0,0,0,0c0.5,0,1,0.4,1,1c0.1,4.3-1.1,7.6-1.4,8.5v2.9l9.7,21.9c0.2,0.4,0.1,0.9-0.3,1.2l-0.6,0.5
			C42.6,70.6,37.8,74.3,21.8,74.3z"/>
	</g>
	<g>
		<path class="st1" d="M33.2,44.6h-1.8c-0.6,0-1-0.4-1-1s0.4-1,1-1h1.8c0.6,0,1,0.4,1,1S33.8,44.6,33.2,44.6z M27.5,44.6h-3
			c-0.6,0-1-0.4-1-1s0.4-1,1-1h3c0.6,0,1,0.4,1,1S28,44.6,27.5,44.6z M20.5,44.6h-3c-0.6,0-1-0.4-1-1s0.4-1,1-1h3c0.6,0,1,0.4,1,1
			S21,44.6,20.5,44.6z M13.5,44.6h-3c-0.6,0-1-0.4-1-1s0.4-1,1-1h3c0.6,0,1,0.4,1,1S14,44.6,13.5,44.6z"/>
	</g>
	<g>
		<path class="st1" d="M33.2,47.8h-1.8c-0.6,0-1-0.4-1-1s0.4-1,1-1h1.8c0.6,0,1,0.4,1,1S33.8,47.8,33.2,47.8z M27.5,47.8h-3
			c-0.6,0-1-0.4-1-1s0.4-1,1-1h3c0.6,0,1,0.4,1,1S28,47.8,27.5,47.8z M20.5,47.8h-3c-0.6,0-1-0.4-1-1s0.4-1,1-1h3c0.6,0,1,0.4,1,1
			S21,47.8,20.5,47.8z M13.5,47.8h-3c-0.6,0-1-0.4-1-1s0.4-1,1-1h3c0.6,0,1,0.4,1,1S14,47.8,13.5,47.8z"/>
	</g>
</g>
<g>
	<g>
		<path class="st1" d="M47.1,77.5c-0.5,0-1.1-0.1-1.5-0.6c-0.5-0.6-0.6-1.5-0.1-2.6c0-0.1,0.1-0.2,0.1-0.2l19.9-25.4
			c0,0,0-0.1,0.1-0.1c0.8-0.9,3.1-1.9,5.6,0.4c1.1,1,1.6,2,1.6,3.1c0,1.4-1,2.2-1.1,2.3L48.5,77.1c-0.1,0.1-0.3,0.2-0.4,0.2
			C48,77.4,47.6,77.5,47.1,77.5z M47.2,75.2c-0.1,0.1-0.1,0.3-0.1,0.3c0.1,0,0.1,0,0.2,0l23-22.6c0,0,0.4-0.4,0.4-0.9
			c0-0.6-0.5-1.2-0.9-1.6c-1.5-1.4-2.5-0.7-2.8-0.5L47.2,75.2z"/>
	</g>
	<g>
		<path class="st1" d="M64.4,57.2c-0.2,0-0.5-0.1-0.7-0.3c-0.4-0.4-0.4-1-0.1-1.4l4.2-4.6c0.4-0.4,1-0.4,1.4-0.1
			c0.4,0.4,0.4,1,0.1,1.4l-4.2,4.6C64.9,57.1,64.6,57.2,64.4,57.2z"/>
	</g>
</g>
<g>
	<g>
		<path class="st1" d="M35.8,53.8c-0.3,0-0.6-0.1-0.8-0.4c-0.3-0.4-0.3-1.1,0.2-1.4c0,0,0.5-0.4,1.3-0.9c0.5-0.3,1.1-0.2,1.4,0.3
			c0.3,0.5,0.2,1.1-0.3,1.4c-0.7,0.5-1.1,0.8-1.1,0.8C36.3,53.7,36.1,53.8,35.8,53.8z"/>
	</g>
	<g>
		<path class="st1" d="M61.4,51.6c-0.2,0-0.4-0.1-0.5-0.2c-0.7-0.5-1.5-0.9-2.3-1.3c-0.5-0.2-0.7-0.8-0.5-1.3s0.8-0.7,1.3-0.5
			c0.9,0.4,1.7,0.9,2.5,1.4c0.5,0.3,0.6,0.9,0.3,1.4C62,51.4,61.7,51.6,61.4,51.6z M40.3,51.1c-0.4,0-0.7-0.2-0.9-0.6
			c-0.2-0.5,0-1.1,0.5-1.3c0.9-0.4,1.8-0.8,2.6-1.1c0.5-0.2,1.1,0.1,1.3,0.6c0.2,0.5-0.1,1.1-0.6,1.3c-0.8,0.3-1.6,0.7-2.5,1.1
			C40.6,51.1,40.4,51.1,40.3,51.1z M55.5,49c-0.1,0-0.2,0-0.2,0c-0.8-0.2-1.7-0.4-2.6-0.4c-0.5-0.1-1-0.5-0.9-1.1
			c0.1-0.5,0.5-1,1.1-0.9c1,0.1,1.9,0.3,2.9,0.5c0.5,0.1,0.9,0.7,0.7,1.2C56.4,48.7,55.9,49,55.5,49z M46.3,48.9
			c-0.5,0-0.9-0.3-1-0.8c-0.1-0.5,0.2-1.1,0.8-1.2c1-0.2,1.9-0.4,2.9-0.4c0.6-0.1,1,0.4,1.1,0.9c0.1,0.5-0.4,1-0.9,1.1
			c-0.9,0.1-1.7,0.2-2.6,0.4C46.5,48.9,46.4,48.9,46.3,48.9z"/>
	</g>
	<g>
		<path class="st1" d="M65.4,54.9c-0.3,0-0.5-0.1-0.7-0.3c-0.3-0.4-0.7-0.7-1-1c-0.4-0.4-0.4-1-0.1-1.4c0.4-0.4,1-0.4,1.4-0.1
			c0.4,0.3,0.8,0.7,1.1,1.1c0.4,0.4,0.4,1,0,1.4C65.9,54.8,65.7,54.9,65.4,54.9z"/>
	</g>
</g>
<g>
	<path class="st1" d="M63.5,74.6c-0.5,0-1.1,0-1.7-0.1c-0.5-0.1-0.9-0.6-0.8-1.1c0.1-0.5,0.6-0.9,1.1-0.8c0.9,0.2,1.8,0.2,2.7,0
		c0.6-0.1,1.1,0.3,1.2,0.8c0.1,0.5-0.3,1.1-0.8,1.2C64.6,74.5,64.1,74.6,63.5,74.6z M58.2,73.2c-0.1,0-0.3,0-0.4-0.1
		c-1.2-0.6-2.1-1.2-2.7-1.6c-0.5-0.3-0.6-0.9-0.2-1.4c0.3-0.5,0.9-0.6,1.4-0.2c0.5,0.4,1.4,0.9,2.4,1.4c0.5,0.2,0.7,0.8,0.5,1.3
		C58.9,73,58.6,73.2,58.2,73.2z M68.6,72.8c-0.3,0-0.6-0.1-0.8-0.4c-0.4-0.4-0.3-1.1,0.1-1.4c0.3-0.2,0.5-0.5,0.8-0.8
		c0.4-0.4,0.7-0.8,1-1.2c0.3-0.5,0.9-0.6,1.4-0.3c0.5,0.3,0.6,0.9,0.3,1.4c-0.3,0.5-0.7,1-1.2,1.5c-0.3,0.3-0.7,0.7-1,0.9
		C69,72.7,68.8,72.8,68.6,72.8z M71.8,66.8C71.8,66.8,71.7,66.8,71.8,66.8c-0.6,0-1-0.5-1-1c0-0.1,0-0.2,0-0.3
		c0-0.7-0.1-1.5-0.4-2.3c-0.2-0.5,0.1-1.1,0.7-1.3c0.5-0.2,1.1,0.1,1.3,0.7c0.3,1,0.5,2,0.5,2.9c0,0.1,0,0.3,0,0.4
		C72.7,66.4,72.3,66.8,71.8,66.8z M69.5,60.3c-0.3,0-0.6-0.1-0.8-0.4c-0.9-1.3-1.8-2.1-1.8-2.1c-0.4-0.4-0.4-1-0.1-1.4
		c0.4-0.4,1-0.4,1.4-0.1c0,0,1,1,2.1,2.5c0.3,0.5,0.2,1.1-0.2,1.4C69.9,60.2,69.7,60.3,69.5,60.3z"/>
</g>
</svg>
