<?xml version="1.0" encoding="utf-8"?>
<!-- Generator: Adobe Illustrator 23.0.1, SVG Export Plug-In . SVG Version: 6.00 Build 0)  -->
<svg version="1.1" id="Layer_1" xmlns="http://www.w3.org/2000/svg" xmlns:xlink="http://www.w3.org/1999/xlink" x="0px" y="0px"
	 viewBox="0 0 80 80" style="enable-background:new 0 0 80 80;" xml:space="preserve">
<style type="text/css">
	.st0{fill-rule:evenodd;clip-rule:evenodd;fill:#F4CA22;}
	.st1{fill:#484647;}
	
		.st2{fill-rule:evenodd;clip-rule:evenodd;fill:none;stroke:#484647;stroke-width:2;stroke-linecap:round;stroke-linejoin:round;stroke-miterlimit:10;}
	.st3{fill:none;stroke:#484647;stroke-width:2;stroke-linecap:round;stroke-linejoin:round;stroke-miterlimit:10;}
	.st4{fill:#010101;}
	.st5{fill:#FFFFFF;}
</style>
<g>
	<path class="st0" d="M45.4,36.8v6.7l0,0c0,0.1,0,0.2,0,0.3v5.7v1v5.7l-0.1,0c-0.2,3.5-2.5,6.2-4.2,9c3,1.1,7.5,2.2,10.8,2.2
		c15.5,0,28.1-12.6,28.1-28.1S67.5,11.1,51.9,11.1c-5.4,0-10.4,1.5-14.7,4.2c0,0,6,6.2,7,12.5S45.4,36.8,45.4,36.8z M58.4,48
		L57,49.4l-3.9,1l-2.8-2.1L49.8,45h8.7V48z M67.7,56.8h-3.9V39.1c0,0,0.1-3.6,3.9-3.8V56.8z"/>
</g>
<g>
	<path class="st1" d="M23.1,75.6c-12.6,0-22.8-10.2-22.8-22.8C0.3,40.3,10.5,30,23.1,30s22.8,10.2,22.8,22.8
		C45.9,65.4,35.7,75.6,23.1,75.6z M23.1,32C11.6,32,2.3,41.4,2.3,52.8s9.3,20.8,20.8,20.8s20.8-9.3,20.8-20.8S34.6,32,23.1,32z"/>
</g>
<g>
	<path class="st1" d="M44.9,55c-0.6,0-1-0.4-1-1v-7.2c0-8.4-5.7-16.5-13.5-19.5c-2.3-0.9-4.8-1.3-7.3-1.3
		c-11.5,0-20.8,9.3-20.8,20.8v6.1c0,0.6-0.4,1-1,1s-1-0.4-1-1v-6.1c0-12.6,10.2-22.8,22.8-22.8c2.8,0,5.5,0.5,8,1.4
		c8.6,3.2,14.8,12.2,14.8,21.4V54C45.9,54.5,45.5,55,44.9,55z"/>
</g>
<g>
	<path class="st1" d="M44.9,48.8c-0.6,0-1-0.4-1-1v-7.2c0-9.1-5.8-17-14.3-19.8c-4-1.3-8.2-1.4-12-0.3C8.7,23,2.3,31.5,2.3,40.6v6.1
		c0,0.6-0.4,1-1,1s-1-0.4-1-1v-6.1c0-10,7-19.3,16.7-22c4.2-1.2,8.8-1.1,13.2,0.3c9.4,3,15.7,11.7,15.7,21.7v7.2
		C45.9,48.4,45.5,48.8,44.9,48.8z"/>
</g>
<g>
	<path class="st1" d="M44.9,41.3c-0.6,0-1-0.4-1-1v-7.2c0-11.5-9.3-20.8-20.8-20.8c-0.9,0-1.6,0-2.2,0.1c-7,0.9-10.6,4.3-10.7,4.3
		c-5.1,4-8,10-8,16.4v6.1c0,0.6-0.4,1-1,1s-1-0.4-1-1v-6.1c0-7,3.1-13.5,8.6-17.9c0.1-0.1,4.1-3.9,11.7-4.8c0.7-0.1,1.5-0.1,2.4-0.1
		c12.6,0,22.8,10.2,22.8,22.8v7.2C45.9,40.9,45.5,41.3,44.9,41.3z"/>
</g>
<g>
	<path class="st1" d="M23.1,69.2c-9.1,0-16.4-7.4-16.4-16.4s7.4-16.4,16.4-16.4c1.8,0,3.6,0.3,5.4,0.9c0.5,0.2,0.8,0.7,0.6,1.3
		c-0.2,0.5-0.8,0.8-1.3,0.6c-1.5-0.5-3.1-0.8-4.7-0.8c-8,0-14.4,6.5-14.4,14.4c0,8,6.5,14.4,14.4,14.4s14.4-6.5,14.4-14.4
		c0-2.4-0.6-4.7-1.7-6.8c-0.3-0.5-0.1-1.1,0.4-1.4c0.5-0.3,1.1-0.1,1.4,0.4c1.3,2.4,1.9,5,1.9,7.7C39.5,61.9,32.2,69.2,23.1,69.2z"
		/>
</g>
<g>
	<g>
		<path class="st1" d="M54.1,51.6c-2.9,0-5.3-2.4-5.3-5.3V35.4c0-0.6,0.4-1,1-1s1,0.4,1,1v10.9c0,1.8,1.5,3.3,3.3,3.3
			s3.3-1.5,3.3-3.3v-11c0-0.6,0.4-1,1-1s1,0.4,1,1v11C59.4,49.2,57,51.6,54.1,51.6z"/>
	</g>
	<g>
		<path class="st1" d="M54.1,45.4c-0.6,0-1-0.4-1-1v-9.2c0-0.6,0.4-1,1-1s1,0.4,1,1v9.2C55.1,45,54.6,45.4,54.1,45.4z"/>
	</g>
	<g>
		<path class="st1" d="M54.1,75.3c-0.6,0-1-0.4-1-1V50.6c0-0.6,0.4-1,1-1s1,0.4,1,1v23.8C55.1,74.9,54.6,75.3,54.1,75.3z"/>
	</g>
</g>
<g>
	<path class="st1" d="M67.7,75.6c-0.6,0-1-0.4-1-1V57.8h-2.9c-0.6,0-1-0.4-1-1V39.1c0-1.6,1.1-4.6,4.9-4.8c0.3,0,0.5,0.1,0.7,0.3
		c0.2,0.2,0.3,0.5,0.3,0.7v39.4C68.7,75.2,68.2,75.6,67.7,75.6z M64.7,55.8h1.9V36.5c-1.8,0.6-1.9,2.4-1.9,2.7V55.8z"/>
</g>
<g>
	<path class="st1" d="M58.4,45.4h-8.7c-0.6,0-1-0.4-1-1s0.4-1,1-1h8.7c0.6,0,1,0.4,1,1S59,45.4,58.4,45.4z"/>
</g>
</svg>
