<?xml version="1.0" encoding="utf-8"?>
<!-- Generator: Adobe Illustrator 23.0.1, SVG Export Plug-In . SVG Version: 6.00 Build 0)  -->
<svg version="1.1" id="Layer_1" xmlns="http://www.w3.org/2000/svg" xmlns:xlink="http://www.w3.org/1999/xlink" x="0px" y="0px"
	 viewBox="0 0 80 80" style="enable-background:new 0 0 80 80;" xml:space="preserve">
<style type="text/css">
	.st0{fill-rule:evenodd;clip-rule:evenodd;fill:#F4CA22;}
	.st1{fill:#484647;}
	
		.st2{fill-rule:evenodd;clip-rule:evenodd;fill:none;stroke:#484647;stroke-width:2;stroke-linecap:round;stroke-linejoin:round;stroke-miterlimit:10;}
	.st3{fill:none;stroke:#484647;stroke-width:2;stroke-linecap:round;stroke-linejoin:round;stroke-miterlimit:10;}
	.st4{fill:#010101;}
	.st5{fill:#FFFFFF;}
</style>
<g>
	<path class="st0" d="M51.9,11.1c-10.4,0-19.4,5.6-24.3,13.9l28.6,4c3.3,0.5,5.6,3.5,5.1,6.8L58,60.2c0,0-0.6,3-1.2,5.1l-0.1,0
		c-0.2,0.6-0.4,1.2-0.7,1.7c13.6-2,24-13.7,24-27.8C80.1,23.7,67.5,11.1,51.9,11.1z"/>
</g>
<g>
	<path class="st1" d="M56.9,66.3c-0.1,0-0.2,0-0.3,0c-0.5-0.1-0.9-0.7-0.7-1.2c0.5-2,1.1-5,1.1-5l3.4-24.4c0.2-1.3-0.2-2.6-1-3.7
		c-0.8-1.1-2-1.8-3.3-1.9l-43.4-6c-1.3-0.2-2.6,0.2-3.7,1c-1.1,0.8-1.8,2-1.9,3.3l-0.7,5c-0.1,0.5-0.6,0.9-1.1,0.9
		C4.7,34,4.4,33.5,4.4,33l0.7-5c0.3-1.8,1.2-3.5,2.7-4.6c1.5-1.1,3.3-1.6,5.2-1.4l43.4,6c1.8,0.3,3.5,1.2,4.6,2.7
		c1.1,1.5,1.6,3.3,1.4,5.2L59,60.4c0,0.2-0.6,3.1-1.2,5.2C57.7,66,57.3,66.3,56.9,66.3z"/>
</g>
<g>
	<path class="st1" d="M41.9,62H7.2c-0.6,0-1-0.4-1-1s0.4-1,1-1h34.7c0.6,0,1,0.4,1,1S42.5,62,41.9,62z"/>
</g>
<g>
	<path class="st1" d="M7.2,57.7c-0.6,0-1-0.4-1-1v-2.4c0-0.6,0.4-1,1-1s1,0.4,1,1v2.4C8.2,57.3,7.7,57.7,7.2,57.7z"/>
</g>
<g>
	<path class="st1" d="M10.2,57.7c-0.6,0-1-0.4-1-1v-2.4c0-0.6,0.4-1,1-1s1,0.4,1,1v2.4C11.2,57.3,10.8,57.7,10.2,57.7z"/>
</g>
<g>
	<path class="st1" d="M13.8,57.7c-0.6,0-1-0.4-1-1v-2.4c0-0.6,0.4-1,1-1s1,0.4,1,1v2.4C14.8,57.3,14.3,57.7,13.8,57.7z"/>
</g>
<g>
	<path class="st1" d="M17.5,57.7c-0.6,0-1-0.4-1-1v-2.4c0-0.6,0.4-1,1-1s1,0.4,1,1v2.4C18.5,57.3,18.1,57.7,17.5,57.7z"/>
</g>
<g>
	<path class="st1" d="M21.1,57.7c-0.6,0-1-0.4-1-1v-2.4c0-0.6,0.4-1,1-1s1,0.4,1,1v2.4C22.1,57.3,21.6,57.7,21.1,57.7z"/>
</g>
<g>
	<path class="st1" d="M51,70.8H7.2c-3.9,0-7-3.1-7-7V39.1c0-3.9,3.1-7,7-7H51c3.9,0,7,3.1,7,7v24.7C58,67.7,54.8,70.8,51,70.8z
		 M7.2,34.1c-2.8,0-5,2.2-5,5v24.7c0,2.8,2.2,5,5,5H51c2.8,0,5-2.2,5-5V39.1c0-2.8-2.2-5-5-5H7.2z"/>
</g>
</svg>
