<?xml version="1.0" encoding="utf-8"?>
<!-- Generator: Adobe Illustrator 23.0.1, SVG Export Plug-In . SVG Version: 6.00 Build 0)  -->
<svg version="1.1" id="Layer_1" xmlns="http://www.w3.org/2000/svg" xmlns:xlink="http://www.w3.org/1999/xlink" x="0px" y="0px"
	 viewBox="0 0 80 80" style="enable-background:new 0 0 80 80;" xml:space="preserve">
<style type="text/css">
	.st0{fill-rule:evenodd;clip-rule:evenodd;fill:#F4CA22;}
	.st1{fill:#484647;}
	
		.st2{fill-rule:evenodd;clip-rule:evenodd;fill:none;stroke:#484647;stroke-width:2;stroke-linecap:round;stroke-linejoin:round;stroke-miterlimit:10;}
	.st3{fill:none;stroke:#484647;stroke-width:2;stroke-linecap:round;stroke-linejoin:round;stroke-miterlimit:10;}
	.st4{fill:#010101;}
	.st5{fill:#FFFFFF;}
</style>
<g>
	<path class="st0" d="M51.9,11.1c-10.4,0-19.5,5.7-24.3,14.1h24.2v4.3v10.7v27.1c0,0,0.1,0,0.1,0c15.5,0,28.1-12.6,28.1-28.1
		S67.5,11.1,51.9,11.1z M65.1,51.9c-4.9,0-8.9-4-8.9-8.9c0-4.9,4-8.9,8.9-8.9s8.9,4,8.9,8.9C74,47.9,70,51.9,65.1,51.9z"/>
</g>
<g>
	<g>
		<path class="st1" d="M49.9,68.4H7.8c-1.6,0-2.9-1.3-2.9-2.9V26.5c0-1.6,1.3-2.9,2.9-2.9h42.2c1.6,0,2.9,1.3,2.9,2.9v39.1
			C52.8,67.1,51.5,68.4,49.9,68.4z M14,66.4h35.9c0.5,0,0.9-0.4,0.9-0.9V26.5c0-0.5-0.4-0.9-0.9-0.9H7.8c-0.5,0-0.9,0.4-0.9,0.9
			v39.1c0,0.5,0.4,0.9,0.9,0.9H14z"/>
	</g>
	<g>
		<path class="st1" d="M25.2,30.4c-0.6,0-1-0.4-1-1V18.8c0-0.6,0.4-1,1-1s1,0.4,1,1v10.6C26.2,30,25.8,30.4,25.2,30.4z"/>
	</g>
	<g>
		<path class="st1" d="M32.4,30.4c-0.6,0-1-0.4-1-1V18.8c0-0.6,0.4-1,1-1c0.6,0,1,0.4,1,1v10.6C33.4,30,33,30.4,32.4,30.4z"/>
	</g>
	<g>
		<path class="st1" d="M39.8,30.4c-0.6,0-1-0.4-1-1V18.8c0-0.6,0.4-1,1-1s1,0.4,1,1v10.6C40.8,30,40.4,30.4,39.8,30.4z"/>
	</g>
	<g>
		<path class="st1" d="M47,30.4c-0.6,0-1-0.4-1-1V18.8c0-0.6,0.4-1,1-1s1,0.4,1,1v10.6C48,30,47.6,30.4,47,30.4z"/>
	</g>
	<g>
		<path class="st1" d="M18,30.4c-0.6,0-1-0.4-1-1V18.8c0-0.6,0.4-1,1-1s1,0.4,1,1v10.6C19,30,18.5,30.4,18,30.4z"/>
	</g>
	<g>
		<path class="st1" d="M10.6,30.4c-0.6,0-1-0.4-1-1V18.8c0-0.6,0.4-1,1-1s1,0.4,1,1v10.6C11.6,30,11.2,30.4,10.6,30.4z"/>
	</g>
	<g>
		<path class="st1" d="M47,36.6H11.9c-0.6,0-1-0.4-1-1s0.4-1,1-1H47c0.6,0,1,0.4,1,1S47.6,36.6,47,36.6z"/>
	</g>
</g>
<g>
	<path class="st1" d="M45.8,75.6H12.6c-0.6,0-1-0.4-1-1s0.4-1,1-1h33.2c0.6,0,1,0.4,1,1S46.3,75.6,45.8,75.6z"/>
</g>
<g>
	<g>
		<g>
			<path class="st1" d="M12.8,48.1c-0.3,0-0.5-0.1-0.7-0.3c-0.4-0.4-0.4-1,0-1.4l2.4-2.4c0.4-0.4,1-0.4,1.4,0c0.4,0.4,0.4,1,0,1.4
				l-2.4,2.4C13.3,48,13.1,48.1,12.8,48.1z"/>
		</g>
		<g>
			<path class="st1" d="M15.2,48.1c-0.3,0-0.5-0.1-0.7-0.3l-2.4-2.4c-0.4-0.4-0.4-1,0-1.4s1-0.4,1.4,0l2.4,2.4c0.4,0.4,0.4,1,0,1.4
				C15.7,48,15.4,48.1,15.2,48.1z"/>
		</g>
	</g>
	<g>
		<circle class="st1" cx="21" cy="45.9" r="1.6"/>
	</g>
	<g>
		<circle class="st1" cx="29" cy="45.9" r="1.6"/>
	</g>
	<g>
		<circle class="st1" cx="36" cy="45.9" r="1.6"/>
	</g>
	<g>
		<circle class="st1" cx="43" cy="45.9" r="1.6"/>
	</g>
	<g>
		<circle class="st1" cx="36" cy="52.9" r="1.6"/>
	</g>
	<g>
		<circle class="st1" cx="43" cy="52.9" r="1.6"/>
	</g>
	<g>
		<g>
			<path class="st1" d="M27.8,55c-0.3,0-0.5-0.1-0.7-0.3c-0.4-0.4-0.4-1,0-1.4l2.4-2.4c0.4-0.4,1-0.4,1.4,0s0.4,1,0,1.4l-2.4,2.4
				C28.3,54.9,28.1,55,27.8,55z"/>
		</g>
		<g>
			<path class="st1" d="M30.2,55c-0.3,0-0.5-0.1-0.7-0.3l-2.4-2.4c-0.4-0.4-0.4-1,0-1.4s1-0.4,1.4,0l2.4,2.4c0.4,0.4,0.4,1,0,1.4
				C30.7,54.9,30.4,55,30.2,55z"/>
		</g>
	</g>
	<g>
		<circle class="st1" cx="14" cy="52.9" r="1.6"/>
	</g>
	<g>
		<circle class="st1" cx="21" cy="52.9" r="1.6"/>
	</g>
	<g>
		<g>
			<path class="st1" d="M41.8,61.9c-0.3,0-0.5-0.1-0.7-0.3c-0.4-0.4-0.4-1,0-1.4l2.4-2.4c0.4-0.4,1-0.4,1.4,0s0.4,1,0,1.4l-2.4,2.4
				C42.3,61.8,42.1,61.9,41.8,61.9z"/>
		</g>
		<g>
			<path class="st1" d="M44.2,61.9c-0.3,0-0.5-0.1-0.7-0.3l-2.4-2.4c-0.4-0.4-0.4-1,0-1.4s1-0.4,1.4,0l2.4,2.4c0.4,0.4,0.4,1,0,1.4
				C44.7,61.8,44.4,61.9,44.2,61.9z"/>
		</g>
	</g>
	<g>
		<circle class="st1" cx="29" cy="59.9" r="1.6"/>
	</g>
	<g>
		<circle class="st1" cx="21" cy="59.9" r="1.6"/>
	</g>
	<g>
		<circle class="st1" cx="14" cy="59.9" r="1.6"/>
	</g>
	<g>
		<g>
			<path class="st1" d="M34.8,62c-0.3,0-0.5-0.1-0.7-0.3c-0.4-0.4-0.4-1,0-1.4l2.4-2.4c0.4-0.4,1-0.4,1.4,0s0.4,1,0,1.4l-2.4,2.4
				C35.3,61.9,35.1,62,34.8,62z"/>
		</g>
		<g>
			<path class="st1" d="M37.2,62c-0.3,0-0.5-0.1-0.7-0.3l-2.4-2.4c-0.4-0.4-0.4-1,0-1.4s1-0.4,1.4,0l2.4,2.4c0.4,0.4,0.4,1,0,1.4
				C37.7,61.9,37.4,62,37.2,62z"/>
		</g>
	</g>
</g>
<g>
	<path class="st1" d="M65.1,52.9c-5.5,0-9.9-4.5-9.9-9.9c0-5.5,4.5-9.9,9.9-9.9s9.9,4.5,9.9,9.9C75,48.4,70.6,52.9,65.1,52.9z
		 M65.1,35c-4.4,0-7.9,3.6-7.9,7.9s3.6,7.9,7.9,7.9s7.9-3.6,7.9-7.9S69.5,35,65.1,35z"/>
</g>
<g>
	<path class="st1" d="M64.8,47.9c-0.2,0-0.5-0.1-0.6-0.2l-3.5-2.9c-0.4-0.4-0.5-1-0.1-1.4c0.4-0.4,1-0.5,1.4-0.1l2.5,2.1l2.8-7.2
		c0.2-0.5,0.8-0.8,1.3-0.6c0.5,0.2,0.8,0.8,0.6,1.3l-3.3,8.5c-0.1,0.3-0.4,0.5-0.7,0.6C65,47.9,64.9,47.9,64.8,47.9z"/>
</g>
</svg>
